<svg width="442" height="114" viewBox="0 0 442 114" fill="none" xmlns="http://www.w3.org/2000/svg">
<mask id="path-1-outside-1_1_11" maskUnits="userSpaceOnUse" x="-3" y="-3" width="448" height="120" fill="black">
<rect fill="white" x="-3" y="-3" width="448" height="120"/>
<path d="M60.295 81.856C60.295 91.4853 57.469 98.9167 51.817 104.15C46.2697 109.383 38.9953 112 29.994 112H2.362C1.83867 112 1.36767 111.843 0.949001 111.529C0.635 111.11 0.478 110.639 0.478 110.116V3.984C0.478 3.46066 0.635 3.042 0.949001 2.72799C1.36767 2.30933 1.83867 2.09999 2.362 2.09999H27.168C37.1113 2.09999 44.909 4.61199 50.561 9.636C56.213 14.66 59.039 21.9867 59.039 31.616C59.039 42.3967 55.2187 50.0897 47.578 54.695C47.0547 55.009 46.95 55.323 47.264 55.637C51.346 58.2537 54.5383 61.76 56.841 66.156C59.1437 70.552 60.295 75.7853 60.295 81.856ZM19.475 17.8C18.9517 17.8 18.69 18.0617 18.69 18.585V47.787C18.69 48.3103 18.9517 48.572 19.475 48.572H27.482C31.7733 48.572 35.1227 47.2637 37.53 44.647C39.9373 42.0303 41.141 38.3147 41.141 33.5C41.141 28.476 39.9373 24.6033 37.53 21.882C35.1227 19.1607 31.7733 17.8 27.482 17.8H19.475ZM28.581 96.143C32.7677 96.143 36.0647 94.6777 38.472 91.747C40.8793 88.8163 42.083 84.682 42.083 79.344C42.083 73.9013 40.8793 69.6623 38.472 66.627C36.0647 63.487 32.7677 61.917 28.581 61.917H19.475C18.9517 61.917 18.69 62.1787 18.69 62.702V95.358C18.69 95.8813 18.9517 96.143 19.475 96.143H28.581ZM131.888 15.916C131.888 16.4393 131.679 16.9103 131.26 17.329C130.946 17.643 130.528 17.8 130.004 17.8H96.0922C95.5689 17.8 95.3072 18.0617 95.3072 18.585V48.258C95.3072 48.7813 95.5689 49.043 96.0922 49.043H116.188C116.712 49.043 117.13 49.2523 117.444 49.671C117.863 49.985 118.072 50.4037 118.072 50.927V63.016C118.072 63.5393 117.863 64.0103 117.444 64.429C117.13 64.743 116.712 64.9 116.188 64.9H96.0922C95.5689 64.9 95.3072 65.1617 95.3072 65.685V95.515C95.3072 96.0383 95.5689 96.3 96.0922 96.3H130.004C130.528 96.3 130.946 96.5093 131.26 96.928C131.679 97.242 131.888 97.6607 131.888 98.184V110.116C131.888 110.639 131.679 111.11 131.26 111.529C130.946 111.843 130.528 112 130.004 112H78.9792C78.4559 112 77.9849 111.843 77.5662 111.529C77.2522 111.11 77.0952 110.639 77.0952 110.116V3.984C77.0952 3.46066 77.2522 3.042 77.5662 2.72799C77.9849 2.30933 78.4559 2.09999 78.9792 2.09999H130.004C130.528 2.09999 130.946 2.30933 131.26 2.72799C131.679 3.042 131.888 3.46066 131.888 3.984V15.916ZM194.621 3.984C194.621 3.46066 194.778 3.042 195.092 2.72799C195.51 2.30933 195.981 2.09999 196.505 2.09999H210.792C211.315 2.09999 211.734 2.30933 212.048 2.72799C212.466 3.042 212.676 3.46066 212.676 3.984V110.116C212.676 110.639 212.466 111.11 212.048 111.529C211.734 111.843 211.315 112 210.792 112H194.307C193.26 112 192.58 111.477 192.266 110.43L168.873 43.862C168.768 43.548 168.559 43.4433 168.245 43.548C168.035 43.548 167.931 43.705 167.931 44.019L168.088 110.116C168.088 110.639 167.878 111.11 167.46 111.529C167.146 111.843 166.727 112 166.204 112H151.917C151.393 112 150.922 111.843 150.504 111.529C150.19 111.11 150.033 110.639 150.033 110.116V3.984C150.033 3.46066 150.19 3.042 150.504 2.72799C150.922 2.30933 151.393 2.09999 151.917 2.09999H168.088C169.134 2.09999 169.815 2.62333 170.129 3.66999L193.679 69.767C193.783 70.081 193.94 70.238 194.15 70.238C194.464 70.1333 194.621 69.924 194.621 69.61V3.984ZM261.948 113.256C253.051 113.256 245.882 110.692 240.439 105.563C235.101 100.33 232.432 93.4217 232.432 84.839V29.261C232.432 20.6783 235.101 13.8227 240.439 8.69399C245.882 3.46066 253.051 0.843999 261.948 0.843999C270.845 0.843999 278.014 3.46066 283.457 8.69399C289.004 13.8227 291.778 20.7307 291.778 29.418V35.541C291.778 36.0643 291.569 36.5353 291.15 36.954C290.836 37.268 290.417 37.425 289.894 37.425H275.45C274.927 37.425 274.456 37.268 274.037 36.954C273.723 36.5353 273.566 36.0643 273.566 35.541V29.104C273.566 25.336 272.467 22.3007 270.269 19.998C268.176 17.6953 265.402 16.544 261.948 16.544C258.494 16.544 255.72 17.6953 253.627 19.998C251.534 22.3007 250.487 25.336 250.487 29.104V84.996C250.487 88.764 251.534 91.7993 253.627 94.102C255.72 96.4047 258.494 97.556 261.948 97.556C265.402 97.556 268.176 96.4047 270.269 94.102C272.467 91.7993 273.566 88.764 273.566 84.996V69.924C273.566 69.4007 273.304 69.139 272.781 69.139H263.204C262.681 69.139 262.21 68.982 261.791 68.668C261.477 68.2493 261.32 67.7783 261.32 67.255V55.794C261.32 55.2707 261.477 54.852 261.791 54.538C262.21 54.1193 262.681 53.91 263.204 53.91H289.894C290.417 53.91 290.836 54.1193 291.15 54.538C291.569 54.852 291.778 55.2707 291.778 55.794V84.839C291.778 93.4217 289.004 100.33 283.457 105.563C278.014 110.692 270.845 113.256 261.948 113.256ZM354.908 112C353.652 112 352.972 111.424 352.867 110.273L349.884 93.788C349.884 93.2647 349.57 93.003 348.942 93.003H326.02C325.392 93.003 325.078 93.2647 325.078 93.788L322.095 110.273C321.99 111.424 321.31 112 320.054 112H305.767C304.302 112 303.726 111.32 304.04 109.959L327.276 3.827C327.485 2.67566 328.166 2.09999 329.317 2.09999H345.959C347.11 2.09999 347.791 2.67566 348 3.827L371.236 109.959V110.587C371.236 111.529 370.66 112 369.509 112H354.908ZM327.904 77.931C327.799 78.4543 328.061 78.716 328.689 78.716H346.116C346.744 78.716 347.006 78.4543 346.901 77.931L337.795 28.319C337.69 28.005 337.533 27.848 337.324 27.848C337.115 27.848 336.958 28.005 336.853 28.319L327.904 77.931ZM388.515 112C387.991 112 387.52 111.843 387.102 111.529C386.788 111.11 386.631 110.639 386.631 110.116V3.984C386.631 3.46066 386.788 3.042 387.102 2.72799C387.52 2.30933 387.991 2.09999 388.515 2.09999H402.959C403.482 2.09999 403.901 2.30933 404.215 2.72799C404.633 3.042 404.843 3.46066 404.843 3.984V95.515C404.843 96.0383 405.104 96.3 405.628 96.3H439.54C440.063 96.3 440.482 96.5093 440.796 96.928C441.214 97.242 441.424 97.6607 441.424 98.184V110.116C441.424 110.639 441.214 111.11 440.796 111.529C440.482 111.843 440.063 112 439.54 112H388.515Z"/>
</mask>
<path d="M51.817 104.15L49.7788 101.949L49.7685 101.958L49.7583 101.968L51.817 104.15ZM0.949 111.529L-1.451 113.329L-1.19386 113.672L-0.850999 113.929L0.949 111.529ZM0.949 2.72799L-1.17232 0.606674L-1.17233 0.606682L0.949 2.72799ZM50.561 9.636L48.5679 11.8782L50.561 9.636ZM47.578 54.695L49.1215 57.2675L49.1267 57.2644L47.578 54.695ZM47.264 55.637L45.1427 57.7583L45.372 57.9876L45.645 58.1626L47.264 55.637ZM56.841 66.156L54.1835 67.548H54.1835L56.841 66.156ZM37.53 21.882L35.283 23.8697H35.283L37.53 21.882ZM38.472 91.747L36.1538 89.8428H36.1538L38.472 91.747ZM38.472 66.627L36.0912 68.4523L36.1062 68.4719L36.1215 68.4912L38.472 66.627ZM57.295 81.856C57.295 90.8732 54.6708 97.419 49.7788 101.949L53.8552 106.351C60.2672 100.414 63.295 92.0975 63.295 81.856H57.295ZM49.7583 101.968C44.8663 106.583 38.3771 109 29.994 109V115C39.6136 115 47.673 112.184 53.8757 106.332L49.7583 101.968ZM29.994 109H2.362V115H29.994V109ZM2.362 109C2.40524 109 2.47832 109.007 2.56493 109.036C2.65155 109.065 2.71441 109.103 2.749 109.129L-0.850999 113.929C0.0869551 114.632 1.18956 115 2.362 115V109ZM3.349 109.729C3.37494 109.764 3.41293 109.826 3.4418 109.913C3.47067 110 3.478 110.073 3.478 110.116H-2.522C-2.522 111.288 -2.15447 112.391 -1.451 113.329L3.349 109.729ZM3.478 110.116V3.984H-2.522V110.116H3.478ZM3.478 3.984C3.478 4.02192 3.47207 4.15131 3.40474 4.33086C3.33395 4.51965 3.2183 4.70133 3.07033 4.84931L-1.17233 0.606682C-2.14853 1.58289 -2.522 2.81789 -2.522 3.984H3.478ZM3.07032 4.84931C3.05754 4.86209 2.98177 4.93305 2.83467 4.99842C2.68058 5.06691 2.51346 5.09999 2.362 5.09999V-0.900009C0.935919 -0.900009 -0.271591 -0.294056 -1.17232 0.606674L3.07032 4.84931ZM2.362 5.09999H27.168V-0.900009H2.362V5.09999ZM27.168 5.09999C36.6126 5.09999 43.619 7.47922 48.5679 11.8782L52.5541 7.39377C46.199 1.74477 37.61 -0.900009 27.168 -0.900009V5.09999ZM48.5679 11.8782C53.4134 16.1853 56.039 22.5929 56.039 31.616H62.039C62.039 21.3804 59.0126 13.1347 52.5541 7.39377L48.5679 11.8782ZM56.039 31.616C56.039 41.6011 52.5697 48.1835 46.0293 52.1256L49.1267 57.2644C57.8676 51.9959 62.039 43.1922 62.039 31.616H56.039ZM46.0345 52.1225C45.6169 52.3731 44.6651 53.0047 44.2609 54.2173C43.7255 55.8238 44.5025 57.1182 45.1427 57.7583L49.3853 53.5157C49.5288 53.6592 49.7905 53.965 49.953 54.4528C50.1322 54.9901 50.1322 55.5774 49.9531 56.1147C49.7905 56.6024 49.5288 56.9083 49.3853 57.0518C49.2394 57.1977 49.1286 57.2632 49.1215 57.2675L46.0345 52.1225ZM45.645 58.1626C49.2776 60.4912 52.1167 63.6023 54.1835 67.548L59.4985 64.764C56.96 59.9177 53.4144 56.0161 48.883 53.1114L45.645 58.1626ZM54.1835 67.548C56.2163 71.4289 57.295 76.1633 57.295 81.856H63.295C63.295 75.4073 62.071 69.6751 59.4985 64.764L54.1835 67.548ZM19.475 14.8C18.7509 14.8 17.6568 14.9831 16.7649 15.8749C15.8731 16.7668 15.69 17.8609 15.69 18.585H21.69C21.69 18.7858 21.6378 19.4874 21.0076 20.1176C20.3774 20.7478 19.6758 20.8 19.475 20.8V14.8ZM15.69 18.585V47.787H21.69V18.585H15.69ZM15.69 47.787C15.69 48.5111 15.8731 49.6052 16.7649 50.4971C17.6568 51.3889 18.7509 51.572 19.475 51.572V45.572C19.6758 45.572 20.3774 45.6242 21.0076 46.2544C21.6378 46.8846 21.69 47.5862 21.69 47.787H15.69ZM19.475 51.572H27.482V45.572H19.475V51.572ZM27.482 51.572C32.4244 51.572 36.6465 50.0383 39.7378 46.6782L35.3222 42.6158C33.5988 44.4891 31.1223 45.572 27.482 45.572V51.572ZM39.7378 46.6782C42.812 43.3366 44.141 38.7968 44.141 33.5H38.141C38.141 37.8326 37.0626 40.7241 35.3222 42.6158L39.7378 46.6782ZM44.141 33.5C44.141 28.0244 42.8278 23.3431 39.777 19.8943L35.283 23.8697C37.0468 25.8636 38.141 28.9276 38.141 33.5H44.141ZM39.777 19.8943C36.6961 16.4115 32.4619 14.8 27.482 14.8V20.8C31.0847 20.8 33.5493 21.9098 35.283 23.8697L39.777 19.8943ZM27.482 14.8H19.475V20.8H27.482V14.8ZM28.581 99.143C33.5596 99.143 37.7491 97.3534 40.7902 93.6512L36.1538 89.8428C34.3802 92.0019 31.9757 93.143 28.581 93.143V99.143ZM40.7902 93.6512C43.7877 90.0021 45.083 85.0978 45.083 79.344H39.083C39.083 84.2662 37.971 87.6306 36.1538 89.8428L40.7902 93.6512ZM45.083 79.344C45.083 73.4934 43.7916 68.5065 40.8225 64.7628L36.1215 68.4912C37.9671 70.8182 39.083 74.3093 39.083 79.344H45.083ZM40.8528 64.8017C37.8405 60.8725 33.6377 58.917 28.581 58.917V64.917C31.8976 64.917 34.2889 66.1014 36.0912 68.4523L40.8528 64.8017ZM28.581 58.917H19.475V64.917H28.581V58.917ZM19.475 58.917C18.7509 58.917 17.6568 59.1001 16.7649 59.9919C15.8731 60.8838 15.69 61.9779 15.69 62.702H21.69C21.69 62.9028 21.6378 63.6044 21.0076 64.2346C20.3774 64.8648 19.6758 64.917 19.475 64.917V58.917ZM15.69 62.702V95.358H21.69V62.702H15.69ZM15.69 95.358C15.69 96.0821 15.8731 97.1762 16.7649 98.0681C17.6568 98.9599 18.7509 99.143 19.475 99.143V93.143C19.6758 93.143 20.3774 93.1952 21.0076 93.8254C21.6378 94.4556 21.69 95.1572 21.69 95.358H15.69ZM19.475 99.143H28.581V93.143H19.475V99.143ZM131.26 17.329L129.139 15.2077V15.2077L131.26 17.329ZM117.444 49.671L115.044 51.471L115.301 51.8139L115.644 52.071L117.444 49.671ZM131.26 96.928L128.86 98.728L129.117 99.0709L129.46 99.328L131.26 96.928ZM131.26 111.529L129.139 109.408H129.139L131.26 111.529ZM77.5662 111.529L75.1662 113.329L75.4234 113.672L75.7662 113.929L77.5662 111.529ZM77.5662 2.72799L75.4449 0.606674V0.606682L77.5662 2.72799ZM131.26 2.72799L128.86 4.52799L129.117 4.87085L129.46 5.12799L131.26 2.72799ZM128.888 15.916C128.888 15.7645 128.921 15.5974 128.99 15.4433C129.055 15.2962 129.126 15.2205 129.139 15.2077L133.382 19.4503C134.282 18.5496 134.888 17.3421 134.888 15.916H128.888ZM129.139 15.2077C129.287 15.0597 129.469 14.9441 129.657 14.8733C129.837 14.8059 129.966 14.8 130.004 14.8V20.8C131.17 20.8 132.405 20.4265 133.382 19.4503L129.139 15.2077ZM130.004 14.8H96.0922V20.8H130.004V14.8ZM96.0922 14.8C95.3681 14.8 94.274 14.9831 93.3822 15.8749C92.4903 16.7668 92.3072 17.8609 92.3072 18.585H98.3072C98.3072 18.7858 98.255 19.4874 97.6248 20.1176C96.9946 20.7478 96.293 20.8 96.0922 20.8V14.8ZM92.3072 18.585V48.258H98.3072V18.585H92.3072ZM92.3072 48.258C92.3072 48.9821 92.4903 50.0762 93.3822 50.9681C94.274 51.8599 95.3681 52.043 96.0922 52.043V46.043C96.293 46.043 96.9946 46.0952 97.6248 46.7254C98.255 47.3556 98.3072 48.0572 98.3072 48.258H92.3072ZM96.0922 52.043H116.188V46.043H96.0922V52.043ZM116.188 52.043C116.04 52.043 115.807 52.0104 115.553 51.8833C115.299 51.7562 115.133 51.5898 115.044 51.471L119.844 47.871C118.964 46.6969 117.656 46.043 116.188 46.043V52.043ZM115.644 52.071C115.525 51.9819 115.359 51.8164 115.232 51.5621C115.105 51.3079 115.072 51.0755 115.072 50.927H121.072C121.072 49.4594 120.418 48.1516 119.244 47.271L115.644 52.071ZM115.072 50.927V63.016H121.072V50.927H115.072ZM115.072 63.016C115.072 62.8645 115.105 62.6974 115.174 62.5433C115.239 62.3962 115.31 62.3205 115.323 62.3077L119.566 66.5503C120.466 65.6496 121.072 64.4421 121.072 63.016H115.072ZM115.323 62.3077C115.471 62.1597 115.653 62.0441 115.841 61.9733C116.021 61.9059 116.15 61.9 116.188 61.9V67.9C117.354 67.9 118.589 67.5265 119.566 66.5503L115.323 62.3077ZM116.188 61.9H96.0922V67.9H116.188V61.9ZM96.0922 61.9C95.3681 61.9 94.274 62.0831 93.3822 62.9749C92.4903 63.8668 92.3072 64.9609 92.3072 65.685H98.3072C98.3072 65.8858 98.255 66.5874 97.6248 67.2176C96.9946 67.8478 96.293 67.9 96.0922 67.9V61.9ZM92.3072 65.685V95.515H98.3072V65.685H92.3072ZM92.3072 95.515C92.3072 96.2391 92.4903 97.3332 93.3822 98.2251C94.274 99.1169 95.3681 99.3 96.0922 99.3V93.3C96.293 93.3 96.9946 93.3522 97.6248 93.9824C98.255 94.6126 98.3072 95.3142 98.3072 95.515H92.3072ZM96.0922 99.3H130.004V93.3H96.0922V99.3ZM130.004 99.3C129.856 99.3 129.623 99.2674 129.369 99.1403C129.115 99.0132 128.949 98.8468 128.86 98.728L133.66 95.128C132.78 93.9539 131.472 93.3 130.004 93.3V99.3ZM129.46 99.328C129.341 99.2389 129.175 99.0734 129.048 98.8191C128.921 98.5649 128.888 98.3325 128.888 98.184H134.888C134.888 96.7164 134.234 95.4086 133.06 94.528L129.46 99.328ZM128.888 98.184V110.116H134.888V98.184H128.888ZM128.888 110.116C128.888 109.965 128.921 109.797 128.99 109.643C129.055 109.496 129.126 109.42 129.139 109.408L133.382 113.65C134.282 112.75 134.888 111.542 134.888 110.116H128.888ZM129.139 109.408C129.287 109.26 129.469 109.144 129.657 109.073C129.837 109.006 129.966 109 130.004 109V115C131.17 115 132.405 114.627 133.382 113.65L129.139 109.408ZM130.004 109H78.9792V115H130.004V109ZM78.9792 109C79.0225 109 79.0956 109.007 79.1822 109.036C79.2688 109.065 79.3316 109.103 79.3662 109.129L75.7662 113.929C76.7042 114.632 77.8068 115 78.9792 115V109ZM79.9662 109.729C79.9922 109.764 80.0302 109.826 80.059 109.913C80.0879 110 80.0952 110.073 80.0952 110.116H74.0952C74.0952 111.288 74.4628 112.391 75.1662 113.329L79.9662 109.729ZM80.0952 110.116V3.984H74.0952V110.116H80.0952ZM80.0952 3.984C80.0952 4.02192 80.0893 4.15131 80.022 4.33086C79.9512 4.51965 79.8355 4.70133 79.6876 4.84931L75.4449 0.606682C74.4687 1.58289 74.0952 2.81789 74.0952 3.984H80.0952ZM79.6875 4.84931C79.6748 4.86209 79.599 4.93305 79.4519 4.99842C79.2978 5.06691 79.1307 5.09999 78.9792 5.09999V-0.900009C77.5531 -0.900009 76.3456 -0.294056 75.4449 0.606674L79.6875 4.84931ZM78.9792 5.09999H130.004V-0.900009H78.9792V5.09999ZM130.004 5.09999C129.856 5.09999 129.623 5.06739 129.369 4.94027C129.115 4.81315 128.949 4.64679 128.86 4.52799L133.66 0.928001C132.78 -0.246086 131.472 -0.900009 130.004 -0.900009V5.09999ZM129.46 5.12799C129.341 5.03889 129.175 4.87337 129.048 4.61914C128.921 4.36489 128.888 4.1325 128.888 3.984H134.888C134.888 2.51639 134.234 1.20856 133.06 0.327999L129.46 5.12799ZM128.888 3.984V15.916H134.888V3.984H128.888ZM195.092 2.72799L192.97 0.606674V0.606686L195.092 2.72799ZM212.048 2.72799L209.648 4.528L209.905 4.87085L210.248 5.12798L212.048 2.72799ZM212.048 111.529L214.169 113.65L214.169 113.65L212.048 111.529ZM192.266 110.43L195.139 109.568L195.119 109.501L195.096 109.435L192.266 110.43ZM168.873 43.862L166.027 44.8107L166.034 44.8337L166.042 44.8566L168.873 43.862ZM168.245 43.548V46.548H168.732L169.193 46.3941L168.245 43.548ZM167.931 44.019H164.931L164.931 44.0261L167.931 44.019ZM168.088 110.116H171.088L171.088 110.109L168.088 110.116ZM167.46 111.529L169.581 113.65L167.46 111.529ZM150.504 111.529L148.104 113.329L148.361 113.672L148.704 113.929L150.504 111.529ZM150.504 2.72799L148.382 0.606674L148.382 0.606682L150.504 2.72799ZM170.129 3.66999L167.255 4.53204L167.277 4.60506L167.303 4.67687L170.129 3.66999ZM193.679 69.767L196.525 68.8183L196.515 68.7891L196.505 68.7601L193.679 69.767ZM194.15 70.238V73.238H194.637L195.098 73.084L194.15 70.238ZM197.621 3.984C197.621 4.02192 197.615 4.15131 197.548 4.33086C197.477 4.51964 197.361 4.70133 197.213 4.8493L192.97 0.606686C191.994 1.58289 191.621 2.8179 191.621 3.984H197.621ZM197.213 4.84932C197.2 4.86209 197.125 4.93305 196.977 4.99843C196.823 5.06691 196.656 5.09999 196.505 5.09999V-0.900009C195.079 -0.900009 193.871 -0.294056 192.97 0.606674L197.213 4.84932ZM196.505 5.09999H210.792V-0.900009H196.505V5.09999ZM210.792 5.09999C210.643 5.09999 210.411 5.06739 210.157 4.94027C209.902 4.81316 209.737 4.64679 209.648 4.528L214.448 0.92799C213.567 -0.24609 212.259 -0.900009 210.792 -0.900009V5.09999ZM210.248 5.12798C210.129 5.03888 209.963 4.87337 209.835 4.61913C209.708 4.36489 209.676 4.13249 209.676 3.984H215.676C215.676 2.5164 215.022 1.20857 213.848 0.328003L210.248 5.12798ZM209.676 3.984V110.116H215.676V3.984H209.676ZM209.676 110.116C209.676 109.965 209.709 109.797 209.777 109.643C209.843 109.496 209.914 109.42 209.926 109.408L214.169 113.65C215.07 112.75 215.676 111.542 215.676 110.116H209.676ZM209.926 109.408C210.074 109.26 210.256 109.144 210.445 109.073C210.624 109.006 210.754 109 210.792 109V115C211.958 115 213.193 114.627 214.169 113.65L209.926 109.408ZM210.792 109H194.307V115H210.792V109ZM194.307 109C194.296 109 194.549 109.006 194.841 109.23C195.12 109.445 195.165 109.654 195.139 109.568L189.392 111.292C189.68 112.252 190.223 113.247 191.182 113.985C192.154 114.733 193.271 115 194.307 115V109ZM195.096 109.435L171.703 42.8674L166.042 44.8566L189.435 111.425L195.096 109.435ZM171.719 42.9133C171.52 42.3176 171.046 41.3984 169.979 40.8647C168.912 40.3311 167.892 40.5034 167.296 40.7019L169.193 46.3941C168.912 46.488 168.154 46.6603 167.296 46.2313C166.438 45.8023 166.121 45.0924 166.027 44.8107L171.719 42.9133ZM168.245 40.548C167.266 40.548 166.19 40.9865 165.513 42.0016C164.979 42.8021 164.931 43.6234 164.931 44.019H170.931C170.931 44.1006 170.934 44.6864 170.505 45.3298C170.264 45.6914 169.912 46.0294 169.449 46.2607C168.999 46.4858 168.569 46.548 168.245 46.548V40.548ZM164.931 44.0261L165.088 110.123L171.088 110.109L170.931 44.0119L164.931 44.0261ZM165.088 110.116C165.088 109.965 165.121 109.797 165.189 109.643C165.255 109.496 165.326 109.42 165.338 109.408L169.581 113.65C170.482 112.75 171.088 111.542 171.088 110.116H165.088ZM165.338 109.408C165.486 109.26 165.668 109.144 165.857 109.073C166.036 109.006 166.166 109 166.204 109V115C167.37 115 168.605 114.627 169.581 113.65L165.338 109.408ZM166.204 109H151.917V115H166.204V109ZM151.917 109C151.96 109 152.033 109.007 152.12 109.036C152.206 109.065 152.269 109.103 152.304 109.129L148.704 113.929C149.642 114.632 150.744 115 151.917 115V109ZM152.904 109.729C152.93 109.764 152.968 109.826 152.997 109.913C153.025 110 153.033 110.073 153.033 110.116H147.033C147.033 111.288 147.4 112.391 148.104 113.329L152.904 109.729ZM153.033 110.116V3.984H147.033V110.116H153.033ZM153.033 3.984C153.033 4.02192 153.027 4.15131 152.96 4.33086C152.889 4.51965 152.773 4.70133 152.625 4.84931L148.382 0.606682C147.406 1.58289 147.033 2.81789 147.033 3.984H153.033ZM152.625 4.84931C152.612 4.86209 152.537 4.93305 152.389 4.99842C152.235 5.06691 152.068 5.09999 151.917 5.09999V-0.900009C150.491 -0.900009 149.283 -0.294056 148.382 0.606674L152.625 4.84931ZM151.917 5.09999H168.088V-0.900009H151.917V5.09999ZM168.088 5.09999C168.098 5.09999 167.845 5.0944 167.554 4.87037C167.275 4.65547 167.229 4.4458 167.255 4.53204L173.002 2.80795C172.714 1.84752 172.172 0.852848 171.212 0.11462C170.241 -0.632744 169.124 -0.900009 168.088 -0.900009V5.09999ZM167.303 4.67687L190.853 70.7739L196.505 68.7601L172.955 2.66311L167.303 4.67687ZM190.833 70.7157C191.068 71.4216 191.948 73.238 194.15 73.238V67.238C194.893 67.238 195.55 67.5527 195.996 67.9989C196.369 68.3715 196.496 68.7325 196.525 68.8183L190.833 70.7157ZM195.098 73.084C195.681 72.89 196.372 72.5106 196.903 71.8025C197.444 71.081 197.621 70.2826 197.621 69.61H191.621C191.621 69.2514 191.719 68.7146 192.103 68.2025C192.477 67.7037 192.933 67.4814 193.201 67.392L195.098 73.084ZM197.621 69.61V3.984H191.621V69.61H197.621ZM240.439 105.563L238.339 107.705L238.36 107.726L238.382 107.746L240.439 105.563ZM240.439 8.69399L242.517 10.8573L242.518 10.8565L240.439 8.69399ZM283.457 8.69399L281.378 10.8565L281.399 10.8769L281.42 10.8968L283.457 8.69399ZM274.037 36.954L271.637 38.754L271.894 39.0969L272.237 39.354L274.037 36.954ZM270.269 19.998L268.049 22.016L268.074 22.043L268.099 22.0694L270.269 19.998ZM253.627 19.998L251.407 17.98V17.98L253.627 19.998ZM253.627 94.102L251.407 96.12L253.627 94.102ZM270.269 94.102L268.099 92.0306L268.074 92.057L268.049 92.084L270.269 94.102ZM261.791 68.668L259.391 70.468L259.648 70.8109L259.991 71.068L261.791 68.668ZM261.791 54.538L259.67 52.4167L259.67 52.4167L261.791 54.538ZM291.15 54.538L288.75 56.338L289.007 56.6809L289.35 56.938L291.15 54.538ZM283.457 105.563L285.514 107.746L285.516 107.745L283.457 105.563ZM261.948 110.256C253.662 110.256 247.279 107.887 242.496 103.38L238.382 107.746C244.484 113.497 252.441 116.256 261.948 116.256V110.256ZM242.539 103.421C237.863 98.8366 235.432 92.7457 235.432 84.839H229.432C229.432 94.0977 232.339 101.823 238.339 107.705L242.539 103.421ZM235.432 84.839V29.261H229.432V84.839H235.432ZM235.432 29.261C235.432 21.3531 237.863 15.3291 242.517 10.8573L238.361 6.53068C232.339 12.3162 229.432 20.0036 229.432 29.261H235.432ZM242.518 10.8565C247.304 6.25497 253.679 3.844 261.948 3.844V-2.156C252.424 -2.156 244.459 0.666359 238.36 6.53149L242.518 10.8565ZM261.948 3.844C270.217 3.844 276.592 6.25497 281.378 10.8565L285.536 6.53149C279.437 0.666355 271.472 -2.156 261.948 -2.156V3.844ZM281.42 10.8968C286.259 15.3704 288.778 21.4294 288.778 29.418H294.778C294.778 20.0319 291.749 12.2749 285.494 6.49118L281.42 10.8968ZM288.778 29.418V35.541H294.778V29.418H288.778ZM288.778 35.541C288.778 35.3895 288.811 35.2224 288.88 35.0683C288.945 34.9212 289.016 34.8455 289.029 34.8327L293.271 39.0753C294.172 38.1746 294.778 36.9671 294.778 35.541H288.778ZM289.029 34.8327C289.177 34.6847 289.358 34.5691 289.547 34.4983C289.727 34.4309 289.856 34.425 289.894 34.425V40.425C291.06 40.425 292.295 40.0515 293.271 39.0753L289.029 34.8327ZM289.894 34.425H275.45V40.425H289.894V34.425ZM275.45 34.425C275.493 34.425 275.566 34.4323 275.653 34.4612C275.74 34.4901 275.802 34.5281 275.837 34.554L272.237 39.354C273.175 40.0575 274.278 40.425 275.45 40.425V34.425ZM276.437 35.154C276.463 35.1886 276.501 35.2515 276.53 35.3381C276.559 35.4247 276.566 35.4978 276.566 35.541H270.566C270.566 36.7134 270.934 37.816 271.637 38.754L276.437 35.154ZM276.566 35.541V29.104H270.566V35.541H276.566ZM276.566 29.104C276.566 24.7157 275.266 20.8879 272.439 17.9266L268.099 22.0694C269.668 23.7134 270.566 25.9563 270.566 29.104H276.566ZM272.489 17.98C269.761 14.9793 266.144 13.544 261.948 13.544V19.544C264.66 19.544 266.59 20.4114 268.049 22.016L272.489 17.98ZM261.948 13.544C257.752 13.544 254.135 14.9793 251.407 17.98L255.847 22.016C257.306 20.4114 259.236 19.544 261.948 19.544V13.544ZM251.407 17.98C248.711 20.9462 247.487 24.7552 247.487 29.104H253.487C253.487 25.9168 254.357 23.6551 255.847 22.016L251.407 17.98ZM247.487 29.104V84.996H253.487V29.104H247.487ZM247.487 84.996C247.487 89.3448 248.711 93.1538 251.407 96.12L255.847 92.084C254.357 90.4449 253.487 88.1832 253.487 84.996H247.487ZM251.407 96.12C254.135 99.1207 257.752 100.556 261.948 100.556V94.556C259.236 94.556 257.306 93.6886 255.847 92.084L251.407 96.12ZM261.948 100.556C266.144 100.556 269.761 99.1207 272.489 96.12L268.049 92.084C266.59 93.6886 264.66 94.556 261.948 94.556V100.556ZM272.439 96.1734C275.266 93.2121 276.566 89.3843 276.566 84.996H270.566C270.566 88.1437 269.668 90.3866 268.099 92.0306L272.439 96.1734ZM276.566 84.996V69.924H270.566V84.996H276.566ZM276.566 69.924C276.566 69.1999 276.383 68.1058 275.491 67.2139C274.599 66.3221 273.505 66.139 272.781 66.139V72.139C272.58 72.139 271.879 72.0868 271.248 71.4566C270.618 70.8264 270.566 70.1248 270.566 69.924H276.566ZM272.781 66.139H263.204V72.139H272.781V66.139ZM263.204 66.139C263.247 66.139 263.32 66.1463 263.407 66.1752C263.494 66.2041 263.556 66.2421 263.591 66.268L259.991 71.068C260.929 71.7715 262.032 72.139 263.204 72.139V66.139ZM264.191 66.868C264.217 66.9026 264.255 66.9654 264.284 67.0521C264.313 67.1387 264.32 67.2118 264.32 67.255H258.32C258.32 68.4274 258.688 69.53 259.391 70.468L264.191 66.868ZM264.32 67.255V55.794H258.32V67.255H264.32ZM264.32 55.794C264.32 55.8319 264.314 55.9613 264.247 56.1409C264.176 56.3297 264.06 56.5113 263.912 56.6593L259.67 52.4167C258.693 53.3929 258.32 54.6279 258.32 55.794H264.32ZM263.912 56.6593C263.9 56.6721 263.824 56.7431 263.677 56.8084C263.523 56.8769 263.355 56.91 263.204 56.91V50.91C261.778 50.91 260.57 51.5159 259.67 52.4167L263.912 56.6593ZM263.204 56.91H289.894V50.91H263.204V56.91ZM289.894 56.91C289.746 56.91 289.513 56.8774 289.259 56.7503C289.005 56.6232 288.839 56.4568 288.75 56.338L293.55 52.738C292.669 51.5639 291.362 50.91 289.894 50.91V56.91ZM289.35 56.938C289.231 56.8489 289.065 56.6834 288.938 56.4291C288.811 56.1749 288.778 55.9425 288.778 55.794H294.778C294.778 54.3264 294.124 53.0186 292.95 52.138L289.35 56.938ZM288.778 55.794V84.839H294.778V55.794H288.778ZM288.778 84.839C288.778 92.7098 286.267 98.7881 281.398 103.381L285.516 107.745C291.742 101.871 294.778 94.1335 294.778 84.839H288.778ZM281.4 103.38C276.617 107.887 270.234 110.256 261.948 110.256V116.256C271.455 116.256 279.412 113.497 285.514 107.746L281.4 103.38ZM352.867 110.273L355.855 110.001L355.843 109.869L355.819 109.739L352.867 110.273ZM349.884 93.788H346.884V94.0572L346.932 94.3222L349.884 93.788ZM325.078 93.788L328.03 94.3222L328.078 94.0572V93.788H325.078ZM322.095 110.273L319.143 109.739L319.119 109.869L319.107 110.001L322.095 110.273ZM304.04 109.959L306.963 110.634L306.967 110.617L306.971 110.601L304.04 109.959ZM327.276 3.827L330.207 4.46861L330.218 4.41632L330.228 4.36366L327.276 3.827ZM348 3.827L345.048 4.36365L345.058 4.41631L345.069 4.46861L348 3.827ZM371.236 109.959H374.236V109.634L374.167 109.317L371.236 109.959ZM327.904 77.931L330.846 78.5193L330.851 78.4915L330.856 78.4635L327.904 77.931ZM346.901 77.931L343.95 78.4726L343.955 78.496L343.959 78.5194L346.901 77.931ZM337.795 28.319L340.746 27.7774L340.708 27.5702L340.641 27.3703L337.795 28.319ZM336.853 28.319L334.007 27.3703L333.939 27.5746L333.901 27.7864L336.853 28.319ZM354.908 109C354.702 109 355.007 108.951 355.394 109.278C355.818 109.637 355.858 110.035 355.855 110.001L349.879 110.545C349.981 111.662 350.413 112.923 351.518 113.858C352.585 114.761 353.857 115 354.908 115V109ZM355.819 109.739L352.836 93.2538L346.932 94.3222L349.915 110.807L355.819 109.739ZM352.884 93.788C352.884 92.9055 352.593 91.748 351.569 90.8946C350.65 90.1285 349.599 90.003 348.942 90.003V96.003C348.913 96.003 348.333 96.0083 347.728 95.5039C347.018 94.9122 346.884 94.1471 346.884 93.788H352.884ZM348.942 90.003H326.02V96.003H348.942V90.003ZM326.02 90.003C325.363 90.003 324.312 90.1285 323.393 90.8946C322.369 91.748 322.078 92.9055 322.078 93.788H328.078C328.078 94.1471 327.944 94.9122 327.234 95.5039C326.629 96.0083 326.049 96.003 326.02 96.003V90.003ZM322.126 93.2538L319.143 109.739L325.047 110.807L328.03 94.3222L322.126 93.2538ZM319.107 110.001C319.104 110.035 319.144 109.637 319.568 109.278C319.955 108.951 320.259 109 320.054 109V115C321.104 115 322.377 114.761 323.444 113.858C324.549 112.923 324.981 111.662 325.083 110.545L319.107 110.001ZM320.054 109H305.767V115H320.054V109ZM305.767 109C305.362 109 305.963 108.886 306.526 109.552C307.133 110.268 306.896 110.924 306.963 110.634L301.117 109.284C300.87 110.354 300.764 112.031 301.946 113.428C303.085 114.773 304.707 115 305.767 115V109ZM306.971 110.601L330.207 4.46861L324.345 3.18539L301.109 109.317L306.971 110.601ZM330.228 4.36366C330.247 4.25593 330.218 4.53636 329.881 4.8219C329.538 5.11247 329.24 5.09999 329.317 5.09999V-0.900009C328.243 -0.900009 327.029 -0.624653 326.005 0.241589C324.988 1.1028 324.514 2.24673 324.324 3.29034L330.228 4.36366ZM329.317 5.09999H345.959V-0.900009H329.317V5.09999ZM345.959 5.09999C346.036 5.09999 345.738 5.11247 345.395 4.8219C345.057 4.53635 345.029 4.25592 345.048 4.36365L350.952 3.29035C350.762 2.24674 350.288 1.10281 349.271 0.241589C348.247 -0.624653 347.033 -0.900009 345.959 -0.900009V5.09999ZM345.069 4.46861L368.305 110.601L374.167 109.317L350.931 3.18539L345.069 4.46861ZM368.236 109.959V110.587H374.236V109.959H368.236ZM368.236 110.587C368.236 110.523 368.245 110.33 368.35 110.073C368.462 109.799 368.651 109.533 368.904 109.325C369.377 108.938 369.752 109 369.509 109V115C370.417 115 371.656 114.826 372.704 113.969C373.868 113.017 374.236 111.697 374.236 110.587H368.236ZM369.509 109H354.908V115H369.509V109ZM324.962 77.3427C324.807 78.12 324.779 79.5195 325.9 80.6411C326.878 81.6184 328.1 81.716 328.689 81.716V75.716C328.724 75.716 328.892 75.7178 329.133 75.7888C329.384 75.8626 329.775 76.0301 330.143 76.3984C331.003 77.2583 330.897 78.2653 330.846 78.5193L324.962 77.3427ZM328.689 81.716H346.116V75.716H328.689V81.716ZM346.116 81.716C346.705 81.716 347.927 81.6184 348.905 80.6411C350.026 79.5195 349.998 78.12 349.843 77.3426L343.959 78.5194C343.908 78.2653 343.802 77.2584 344.662 76.3984C345.03 76.0301 345.421 75.8626 345.672 75.7888C345.913 75.7178 346.081 75.716 346.116 75.716V81.716ZM349.852 77.3894L340.746 27.7774L334.844 28.8606L343.95 78.4726L349.852 77.3894ZM340.641 27.3703C340.406 26.6643 339.526 24.848 337.324 24.848V30.848C336.581 30.848 335.924 30.5333 335.477 30.0871C335.105 29.7145 334.978 29.3535 334.949 29.2677L340.641 27.3703ZM337.324 24.848C335.122 24.848 334.242 26.6643 334.007 27.3703L339.699 29.2677C339.67 29.3535 339.543 29.7145 339.171 30.0871C338.724 30.5333 338.067 30.848 337.324 30.848V24.848ZM333.901 27.7864L324.952 77.3985L330.856 78.4635L339.805 28.8515L333.901 27.7864ZM387.102 111.529L384.702 113.329L384.959 113.672L385.302 113.929L387.102 111.529ZM387.102 2.72799L384.98 0.606674V0.606682L387.102 2.72799ZM404.215 2.72799L401.815 4.52799L402.072 4.87085L402.415 5.12799L404.215 2.72799ZM440.796 96.928L438.396 98.728L438.653 99.0709L438.996 99.328L440.796 96.928ZM440.796 111.529L438.674 109.408H438.674L440.796 111.529ZM388.515 109C388.558 109 388.631 109.007 388.717 109.036C388.804 109.065 388.867 109.103 388.902 109.129L385.302 113.929C386.239 114.632 387.342 115 388.515 115V109ZM389.502 109.729C389.527 109.764 389.565 109.826 389.594 109.913C389.623 110 389.631 110.073 389.631 110.116H383.631C383.631 111.288 383.998 112.391 384.702 113.329L389.502 109.729ZM389.631 110.116V3.984H383.631V110.116H389.631ZM389.631 3.984C389.631 4.02192 389.625 4.15131 389.557 4.33086C389.486 4.51965 389.371 4.70133 389.223 4.84931L384.98 0.606682C384.004 1.58289 383.631 2.81789 383.631 3.984H389.631ZM389.223 4.84931C389.21 4.86209 389.134 4.93305 388.987 4.99842C388.833 5.06691 388.666 5.09999 388.515 5.09999V-0.900009C387.088 -0.900009 385.881 -0.294056 384.98 0.606674L389.223 4.84931ZM388.515 5.09999H402.959V-0.900009H388.515V5.09999ZM402.959 5.09999C402.81 5.09999 402.578 5.06739 402.323 4.94027C402.069 4.81315 401.904 4.64679 401.815 4.52799L406.615 0.927994C405.734 -0.24609 404.426 -0.900009 402.959 -0.900009V5.09999ZM402.415 5.12799C402.296 5.03889 402.129 4.87337 402.002 4.61913C401.875 4.36489 401.843 4.1325 401.843 3.984H407.843C407.843 2.51639 407.189 1.20856 406.015 0.328003L402.415 5.12799ZM401.843 3.984V95.515H407.843V3.984H401.843ZM401.843 95.515C401.843 96.2391 402.026 97.3332 402.917 98.2251C403.809 99.1169 404.903 99.3 405.628 99.3V93.3C405.828 93.3 406.53 93.3522 407.16 93.9824C407.79 94.6126 407.843 95.3142 407.843 95.515H401.843ZM405.628 99.3H439.54V93.3H405.628V99.3ZM439.54 99.3C439.391 99.3 439.159 99.2674 438.904 99.1403C438.65 99.0132 438.485 98.8468 438.396 98.728L443.196 95.128C442.315 93.9539 441.007 93.3 439.54 93.3V99.3ZM438.996 99.328C438.877 99.2389 438.71 99.0734 438.583 98.8191C438.456 98.5649 438.424 98.3325 438.424 98.184H444.424C444.424 96.7164 443.77 95.4086 442.596 94.528L438.996 99.328ZM438.424 98.184V110.116H444.424V98.184H438.424ZM438.424 110.116C438.424 109.965 438.457 109.797 438.525 109.643C438.59 109.496 438.661 109.42 438.674 109.408L442.917 113.65C443.818 112.75 444.424 111.542 444.424 110.116H438.424ZM438.674 109.408C438.822 109.26 439.004 109.144 439.193 109.073C439.372 109.006 439.502 109 439.54 109V115C440.706 115 441.941 114.627 442.917 113.65L438.674 109.408ZM439.54 109H388.515V115H439.54V109Z" fill="white" fill-opacity="0.4" mask="url(#path-1-outside-1_1_11)"/>
</svg>
