<svg width="482" height="114" viewBox="0 0 482 114" fill="none" xmlns="http://www.w3.org/2000/svg">
<mask id="path-1-outside-1_1_10" maskUnits="userSpaceOnUse" x="-3" y="-3" width="488" height="120" fill="black">
<rect fill="white" x="-3" y="-3" width="488" height="120"/>
<path d="M29.383 113.256C20.6957 113.256 13.683 110.639 8.345 105.406C3.007 100.173 0.338 93.317 0.338 84.839V80.757C0.338 80.2337 0.495 79.815 0.809 79.501C1.22767 79.0823 1.69867 78.873 2.222 78.873H16.509C17.0323 78.873 17.451 79.0823 17.765 79.501C18.1837 79.815 18.393 80.2337 18.393 80.757V83.897C18.393 87.979 19.3873 91.276 21.376 93.788C23.4693 96.3 26.1383 97.556 29.383 97.556C32.6277 97.556 35.2967 96.4047 37.39 94.102C39.4833 91.6947 40.53 88.5547 40.53 84.682C40.53 81.9607 39.9543 79.6057 38.803 77.617C37.6517 75.6283 36.0293 73.7443 33.936 71.965C31.8427 70.1857 28.4933 67.6213 23.888 64.272C18.6547 60.504 14.4157 57.1547 11.171 54.224C8.031 51.2933 5.362 47.787 3.164 43.705C1.07067 39.5183 0.0240002 34.7037 0.0240002 29.261C0.0240002 20.5737 2.64067 13.6657 7.874 8.53699C13.1073 3.40833 20.0153 0.843999 28.598 0.843999C37.2853 0.843999 44.298 3.56533 49.636 9.008C54.974 14.346 57.643 21.4633 57.643 30.36V34.128C57.643 34.6513 57.4337 35.1223 57.015 35.541C56.701 35.855 56.2823 36.012 55.759 36.012H41.629C41.1057 36.012 40.6347 35.855 40.216 35.541C39.902 35.1223 39.745 34.6513 39.745 34.128V30.046C39.745 25.964 38.6983 22.7193 36.605 20.312C34.6163 17.8 31.9473 16.544 28.598 16.544C25.458 16.544 22.8937 17.6953 20.905 19.998C18.9163 22.196 17.922 25.2837 17.922 29.261C17.922 33.029 18.9687 36.2213 21.062 38.838C23.26 41.4547 27.499 45.0657 33.779 49.671C40.1637 54.381 44.9783 58.2537 48.223 61.289C51.4677 64.2197 53.9797 67.4643 55.759 71.023C57.5383 74.5817 58.428 78.8207 58.428 83.74C58.428 92.6367 55.759 99.8063 50.421 105.249C45.083 110.587 38.0703 113.256 29.383 113.256ZM78.1462 112C77.6229 112 77.1519 111.843 76.7332 111.529C76.4192 111.11 76.2622 110.639 76.2622 110.116V3.984C76.2622 3.46066 76.4192 3.042 76.7332 2.72799C77.1519 2.30933 77.6229 2.09999 78.1462 2.09999H92.5902C93.1136 2.09999 93.5322 2.30933 93.8462 2.72799C94.2649 3.042 94.4742 3.46066 94.4742 3.984V110.116C94.4742 110.639 94.2649 111.11 93.8462 111.529C93.5322 111.843 93.1136 112 92.5902 112H78.1462ZM160.671 112C159.415 112 158.734 111.424 158.63 110.273L155.647 93.788C155.647 93.2647 155.333 93.003 154.705 93.003H131.783C131.155 93.003 130.841 93.2647 130.841 93.788L127.858 110.273C127.753 111.424 127.073 112 125.817 112H111.53C110.064 112 109.489 111.32 109.803 109.959L133.039 3.827C133.248 2.67566 133.928 2.09999 135.08 2.09999H151.722C152.873 2.09999 153.553 2.67566 153.763 3.827L176.999 109.959V110.587C176.999 111.529 176.423 112 175.272 112H160.671ZM133.667 77.931C133.562 78.4543 133.824 78.716 134.452 78.716H151.879C152.507 78.716 152.768 78.4543 152.664 77.931L143.558 28.319C143.453 28.005 143.296 27.848 143.087 27.848C142.877 27.848 142.72 28.005 142.616 28.319L133.667 77.931ZM241.691 3.356C242.214 2.51866 242.999 2.09999 244.046 2.09999H258.49C259.013 2.09999 259.432 2.30933 259.746 2.72799C260.165 3.042 260.374 3.46066 260.374 3.984V110.116C260.374 110.639 260.165 111.11 259.746 111.529C259.432 111.843 259.013 112 258.49 112H244.046C243.523 112 243.052 111.843 242.633 111.529C242.319 111.11 242.162 110.639 242.162 110.116V36.012C242.162 35.5933 242.057 35.384 241.848 35.384C241.639 35.384 241.429 35.541 241.22 35.855L227.561 60.661C227.038 61.4983 226.567 61.917 226.148 61.917C225.729 61.917 225.258 61.4983 224.735 60.661L211.076 35.855C210.867 35.541 210.657 35.384 210.448 35.384C210.239 35.384 210.134 35.5933 210.134 36.012V110.116C210.134 110.639 209.925 111.11 209.506 111.529C209.192 111.843 208.773 112 208.25 112H193.806C193.283 112 192.812 111.843 192.393 111.529C192.079 111.11 191.922 110.639 191.922 110.116V3.984C191.922 3.46066 192.079 3.042 192.393 2.72799C192.812 2.30933 193.283 2.09999 193.806 2.09999H208.25C209.297 2.09999 210.082 2.51866 210.605 3.356L225.834 30.203C226.148 30.6217 226.462 30.6217 226.776 30.203L241.691 3.356ZM336.376 15.916C336.376 16.4393 336.166 16.9103 335.748 17.329C335.434 17.643 335.015 17.8 334.492 17.8H300.58C300.056 17.8 299.795 18.0617 299.795 18.585V48.258C299.795 48.7813 300.056 49.043 300.58 49.043H320.676C321.199 49.043 321.618 49.2523 321.932 49.671C322.35 49.985 322.56 50.4037 322.56 50.927V63.016C322.56 63.5393 322.35 64.0103 321.932 64.429C321.618 64.743 321.199 64.9 320.676 64.9H300.58C300.056 64.9 299.795 65.1617 299.795 65.685V95.515C299.795 96.0383 300.056 96.3 300.58 96.3H334.492C335.015 96.3 335.434 96.5093 335.748 96.928C336.166 97.242 336.376 97.6607 336.376 98.184V110.116C336.376 110.639 336.166 111.11 335.748 111.529C335.434 111.843 335.015 112 334.492 112H283.467C282.943 112 282.472 111.843 282.054 111.529C281.74 111.11 281.583 110.639 281.583 110.116V3.984C281.583 3.46066 281.74 3.042 282.054 2.72799C282.472 2.30933 282.943 2.09999 283.467 2.09999H334.492C335.015 2.09999 335.434 2.30933 335.748 2.72799C336.166 3.042 336.376 3.46066 336.376 3.984V15.916ZM380.425 113.256C371.738 113.256 364.725 110.639 359.387 105.406C354.049 100.173 351.38 93.317 351.38 84.839V80.757C351.38 80.2337 351.537 79.815 351.851 79.501C352.27 79.0823 352.741 78.873 353.264 78.873H367.551C368.075 78.873 368.493 79.0823 368.807 79.501C369.226 79.815 369.435 80.2337 369.435 80.757V83.897C369.435 87.979 370.43 91.276 372.418 93.788C374.512 96.3 377.181 97.556 380.425 97.556C383.67 97.556 386.339 96.4047 388.432 94.102C390.526 91.6947 391.572 88.5547 391.572 84.682C391.572 81.9607 390.997 79.6057 389.845 77.617C388.694 75.6283 387.072 73.7443 384.978 71.965C382.885 70.1857 379.536 67.6213 374.93 64.272C369.697 60.504 365.458 57.1547 362.213 54.224C359.073 51.2933 356.404 47.787 354.206 43.705C352.113 39.5183 351.066 34.7037 351.066 29.261C351.066 20.5737 353.683 13.6657 358.916 8.53699C364.15 3.40833 371.058 0.843999 379.64 0.843999C388.328 0.843999 395.34 3.56533 400.678 9.008C406.016 14.346 408.685 21.4633 408.685 30.36V34.128C408.685 34.6513 408.476 35.1223 408.057 35.541C407.743 35.855 407.325 36.012 406.801 36.012H392.671C392.148 36.012 391.677 35.855 391.258 35.541C390.944 35.1223 390.787 34.6513 390.787 34.128V30.046C390.787 25.964 389.741 22.7193 387.647 20.312C385.659 17.8 382.99 16.544 379.64 16.544C376.5 16.544 373.936 17.6953 371.947 19.998C369.959 22.196 368.964 25.2837 368.964 29.261C368.964 33.029 370.011 36.2213 372.104 38.838C374.302 41.4547 378.541 45.0657 384.821 49.671C391.206 54.381 396.021 58.2537 399.265 61.289C402.51 64.2197 405.022 67.4643 406.801 71.023C408.581 74.5817 409.47 78.8207 409.47 83.74C409.47 92.6367 406.801 99.8063 401.463 105.249C396.125 110.587 389.113 113.256 380.425 113.256ZM481.484 15.916C481.484 16.4393 481.275 16.9103 480.856 17.329C480.542 17.643 480.123 17.8 479.6 17.8H445.688C445.165 17.8 444.903 18.0617 444.903 18.585V48.258C444.903 48.7813 445.165 49.043 445.688 49.043H465.784C466.307 49.043 466.726 49.2523 467.04 49.671C467.459 49.985 467.668 50.4037 467.668 50.927V63.016C467.668 63.5393 467.459 64.0103 467.04 64.429C466.726 64.743 466.307 64.9 465.784 64.9H445.688C445.165 64.9 444.903 65.1617 444.903 65.685V95.515C444.903 96.0383 445.165 96.3 445.688 96.3H479.6C480.123 96.3 480.542 96.5093 480.856 96.928C481.275 97.242 481.484 97.6607 481.484 98.184V110.116C481.484 110.639 481.275 111.11 480.856 111.529C480.542 111.843 480.123 112 479.6 112H428.575C428.052 112 427.581 111.843 427.162 111.529C426.848 111.11 426.691 110.639 426.691 110.116V3.984C426.691 3.46066 426.848 3.042 427.162 2.72799C427.581 2.30933 428.052 2.09999 428.575 2.09999H479.6C480.123 2.09999 480.542 2.30933 480.856 2.72799C481.275 3.042 481.484 3.46066 481.484 3.984V15.916Z"/>
</mask>
<path d="M8.345 105.406L6.24479 107.548L8.345 105.406ZM0.809 79.501L-1.31232 77.3797H-1.31232L0.809 79.501ZM17.765 79.501L15.365 81.301L15.6221 81.6439L15.965 81.901L17.765 79.501ZM21.376 93.788L19.0239 95.6501L19.0472 95.6796L19.0713 95.7086L21.376 93.788ZM37.39 94.102L39.6098 96.12L39.6321 96.0955L39.6538 96.0705L37.39 94.102ZM38.803 77.617L41.3993 76.1139L38.803 77.617ZM33.936 71.965L35.8789 69.6792L33.936 71.965ZM23.888 64.272L25.6525 61.8458L25.6467 61.8416L25.6409 61.8374L23.888 64.272ZM11.171 54.224L9.12405 56.4172L9.14196 56.4339L9.16014 56.4503L11.171 54.224ZM3.164 43.705L0.480719 45.0466L0.501042 45.0873L0.522587 45.1273L3.164 43.705ZM7.874 8.53699L5.77422 6.39436H5.77421L7.874 8.53699ZM49.636 9.008L47.4942 11.1086L47.5044 11.119L47.5147 11.1293L49.636 9.008ZM40.216 35.541L37.816 37.341L38.0731 37.6839L38.416 37.941L40.216 35.541ZM36.605 20.312L34.2529 22.1741L34.2958 22.2283L34.3412 22.2805L36.605 20.312ZM20.905 19.998L23.1296 22.0107L23.1528 21.9851L23.1755 21.9589L20.905 19.998ZM21.062 38.838L18.7194 40.7121L18.7418 40.7401L18.7649 40.7676L21.062 38.838ZM33.779 49.671L35.56 47.2568L35.5531 47.2518L33.779 49.671ZM48.223 61.289L46.1735 63.4798L46.1927 63.4977L46.2121 63.5153L48.223 61.289ZM55.759 71.023L58.4423 69.6814H58.4423L55.759 71.023ZM50.421 105.249L52.5423 107.37L52.5526 107.36L52.5628 107.35L50.421 105.249ZM29.383 110.256C21.3438 110.256 15.1315 107.858 10.4452 103.264L6.24479 107.548C12.2345 113.42 20.0475 116.256 29.383 116.256V110.256ZM10.4452 103.264C5.7619 98.6723 3.338 92.6291 3.338 84.839H-2.662C-2.662 94.0049 0.252103 101.673 6.24479 107.548L10.4452 103.264ZM3.338 84.839V80.757H-2.662V84.839H3.338ZM3.338 80.757C3.338 80.7949 3.33207 80.9243 3.26474 81.1039C3.19394 81.2926 3.0783 81.4743 2.93032 81.6223L-1.31232 77.3797C-2.28853 78.3559 -2.662 79.5909 -2.662 80.757H3.338ZM2.93032 81.6223C2.91754 81.6351 2.84176 81.7061 2.69466 81.7714C2.54057 81.8399 2.37346 81.873 2.222 81.873V75.873C0.795923 75.873 -0.411585 76.4789 -1.31232 77.3797L2.93032 81.6223ZM2.222 81.873H16.509V75.873H2.222V81.873ZM16.509 81.873C16.3605 81.873 16.1281 81.8404 15.8739 81.7133C15.6196 81.5862 15.4541 81.4198 15.365 81.301L20.165 77.701C19.2844 76.5269 17.9766 75.873 16.509 75.873V81.873ZM15.965 81.901C15.8462 81.8119 15.6798 81.6464 15.5527 81.3921C15.4256 81.1379 15.393 80.9055 15.393 80.757H21.393C21.393 79.2894 20.7391 77.9816 19.565 77.101L15.965 81.901ZM15.393 80.757V83.897H21.393V80.757H15.393ZM15.393 83.897C15.393 88.4668 16.5121 92.4774 19.0239 95.6501L23.7281 91.9259C22.2625 90.0746 21.393 87.4911 21.393 83.897H15.393ZM19.0713 95.7086C21.7295 98.8984 25.24 100.556 29.383 100.556V94.556C27.0367 94.556 25.2092 93.7016 23.6807 91.8674L19.0713 95.7086ZM29.383 100.556C33.4321 100.556 36.921 99.0777 39.6098 96.12L35.1702 92.084C33.6723 93.7316 31.8232 94.556 29.383 94.556V100.556ZM39.6538 96.0705C42.3182 93.0065 43.53 89.1165 43.53 84.682H37.53C37.53 87.9929 36.6485 90.3828 35.1262 92.1335L39.6538 96.0705ZM43.53 84.682C43.53 81.5306 42.8601 78.6371 41.3993 76.1139L36.2067 79.1201C37.0486 80.5742 37.53 82.3907 37.53 84.682H43.53ZM41.3993 76.1139C40.0466 73.7774 38.1835 71.6381 35.8789 69.6792L31.9931 74.2508C33.8752 75.8506 35.2568 77.4793 36.2067 79.1201L41.3993 76.1139ZM35.8789 69.6792C33.6947 67.8225 30.2688 65.2031 25.6525 61.8458L22.1235 66.6982C26.7179 70.0396 29.9907 72.5488 31.9931 74.2508L35.8789 69.6792ZM25.6409 61.8374C20.4595 58.1068 16.3159 54.8284 13.1819 51.9977L9.16014 56.4503C12.5154 59.4809 16.8498 62.9012 22.1351 66.7066L25.6409 61.8374ZM13.218 52.0308C10.335 49.3401 7.86084 46.0999 5.80541 42.2827L0.522587 45.1273C2.86316 49.4741 5.727 53.2466 9.12405 56.4172L13.218 52.0308ZM5.84728 42.3634C3.99365 38.6561 3.024 34.3137 3.024 29.261H-2.976C-2.976 35.0937 -1.85232 40.3806 0.480719 45.0466L5.84728 42.3634ZM3.024 29.261C3.024 21.2186 5.42201 15.1404 9.97379 10.6796L5.77421 6.39436C-0.14068 12.191 -2.976 19.9288 -2.976 29.261H3.024ZM9.97379 10.6796C14.5509 6.19405 20.6559 3.844 28.598 3.844V-2.156C19.3748 -2.156 11.6638 0.622612 5.77422 6.39436L9.97379 10.6796ZM28.598 3.844C36.6022 3.844 42.8008 6.32325 47.4942 11.1086L51.7778 6.90737C45.7952 0.807415 37.9684 -2.156 28.598 -2.156V3.844ZM47.5147 11.1293C52.1905 15.8051 54.643 22.1061 54.643 30.36H60.643C60.643 20.8206 57.7575 12.8869 51.7573 6.88668L47.5147 11.1293ZM54.643 30.36V34.128H60.643V30.36H54.643ZM54.643 34.128C54.643 33.9765 54.6761 33.8094 54.7446 33.6553C54.8099 33.5082 54.8809 33.4325 54.8937 33.4197L59.1363 37.6623C60.0371 36.7616 60.643 35.5541 60.643 34.128H54.643ZM54.8937 33.4197C55.0417 33.2717 55.2234 33.1561 55.4121 33.0853C55.5917 33.0179 55.7211 33.012 55.759 33.012V39.012C56.9251 39.012 58.1601 38.6385 59.1363 37.6623L54.8937 33.4197ZM55.759 33.012H41.629V39.012H55.759V33.012ZM41.629 33.012C41.6722 33.012 41.7453 33.0193 41.8319 33.0482C41.9185 33.0771 41.9814 33.1151 42.016 33.141L38.416 37.941C39.354 38.6445 40.4566 39.012 41.629 39.012V33.012ZM42.616 33.741C42.6419 33.7756 42.6799 33.8385 42.7088 33.9251C42.7377 34.0117 42.745 34.0848 42.745 34.128H36.745C36.745 35.3004 37.1125 36.403 37.816 37.341L42.616 33.741ZM42.745 34.128V30.046H36.745V34.128H42.745ZM42.745 30.046C42.745 25.4482 41.5574 21.4353 38.8688 18.3435L34.3412 22.2805C35.8393 24.0033 36.745 26.4798 36.745 30.046H42.745ZM38.9571 18.4499C36.3702 15.1821 32.8158 13.544 28.598 13.544V19.544C31.0788 19.544 32.8625 20.4178 34.2529 22.1741L38.9571 18.4499ZM28.598 13.544C24.6181 13.544 21.2136 15.0508 18.6345 18.0371L23.1755 21.9589C24.5737 20.3399 26.2979 19.544 28.598 19.544V13.544ZM18.6804 17.9853C16.043 20.9003 14.922 24.798 14.922 29.261H20.922C20.922 25.7693 21.7897 23.4917 23.1296 22.0107L18.6804 17.9853ZM14.922 29.261C14.922 33.6206 16.1477 37.4975 18.7194 40.7121L23.4046 36.9639C21.7896 34.9452 20.922 32.4374 20.922 29.261H14.922ZM18.7649 40.7676C21.2148 43.6841 25.7135 47.4765 32.0049 52.0902L35.5531 47.2518C29.2845 42.6548 25.3052 39.2252 23.3591 36.9084L18.7649 40.7676ZM31.9981 52.0852C38.3495 56.7706 43.0553 60.5627 46.1735 63.4798L50.2725 59.0982C46.9014 55.9446 41.9779 51.9914 35.5599 47.2568L31.9981 52.0852ZM46.2121 63.5153C49.207 66.2203 51.4793 69.1717 53.0757 72.3646L58.4423 69.6814C56.4801 65.7569 53.7283 62.219 50.2339 59.0627L46.2121 63.5153ZM53.0757 72.3646C54.6033 75.4199 55.428 79.1785 55.428 83.74H61.428C61.428 78.4629 60.4733 73.7435 58.4423 69.6814L53.0757 72.3646ZM55.428 83.74C55.428 91.9923 52.9756 98.3599 48.2792 103.148L52.5628 107.35C58.5424 101.253 61.428 93.281 61.428 83.74H55.428ZM48.2997 103.128C43.61 107.817 37.4048 110.256 29.383 110.256V116.256C38.7359 116.256 46.556 113.357 52.5423 107.37L48.2997 103.128ZM76.7332 111.529L74.3332 113.329L74.5904 113.672L74.9332 113.929L76.7332 111.529ZM76.7332 2.72799L74.6119 0.606674V0.606682L76.7332 2.72799ZM93.8462 2.72799L91.4462 4.52799L91.7034 4.87085L92.0462 5.12799L93.8462 2.72799ZM93.8462 111.529L95.9675 113.65L95.9675 113.65L93.8462 111.529ZM78.1462 109C78.1895 109 78.2625 109.007 78.3492 109.036C78.4358 109.065 78.4986 109.103 78.5332 109.129L74.9332 113.929C75.8712 114.632 76.9738 115 78.1462 115V109ZM79.1332 109.729C79.1592 109.764 79.1971 109.826 79.226 109.913C79.2549 110 79.2622 110.073 79.2622 110.116H73.2622C73.2622 111.288 73.6298 112.391 74.3332 113.329L79.1332 109.729ZM79.2622 110.116V3.984H73.2622V110.116H79.2622ZM79.2622 3.984C79.2622 4.02192 79.2563 4.15131 79.189 4.33086C79.1182 4.51965 79.0025 4.70133 78.8545 4.84931L74.6119 0.606682C73.6357 1.58289 73.2622 2.81789 73.2622 3.984H79.2622ZM78.8545 4.84931C78.8418 4.86209 78.766 4.93305 78.6189 4.99842C78.4648 5.06691 78.2977 5.09999 78.1462 5.09999V-0.900009C76.7201 -0.900009 75.5126 -0.294056 74.6119 0.606674L78.8545 4.84931ZM78.1462 5.09999H92.5902V-0.900009H78.1462V5.09999ZM92.5902 5.09999C92.4417 5.09999 92.2093 5.06739 91.9551 4.94027C91.7008 4.81315 91.5353 4.64679 91.4462 4.52799L96.2462 0.927994C95.3657 -0.24609 94.0578 -0.900009 92.5902 -0.900009V5.09999ZM92.0462 5.12799C91.9274 5.03889 91.7611 4.87337 91.6339 4.61913C91.5068 4.36489 91.4742 4.1325 91.4742 3.984H97.4742C97.4742 2.51639 96.8203 1.20856 95.6462 0.328003L92.0462 5.12799ZM91.4742 3.984V110.116H97.4742V3.984H91.4742ZM91.4742 110.116C91.4742 109.965 91.5073 109.797 91.5758 109.643C91.6412 109.496 91.7121 109.42 91.7249 109.408L95.9675 113.65C96.8683 112.75 97.4742 111.542 97.4742 110.116H91.4742ZM91.7249 109.408C91.8729 109.26 92.0546 109.144 92.2433 109.073C92.4229 109.006 92.5523 109 92.5902 109V115C93.7563 115 94.9913 114.627 95.9675 113.65L91.7249 109.408ZM92.5902 109H78.1462V115H92.5902V109ZM158.63 110.273L161.617 110.001L161.605 109.869L161.582 109.739L158.63 110.273ZM155.647 93.788H152.647V94.0572L152.695 94.3222L155.647 93.788ZM130.841 93.788L133.793 94.3222L133.841 94.0572V93.788H130.841ZM127.858 110.273L124.906 109.739L124.882 109.869L124.87 110.001L127.858 110.273ZM109.803 109.959L112.726 110.634L112.73 110.617L112.733 110.601L109.803 109.959ZM133.039 3.827L135.969 4.46861L135.981 4.41632L135.99 4.36366L133.039 3.827ZM153.763 3.827L150.811 4.36365L150.821 4.41631L150.832 4.46861L153.763 3.827ZM176.999 109.959H179.999V109.634L179.929 109.317L176.999 109.959ZM133.667 77.931L136.608 78.5193L136.614 78.4915L136.619 78.4635L133.667 77.931ZM152.664 77.931L149.713 78.4726L149.717 78.496L149.722 78.5194L152.664 77.931ZM143.558 28.319L146.508 27.7774L146.47 27.5702L146.404 27.3703L143.558 28.319ZM142.616 28.319L139.77 27.3703L139.701 27.5746L139.663 27.7864L142.616 28.319ZM160.671 109C160.465 109 160.77 108.951 161.156 109.278C161.581 109.637 161.62 110.035 161.617 110.001L155.642 110.545C155.743 111.662 156.175 112.923 157.281 113.858C158.347 114.761 159.62 115 160.671 115V109ZM161.582 109.739L158.599 93.2538L152.695 94.3222L155.678 110.807L161.582 109.739ZM158.647 93.788C158.647 92.9055 158.356 91.748 157.332 90.8946C156.412 90.1285 155.361 90.003 154.705 90.003V96.003C154.676 96.003 154.096 96.0083 153.491 95.5039C152.78 94.9122 152.647 94.1471 152.647 93.788H158.647ZM154.705 90.003H131.783V96.003H154.705V90.003ZM131.783 90.003C131.126 90.003 130.075 90.1285 129.156 90.8946C128.131 91.748 127.841 92.9055 127.841 93.788H133.841C133.841 94.1471 133.707 94.9122 132.997 95.5039C132.391 96.0083 131.811 96.003 131.783 96.003V90.003ZM127.889 93.2538L124.906 109.739L130.81 110.807L133.793 94.3222L127.889 93.2538ZM124.87 110.001C124.867 110.035 124.906 109.637 125.331 109.278C125.717 108.951 126.022 109 125.817 109V115C126.867 115 128.14 114.761 129.207 113.858C130.312 112.923 130.744 111.662 130.845 110.545L124.87 110.001ZM125.817 109H111.53V115H125.817V109ZM111.53 109C111.124 109 111.726 108.886 112.289 109.552C112.895 110.268 112.659 110.924 112.726 110.634L106.879 109.284C106.632 110.354 106.527 112.031 107.709 113.428C108.847 114.773 110.47 115 111.53 115V109ZM112.733 110.601L135.969 4.46861L130.108 3.18539L106.872 109.317L112.733 110.601ZM135.99 4.36366C136.01 4.25593 135.981 4.53636 135.644 4.8219C135.3 5.11247 135.002 5.09999 135.08 5.09999V-0.900009C134.005 -0.900009 132.792 -0.624653 131.768 0.241589C130.75 1.1028 130.277 2.24673 130.087 3.29034L135.99 4.36366ZM135.08 5.09999H151.722V-0.900009H135.08V5.09999ZM151.722 5.09999C151.799 5.09999 151.501 5.11247 151.157 4.8219C150.82 4.53635 150.791 4.25592 150.811 4.36365L156.714 3.29035C156.524 2.24674 156.051 1.10281 155.033 0.241589C154.009 -0.624653 152.796 -0.900009 151.722 -0.900009V5.09999ZM150.832 4.46861L174.068 110.601L179.929 109.317L156.693 3.18539L150.832 4.46861ZM173.999 109.959V110.587H179.999V109.959H173.999ZM173.999 110.587C173.999 110.523 174.008 110.33 174.112 110.073C174.224 109.799 174.413 109.533 174.667 109.325C175.14 108.938 175.515 109 175.272 109V115C176.18 115 177.418 114.826 178.467 113.969C179.63 113.017 179.999 111.697 179.999 110.587H173.999ZM175.272 109H160.671V115H175.272V109ZM130.725 77.3427C130.569 78.12 130.541 79.5195 131.663 80.6411C132.64 81.6184 133.862 81.716 134.452 81.716V75.716C134.487 75.716 134.654 75.7178 134.896 75.7888C135.146 75.8626 135.537 76.0301 135.906 76.3984C136.766 77.2583 136.659 78.2653 136.608 78.5193L130.725 77.3427ZM134.452 81.716H151.879V75.716H134.452V81.716ZM151.879 81.716C152.468 81.716 153.69 81.6184 154.667 80.6411C155.789 79.5195 155.761 78.12 155.605 77.3426L149.722 78.5194C149.671 78.2653 149.565 77.2584 150.424 76.3984C150.793 76.0301 151.184 75.8626 151.434 75.7888C151.676 75.7178 151.843 75.716 151.879 75.716V81.716ZM155.614 77.3894L146.508 27.7774L140.607 28.8606L149.713 78.4726L155.614 77.3894ZM146.404 27.3703C146.168 26.6643 145.289 24.848 143.087 24.848V30.848C142.344 30.848 141.686 30.5333 141.24 30.0871C140.867 29.7145 140.74 29.3535 140.712 29.2677L146.404 27.3703ZM143.087 24.848C140.884 24.848 140.005 26.6643 139.77 27.3703L145.462 29.2677C145.433 29.3535 145.306 29.7145 144.933 30.0871C144.487 30.5333 143.83 30.848 143.087 30.848V24.848ZM139.663 27.7864L130.714 77.3985L136.619 78.4635L145.568 28.8515L139.663 27.7864ZM241.691 3.356L239.147 1.766L239.106 1.83152L239.069 1.89907L241.691 3.356ZM259.746 2.72799L257.346 4.52799L257.603 4.87085L257.946 5.12799L259.746 2.72799ZM259.746 111.529L257.625 109.408L259.746 111.529ZM242.633 111.529L240.233 113.329L240.49 113.672L240.833 113.929L242.633 111.529ZM241.22 35.855L238.724 34.1909L238.654 34.2966L238.592 34.408L241.22 35.855ZM227.561 60.661L230.105 62.251L230.149 62.1807L230.189 62.108L227.561 60.661ZM224.735 60.661L222.107 62.108L222.147 62.1807L222.191 62.251L224.735 60.661ZM211.076 35.855L213.704 34.408L213.643 34.2966L213.572 34.1909L211.076 35.855ZM209.506 111.529L207.385 109.408L209.506 111.529ZM192.393 111.529L189.993 113.329L190.25 113.672L190.593 113.929L192.393 111.529ZM192.393 2.72799L190.272 0.606674V0.606682L192.393 2.72799ZM210.605 3.356L213.215 1.8758L213.183 1.82021L213.149 1.766L210.605 3.356ZM225.834 30.203L223.225 31.6832L223.319 31.8498L223.434 32.003L225.834 30.203ZM226.776 30.203L229.176 32.003L229.299 31.8391L229.399 31.6599L226.776 30.203ZM244.235 4.94599C244.246 4.9281 244.24 4.9418 244.21 4.97065C244.179 5.00071 244.136 5.03358 244.084 5.06105C244.033 5.08819 243.994 5.09952 243.979 5.10307C243.965 5.10617 243.984 5.09999 244.046 5.09999V-0.900009C242.04 -0.900009 240.257 -0.0101624 239.147 1.766L244.235 4.94599ZM244.046 5.09999H258.49V-0.900009H244.046V5.09999ZM258.49 5.09999C258.342 5.09999 258.109 5.06739 257.855 4.94027C257.601 4.81315 257.435 4.64679 257.346 4.52799L262.146 0.928001C261.266 -0.246086 259.958 -0.900009 258.49 -0.900009V5.09999ZM257.946 5.12799C257.827 5.03889 257.661 4.87337 257.534 4.61914C257.407 4.36489 257.374 4.1325 257.374 3.984H263.374C263.374 2.51639 262.72 1.20856 261.546 0.327999L257.946 5.12799ZM257.374 3.984V110.116H263.374V3.984H257.374ZM257.374 110.116C257.374 109.965 257.407 109.797 257.476 109.643C257.541 109.496 257.612 109.42 257.625 109.408L261.867 113.65C262.768 112.75 263.374 111.542 263.374 110.116H257.374ZM257.625 109.408C257.773 109.26 257.954 109.144 258.143 109.073C258.323 109.006 258.452 109 258.49 109V115C259.656 115 260.891 114.627 261.867 113.65L257.625 109.408ZM258.49 109H244.046V115H258.49V109ZM244.046 109C244.089 109 244.162 109.007 244.249 109.036C244.336 109.065 244.399 109.103 244.433 109.129L240.833 113.929C241.771 114.632 242.874 115 244.046 115V109ZM245.033 109.729C245.059 109.764 245.097 109.826 245.126 109.913C245.155 110 245.162 110.073 245.162 110.116H239.162C239.162 111.288 239.53 112.391 240.233 113.329L245.033 109.729ZM245.162 110.116V36.012H239.162V110.116H245.162ZM245.162 36.012C245.162 35.6494 245.133 34.9309 244.767 34.1994C244.563 33.7911 244.216 33.3047 243.65 32.9271C243.064 32.5369 242.425 32.384 241.848 32.384V38.384C241.376 38.384 240.828 38.2572 240.321 37.9194C239.833 37.5941 239.552 37.1862 239.4 36.8826C239.254 36.5908 239.203 36.3484 239.183 36.2304C239.162 36.1044 239.162 36.0243 239.162 36.012H245.162ZM241.848 32.384C240.046 32.384 239.054 33.6957 238.724 34.1909L243.716 37.5191C243.708 37.5309 243.593 37.7075 243.334 37.9017C243.051 38.1139 242.54 38.384 241.848 38.384V32.384ZM238.592 34.408L224.933 59.214L230.189 62.108L243.848 37.302L238.592 34.408ZM225.017 59.071C224.832 59.3679 224.759 59.4173 224.822 59.3608C224.867 59.3212 225.329 58.917 226.148 58.917V64.917C227.386 64.917 228.293 64.3035 228.809 63.8452C229.343 63.3701 229.767 62.7915 230.105 62.251L225.017 59.071ZM226.148 58.917C226.968 58.917 227.429 59.3212 227.474 59.3608C227.538 59.4173 227.465 59.3679 227.279 59.071L222.191 62.251C222.529 62.7915 222.953 63.3701 223.488 63.8452C224.003 64.3035 224.91 64.917 226.148 64.917V58.917ZM227.363 59.214L213.704 34.408L208.448 37.302L222.107 62.108L227.363 59.214ZM213.572 34.1909C213.242 33.6957 212.25 32.384 210.448 32.384V38.384C209.756 38.384 209.245 38.1139 208.962 37.9017C208.703 37.7075 208.588 37.5309 208.58 37.5191L213.572 34.1909ZM210.448 32.384C209.871 32.384 209.232 32.5369 208.647 32.9271C208.08 33.3047 207.733 33.7911 207.529 34.1994C207.164 34.9309 207.134 35.6494 207.134 36.012H213.134C213.134 36.0243 213.134 36.1044 213.113 36.2304C213.093 36.3484 213.042 36.5908 212.896 36.8826C212.744 37.1862 212.463 37.5941 211.975 37.9194C211.468 38.2572 210.921 38.384 210.448 38.384V32.384ZM207.134 36.012V110.116H213.134V36.012H207.134ZM207.134 110.116C207.134 109.965 207.167 109.797 207.236 109.643C207.301 109.496 207.372 109.42 207.385 109.408L211.627 113.65C212.528 112.75 213.134 111.542 213.134 110.116H207.134ZM207.385 109.408C207.533 109.26 207.715 109.144 207.903 109.073C208.083 109.006 208.212 109 208.25 109V115C209.416 115 210.651 114.627 211.627 113.65L207.385 109.408ZM208.25 109H193.806V115H208.25V109ZM193.806 109C193.849 109 193.922 109.007 194.009 109.036C194.096 109.065 194.159 109.103 194.193 109.129L190.593 113.929C191.531 114.632 192.634 115 193.806 115V109ZM194.793 109.729C194.819 109.764 194.857 109.826 194.886 109.913C194.915 110 194.922 110.073 194.922 110.116H188.922C188.922 111.288 189.29 112.391 189.993 113.329L194.793 109.729ZM194.922 110.116V3.984H188.922V110.116H194.922ZM194.922 3.984C194.922 4.02192 194.916 4.15131 194.849 4.33086C194.778 4.51965 194.662 4.70133 194.514 4.84931L190.272 0.606682C189.296 1.58289 188.922 2.81789 188.922 3.984H194.922ZM194.514 4.84931C194.502 4.86209 194.426 4.93305 194.279 4.99843C194.125 5.06691 193.958 5.09999 193.806 5.09999V-0.900009C192.38 -0.900009 191.173 -0.294056 190.272 0.606674L194.514 4.84931ZM193.806 5.09999H208.25V-0.900009H193.806V5.09999ZM208.25 5.09999C208.312 5.09999 208.331 5.10617 208.318 5.10307C208.302 5.09952 208.263 5.08819 208.212 5.06105C208.161 5.03358 208.117 5.00071 208.086 4.97065C208.056 4.9418 208.05 4.9281 208.061 4.94599L213.149 1.766C212.039 -0.0101624 210.256 -0.900009 208.25 -0.900009V5.09999ZM207.996 4.83619L223.225 31.6832L228.444 28.7228L213.215 1.8758L207.996 4.83619ZM223.434 32.003C223.783 32.4687 224.718 33.517 226.305 33.517C227.892 33.517 228.827 32.4687 229.176 32.003L224.376 28.403C224.411 28.3559 225.032 27.517 226.305 27.517C227.578 27.517 228.199 28.3559 228.234 28.403L223.434 32.003ZM229.399 31.6599L244.314 4.81292L239.069 1.89907L224.154 28.7461L229.399 31.6599ZM335.748 17.329L333.626 15.2077V15.2077L335.748 17.329ZM321.932 49.671L319.532 51.471L319.789 51.8139L320.132 52.071L321.932 49.671ZM335.748 96.928L333.348 98.728L333.605 99.0709L333.948 99.328L335.748 96.928ZM335.748 111.529L333.626 109.408H333.626L335.748 111.529ZM282.054 111.529L279.654 113.329L279.911 113.672L280.254 113.929L282.054 111.529ZM282.054 2.72799L279.932 0.606674V0.606682L282.054 2.72799ZM335.748 2.72799L333.348 4.52799L333.605 4.87085L333.948 5.12799L335.748 2.72799ZM333.376 15.916C333.376 15.7645 333.409 15.5974 333.477 15.4433C333.543 15.2962 333.614 15.2205 333.626 15.2077L337.869 19.4503C338.77 18.5496 339.376 17.3421 339.376 15.916H333.376ZM333.626 15.2077C333.774 15.0597 333.956 14.9441 334.145 14.8733C334.324 14.8059 334.454 14.8 334.492 14.8V20.8C335.658 20.8 336.893 20.4265 337.869 19.4503L333.626 15.2077ZM334.492 14.8H300.58V20.8H334.492V14.8ZM300.58 14.8C299.856 14.8 298.761 14.9831 297.87 15.8749C296.978 16.7668 296.795 17.8609 296.795 18.585H302.795C302.795 18.7858 302.742 19.4874 302.112 20.1176C301.482 20.7478 300.78 20.8 300.58 20.8V14.8ZM296.795 18.585V48.258H302.795V18.585H296.795ZM296.795 48.258C296.795 48.9821 296.978 50.0762 297.87 50.9681C298.761 51.8599 299.856 52.043 300.58 52.043V46.043C300.78 46.043 301.482 46.0952 302.112 46.7254C302.742 47.3556 302.795 48.0572 302.795 48.258H296.795ZM300.58 52.043H320.676V46.043H300.58V52.043ZM320.676 52.043C320.527 52.043 320.295 52.0104 320.04 51.8833C319.786 51.7562 319.621 51.5898 319.532 51.471L324.332 47.871C323.451 46.6969 322.143 46.043 320.676 46.043V52.043ZM320.132 52.071C320.013 51.9819 319.846 51.8164 319.719 51.5621C319.592 51.3079 319.56 51.0755 319.56 50.927H325.56C325.56 49.4594 324.906 48.1516 323.732 47.271L320.132 52.071ZM319.56 50.927V63.016H325.56V50.927H319.56ZM319.56 63.016C319.56 62.8645 319.593 62.6974 319.661 62.5433C319.727 62.3962 319.798 62.3205 319.81 62.3077L324.053 66.5503C324.954 65.6496 325.56 64.4421 325.56 63.016H319.56ZM319.81 62.3077C319.958 62.1597 320.14 62.0441 320.329 61.9733C320.508 61.9059 320.638 61.9 320.676 61.9V67.9C321.842 67.9 323.077 67.5265 324.053 66.5503L319.81 62.3077ZM320.676 61.9H300.58V67.9H320.676V61.9ZM300.58 61.9C299.856 61.9 298.761 62.0831 297.87 62.9749C296.978 63.8668 296.795 64.9609 296.795 65.685H302.795C302.795 65.8858 302.742 66.5874 302.112 67.2176C301.482 67.8478 300.78 67.9 300.58 67.9V61.9ZM296.795 65.685V95.515H302.795V65.685H296.795ZM296.795 95.515C296.795 96.2391 296.978 97.3332 297.87 98.2251C298.761 99.1169 299.856 99.3 300.58 99.3V93.3C300.78 93.3 301.482 93.3522 302.112 93.9824C302.742 94.6126 302.795 95.3142 302.795 95.515H296.795ZM300.58 99.3H334.492V93.3H300.58V99.3ZM334.492 99.3C334.343 99.3 334.111 99.2674 333.857 99.1403C333.602 99.0132 333.437 98.8468 333.348 98.728L338.148 95.128C337.267 93.9539 335.959 93.3 334.492 93.3V99.3ZM333.948 99.328C333.829 99.2389 333.662 99.0734 333.535 98.8191C333.408 98.5649 333.376 98.3325 333.376 98.184H339.376C339.376 96.7164 338.722 95.4086 337.548 94.528L333.948 99.328ZM333.376 98.184V110.116H339.376V98.184H333.376ZM333.376 110.116C333.376 109.965 333.409 109.797 333.477 109.643C333.543 109.496 333.614 109.42 333.626 109.408L337.869 113.65C338.77 112.75 339.376 111.542 339.376 110.116H333.376ZM333.626 109.408C333.774 109.26 333.956 109.144 334.145 109.073C334.324 109.006 334.454 109 334.492 109V115C335.658 115 336.893 114.627 337.869 113.65L333.626 109.408ZM334.492 109H283.467V115H334.492V109ZM283.467 109C283.51 109 283.583 109.007 283.67 109.036C283.756 109.065 283.819 109.103 283.854 109.129L280.254 113.929C281.192 114.632 282.294 115 283.467 115V109ZM284.454 109.729C284.48 109.764 284.518 109.826 284.546 109.913C284.575 110 284.583 110.073 284.583 110.116H278.583C278.583 111.288 278.95 112.391 279.654 113.329L284.454 109.729ZM284.583 110.116V3.984H278.583V110.116H284.583ZM284.583 3.984C284.583 4.02192 284.577 4.15131 284.509 4.33086C284.439 4.51965 284.323 4.70133 284.175 4.84931L279.932 0.606682C278.956 1.58289 278.583 2.81789 278.583 3.984H284.583ZM284.175 4.84931C284.162 4.86209 284.086 4.93305 283.939 4.99842C283.785 5.06691 283.618 5.09999 283.467 5.09999V-0.900009C282.041 -0.900009 280.833 -0.294056 279.932 0.606674L284.175 4.84931ZM283.467 5.09999H334.492V-0.900009H283.467V5.09999ZM334.492 5.09999C334.343 5.09999 334.111 5.06739 333.857 4.94027C333.602 4.81315 333.437 4.64679 333.348 4.52799L338.148 0.928001C337.267 -0.246086 335.959 -0.900009 334.492 -0.900009V5.09999ZM333.948 5.12799C333.829 5.03889 333.662 4.87337 333.535 4.61914C333.408 4.36489 333.376 4.1325 333.376 3.984H339.376C339.376 2.51639 338.722 1.20856 337.548 0.327999L333.948 5.12799ZM333.376 3.984V15.916H339.376V3.984H333.376ZM359.387 105.406L357.287 107.548L359.387 105.406ZM351.851 79.501L349.73 77.3797L351.851 79.501ZM368.807 79.501L366.407 81.301L366.664 81.6439L367.007 81.901L368.807 79.501ZM372.418 93.788L370.066 95.6501L370.089 95.6796L370.114 95.7086L372.418 93.788ZM388.432 94.102L390.652 96.12L390.674 96.0955L390.696 96.0705L388.432 94.102ZM389.845 77.617L392.441 76.1139L389.845 77.617ZM384.978 71.965L386.921 69.6792L384.978 71.965ZM374.93 64.272L376.695 61.8458L376.689 61.8416L376.683 61.8374L374.93 64.272ZM362.213 54.224L360.166 56.4172L360.184 56.4339L360.202 56.4503L362.213 54.224ZM354.206 43.705L351.523 45.0466L351.543 45.0873L351.565 45.1273L354.206 43.705ZM358.916 8.53699L356.816 6.39436L358.916 8.53699ZM400.678 9.008L398.536 11.1086L398.547 11.119L398.557 11.1293L400.678 9.008ZM391.258 35.541L388.858 37.341L389.115 37.6839L389.458 37.941L391.258 35.541ZM387.647 20.312L385.295 22.1741L385.338 22.2283L385.383 22.2805L387.647 20.312ZM371.947 19.998L374.172 22.0107L374.195 21.9851L374.218 21.9589L371.947 19.998ZM372.104 38.838L369.762 40.7121L369.784 40.7401L369.807 40.7676L372.104 38.838ZM384.821 49.671L386.602 47.2568L386.595 47.2518L384.821 49.671ZM399.265 61.289L397.216 63.4798L397.235 63.4977L397.254 63.5153L399.265 61.289ZM406.801 71.023L409.484 69.6814L406.801 71.023ZM401.463 105.249L403.585 107.37L403.595 107.36L403.605 107.35L401.463 105.249ZM380.425 110.256C372.386 110.256 366.174 107.858 361.487 103.264L357.287 107.548C363.277 113.42 371.09 116.256 380.425 116.256V110.256ZM361.487 103.264C356.804 98.6723 354.38 92.6291 354.38 84.839H348.38C348.38 94.0049 351.294 101.673 357.287 107.548L361.487 103.264ZM354.38 84.839V80.757H348.38V84.839H354.38ZM354.38 80.757C354.38 80.7949 354.374 80.9243 354.307 81.1039C354.236 81.2926 354.12 81.4743 353.973 81.6223L349.73 77.3797C348.754 78.3559 348.38 79.5909 348.38 80.757H354.38ZM353.973 81.6223C353.96 81.6351 353.884 81.7061 353.737 81.7714C353.583 81.8399 353.416 81.873 353.264 81.873V75.873C351.838 75.873 350.631 76.4789 349.73 77.3797L353.973 81.6223ZM353.264 81.873H367.551V75.873H353.264V81.873ZM367.551 81.873C367.403 81.873 367.17 81.8404 366.916 81.7133C366.662 81.5862 366.496 81.4198 366.407 81.301L371.207 77.701C370.327 76.5269 369.019 75.873 367.551 75.873V81.873ZM367.007 81.901C366.888 81.8119 366.722 81.6464 366.595 81.3921C366.468 81.1379 366.435 80.9055 366.435 80.757H372.435C372.435 79.2894 371.781 77.9816 370.607 77.101L367.007 81.901ZM366.435 80.757V83.897H372.435V80.757H366.435ZM366.435 83.897C366.435 88.4668 367.554 92.4774 370.066 95.6501L374.77 91.9259C373.305 90.0746 372.435 87.4911 372.435 83.897H366.435ZM370.114 95.7086C372.772 98.8984 376.282 100.556 380.425 100.556V94.556C378.079 94.556 376.251 93.7016 374.723 91.8674L370.114 95.7086ZM380.425 100.556C384.474 100.556 387.963 99.0777 390.652 96.12L386.212 92.084C384.714 93.7316 382.865 94.556 380.425 94.556V100.556ZM390.696 96.0705C393.36 93.0065 394.572 89.1165 394.572 84.682H388.572C388.572 87.9929 387.691 90.3828 386.168 92.1335L390.696 96.0705ZM394.572 84.682C394.572 81.5306 393.902 78.6371 392.441 76.1139L387.249 79.1201C388.091 80.5742 388.572 82.3907 388.572 84.682H394.572ZM392.441 76.1139C391.089 73.7774 389.226 71.6381 386.921 69.6792L383.035 74.2508C384.917 75.8506 386.299 77.4793 387.249 79.1201L392.441 76.1139ZM386.921 69.6792C384.737 67.8225 381.311 65.2031 376.695 61.8458L373.166 66.6982C377.76 70.0396 381.033 72.5488 383.035 74.2508L386.921 69.6792ZM376.683 61.8374C371.502 58.1068 367.358 54.8284 364.224 51.9977L360.202 56.4503C363.558 59.4809 367.892 62.9012 373.177 66.7066L376.683 61.8374ZM364.26 52.0308C361.377 49.3401 358.903 46.0999 356.848 42.2827L351.565 45.1273C353.905 49.4741 356.769 53.2466 360.166 56.4172L364.26 52.0308ZM356.889 42.3634C355.036 38.6561 354.066 34.3137 354.066 29.261H348.066C348.066 35.0937 349.19 40.3806 351.523 45.0466L356.889 42.3634ZM354.066 29.261C354.066 21.2186 356.464 15.1404 361.016 10.6796L356.816 6.39436C350.901 12.191 348.066 19.9288 348.066 29.261H354.066ZM361.016 10.6796C365.593 6.19405 371.698 3.844 379.64 3.844V-2.156C370.417 -2.156 362.706 0.622612 356.816 6.39436L361.016 10.6796ZM379.64 3.844C387.644 3.844 393.843 6.32325 398.536 11.1086L402.82 6.90737C396.837 0.807415 389.011 -2.156 379.64 -2.156V3.844ZM398.557 11.1293C403.233 15.8051 405.685 22.1061 405.685 30.36H411.685C411.685 20.8206 408.8 12.8869 402.799 6.88668L398.557 11.1293ZM405.685 30.36V34.128H411.685V30.36H405.685ZM405.685 34.128C405.685 33.9765 405.718 33.8094 405.787 33.6553C405.852 33.5082 405.923 33.4325 405.936 33.4197L410.178 37.6623C411.079 36.7616 411.685 35.5541 411.685 34.128H405.685ZM405.936 33.4197C406.084 33.2717 406.266 33.1561 406.454 33.0853C406.634 33.0179 406.763 33.012 406.801 33.012V39.012C407.967 39.012 409.202 38.6385 410.178 37.6623L405.936 33.4197ZM406.801 33.012H392.671V39.012H406.801V33.012ZM392.671 33.012C392.714 33.012 392.788 33.0193 392.874 33.0482C392.961 33.0771 393.024 33.1151 393.058 33.141L389.458 37.941C390.396 38.6445 391.499 39.012 392.671 39.012V33.012ZM393.658 33.741C393.684 33.7756 393.722 33.8385 393.751 33.9251C393.78 34.0117 393.787 34.0848 393.787 34.128H387.787C387.787 35.3004 388.155 36.403 388.858 37.341L393.658 33.741ZM393.787 34.128V30.046H387.787V34.128H393.787ZM393.787 30.046C393.787 25.4482 392.6 21.4353 389.911 18.3435L385.383 22.2805C386.881 24.0033 387.787 26.4798 387.787 30.046H393.787ZM389.999 18.4499C387.412 15.1821 383.858 13.544 379.64 13.544V19.544C382.121 19.544 383.905 20.4178 385.295 22.1741L389.999 18.4499ZM379.64 13.544C375.66 13.544 372.256 15.0508 369.677 18.0371L374.218 21.9589C375.616 20.3399 377.34 19.544 379.64 19.544V13.544ZM369.723 17.9853C367.085 20.9003 365.964 24.798 365.964 29.261H371.964C371.964 25.7693 372.832 23.4917 374.172 22.0107L369.723 17.9853ZM365.964 29.261C365.964 33.6206 367.19 37.4975 369.762 40.7121L374.447 36.9639C372.832 34.9452 371.964 32.4374 371.964 29.261H365.964ZM369.807 40.7676C372.257 43.6841 376.756 47.4765 383.047 52.0902L386.595 47.2518C380.327 42.6548 376.347 39.2252 374.401 36.9084L369.807 40.7676ZM383.04 52.0852C389.392 56.7706 394.097 60.5627 397.216 63.4798L401.315 59.0982C397.944 55.9446 393.02 51.9914 386.602 47.2568L383.04 52.0852ZM397.254 63.5153C400.249 66.2203 402.521 69.1717 404.118 72.3646L409.484 69.6814C407.522 65.7569 404.771 62.219 401.276 59.0627L397.254 63.5153ZM404.118 72.3646C405.646 75.4199 406.47 79.1785 406.47 83.74H412.47C412.47 78.4629 411.516 73.7435 409.484 69.6814L404.118 72.3646ZM406.47 83.74C406.47 91.9923 404.018 98.3599 399.321 103.148L403.605 107.35C409.585 101.253 412.47 93.281 412.47 83.74H406.47ZM399.342 103.128C394.652 107.817 388.447 110.256 380.425 110.256V116.256C389.778 116.256 397.598 113.357 403.585 107.37L399.342 103.128ZM480.856 17.329L478.735 15.2077V15.2077L480.856 17.329ZM467.04 49.671L464.64 51.471L464.897 51.8139L465.24 52.071L467.04 49.671ZM480.856 96.928L478.456 98.728L478.713 99.0709L479.056 99.328L480.856 96.928ZM480.856 111.529L478.735 109.408H478.735L480.856 111.529ZM427.162 111.529L424.762 113.329L425.019 113.672L425.362 113.929L427.162 111.529ZM427.162 2.72799L425.041 0.606674V0.606682L427.162 2.72799ZM480.856 2.72799L478.456 4.52799L478.713 4.87085L479.056 5.12799L480.856 2.72799ZM478.484 15.916C478.484 15.7645 478.517 15.5974 478.586 15.4433C478.651 15.2962 478.722 15.2205 478.735 15.2077L482.977 19.4503C483.878 18.5496 484.484 17.3421 484.484 15.916H478.484ZM478.735 15.2077C478.883 15.0597 479.064 14.9441 479.253 14.8733C479.433 14.8059 479.562 14.8 479.6 14.8V20.8C480.766 20.8 482.001 20.4265 482.977 19.4503L478.735 15.2077ZM479.6 14.8H445.688V20.8H479.6V14.8ZM445.688 14.8C444.964 14.8 443.87 14.9831 442.978 15.8749C442.086 16.7668 441.903 17.8609 441.903 18.585H447.903C447.903 18.7858 447.851 19.4874 447.221 20.1176C446.59 20.7478 445.889 20.8 445.688 20.8V14.8ZM441.903 18.585V48.258H447.903V18.585H441.903ZM441.903 48.258C441.903 48.9821 442.086 50.0762 442.978 50.9681C443.87 51.8599 444.964 52.043 445.688 52.043V46.043C445.889 46.043 446.59 46.0952 447.221 46.7254C447.851 47.3556 447.903 48.0572 447.903 48.258H441.903ZM445.688 52.043H465.784V46.043H445.688V52.043ZM465.784 52.043C465.636 52.043 465.403 52.0104 465.149 51.8833C464.895 51.7562 464.729 51.5898 464.64 51.471L469.44 47.871C468.56 46.6969 467.252 46.043 465.784 46.043V52.043ZM465.24 52.071C465.121 51.9819 464.955 51.8164 464.828 51.5621C464.701 51.3079 464.668 51.0755 464.668 50.927H470.668C470.668 49.4594 470.014 48.1516 468.84 47.271L465.24 52.071ZM464.668 50.927V63.016H470.668V50.927H464.668ZM464.668 63.016C464.668 62.8645 464.701 62.6974 464.77 62.5433C464.835 62.3962 464.906 62.3205 464.919 62.3077L469.161 66.5503C470.062 65.6496 470.668 64.4421 470.668 63.016H464.668ZM464.919 62.3077C465.067 62.1597 465.248 62.0441 465.437 61.9733C465.617 61.9059 465.746 61.9 465.784 61.9V67.9C466.95 67.9 468.185 67.5265 469.161 66.5503L464.919 62.3077ZM465.784 61.9H445.688V67.9H465.784V61.9ZM445.688 61.9C444.964 61.9 443.87 62.0831 442.978 62.9749C442.086 63.8668 441.903 64.9609 441.903 65.685H447.903C447.903 65.8858 447.851 66.5874 447.221 67.2176C446.59 67.8478 445.889 67.9 445.688 67.9V61.9ZM441.903 65.685V95.515H447.903V65.685H441.903ZM441.903 95.515C441.903 96.2391 442.086 97.3332 442.978 98.2251C443.87 99.1169 444.964 99.3 445.688 99.3V93.3C445.889 93.3 446.59 93.3522 447.221 93.9824C447.851 94.6126 447.903 95.3142 447.903 95.515H441.903ZM445.688 99.3H479.6V93.3H445.688V99.3ZM479.6 99.3C479.452 99.3 479.219 99.2674 478.965 99.1403C478.711 99.0132 478.545 98.8468 478.456 98.728L483.256 95.128C482.376 93.9539 481.068 93.3 479.6 93.3V99.3ZM479.056 99.328C478.937 99.2389 478.771 99.0734 478.644 98.8191C478.517 98.5649 478.484 98.3325 478.484 98.184H484.484C484.484 96.7164 483.83 95.4086 482.656 94.528L479.056 99.328ZM478.484 98.184V110.116H484.484V98.184H478.484ZM478.484 110.116C478.484 109.965 478.517 109.797 478.586 109.643C478.651 109.496 478.722 109.42 478.735 109.408L482.977 113.65C483.878 112.75 484.484 111.542 484.484 110.116H478.484ZM478.735 109.408C478.883 109.26 479.064 109.144 479.253 109.073C479.433 109.006 479.562 109 479.6 109V115C480.766 115 482.001 114.627 482.977 113.65L478.735 109.408ZM479.6 109H428.575V115H479.6V109ZM428.575 109C428.618 109 428.691 109.007 428.778 109.036C428.865 109.065 428.928 109.103 428.962 109.129L425.362 113.929C426.3 114.632 427.403 115 428.575 115V109ZM429.562 109.729C429.588 109.764 429.626 109.826 429.655 109.913C429.684 110 429.691 110.073 429.691 110.116H423.691C423.691 111.288 424.059 112.391 424.762 113.329L429.562 109.729ZM429.691 110.116V3.984H423.691V110.116H429.691ZM429.691 3.984C429.691 4.02192 429.685 4.15131 429.618 4.33086C429.547 4.51965 429.431 4.70133 429.283 4.84931L425.041 0.606682C424.065 1.58289 423.691 2.81789 423.691 3.984H429.691ZM429.283 4.84931C429.271 4.86209 429.195 4.93305 429.048 4.99842C428.894 5.06691 428.727 5.09999 428.575 5.09999V-0.900009C427.149 -0.900009 425.942 -0.294056 425.041 0.606674L429.283 4.84931ZM428.575 5.09999H479.6V-0.900009H428.575V5.09999ZM479.6 5.09999C479.452 5.09999 479.219 5.06739 478.965 4.94027C478.711 4.81315 478.545 4.64679 478.456 4.52799L483.256 0.928001C482.376 -0.246086 481.068 -0.900009 479.6 -0.900009V5.09999ZM479.056 5.12799C478.937 5.03889 478.771 4.87337 478.644 4.61914C478.517 4.36489 478.484 4.1325 478.484 3.984H484.484C484.484 2.51639 483.83 1.20856 482.656 0.327999L479.056 5.12799ZM478.484 3.984V15.916H484.484V3.984H478.484Z" fill="white" fill-opacity="0.4" mask="url(#path-1-outside-1_1_10)"/>
</svg>
