<svg width="450" height="114" viewBox="0 0 450 114" fill="none" xmlns="http://www.w3.org/2000/svg">
<mask id="path-1-outside-1_1_7" maskUnits="userSpaceOnUse" x="-3" y="-3" width="456" height="120" fill="black">
<rect fill="white" x="-3" y="-3" width="456" height="120"/>
<path d="M29.383 113.256C20.6957 113.256 13.683 110.639 8.345 105.406C3.007 100.173 0.338 93.317 0.338 84.839V80.757C0.338 80.2337 0.495 79.815 0.809 79.501C1.22767 79.0823 1.69867 78.873 2.222 78.873H16.509C17.0323 78.873 17.451 79.0823 17.765 79.501C18.1837 79.815 18.393 80.2337 18.393 80.757V83.897C18.393 87.979 19.3873 91.276 21.376 93.788C23.4693 96.3 26.1383 97.556 29.383 97.556C32.6277 97.556 35.2967 96.4047 37.39 94.102C39.4833 91.6947 40.53 88.5547 40.53 84.682C40.53 81.9607 39.9543 79.6057 38.803 77.617C37.6517 75.6283 36.0293 73.7443 33.936 71.965C31.8427 70.1857 28.4933 67.6213 23.888 64.272C18.6547 60.504 14.4157 57.1547 11.171 54.224C8.031 51.2933 5.362 47.787 3.164 43.705C1.07067 39.5183 0.0240002 34.7037 0.0240002 29.261C0.0240002 20.5737 2.64067 13.6657 7.874 8.53699C13.1073 3.40833 20.0153 0.843999 28.598 0.843999C37.2853 0.843999 44.298 3.56533 49.636 9.008C54.974 14.346 57.643 21.4633 57.643 30.36V34.128C57.643 34.6513 57.4337 35.1223 57.015 35.541C56.701 35.855 56.2823 36.012 55.759 36.012H41.629C41.1057 36.012 40.6347 35.855 40.216 35.541C39.902 35.1223 39.745 34.6513 39.745 34.128V30.046C39.745 25.964 38.6983 22.7193 36.605 20.312C34.6163 17.8 31.9473 16.544 28.598 16.544C25.458 16.544 22.8937 17.6953 20.905 19.998C18.9163 22.196 17.922 25.2837 17.922 29.261C17.922 33.029 18.9687 36.2213 21.062 38.838C23.26 41.4547 27.499 45.0657 33.779 49.671C40.1637 54.381 44.9783 58.2537 48.223 61.289C51.4677 64.2197 53.9797 67.4643 55.759 71.023C57.5383 74.5817 58.428 78.8207 58.428 83.74C58.428 92.6367 55.759 99.8063 50.421 105.249C45.083 110.587 38.0703 113.256 29.383 113.256ZM106.892 1.94299C112.439 1.94299 117.306 3.30366 121.493 6.025C125.784 8.74633 129.081 12.5667 131.384 17.486C133.791 22.4053 134.995 28.005 134.995 34.285C134.995 43.705 132.483 51.2933 127.459 57.05C122.54 62.8067 115.998 65.685 107.834 65.685H94.4889C93.9656 65.685 93.7039 65.9467 93.7039 66.47V110.116C93.7039 110.639 93.4946 111.11 93.0759 111.529C92.7619 111.843 92.3433 112 91.8199 112H77.3759C76.8526 112 76.3816 111.843 75.9629 111.529C75.6489 111.11 75.4919 110.639 75.4919 110.116V3.827C75.4919 3.30367 75.6489 2.885 75.9629 2.571C76.3816 2.15233 76.8526 1.94299 77.3759 1.94299H106.892ZM103.909 51.398C107.782 51.398 110.869 49.9327 113.172 47.002C115.579 43.9667 116.783 39.8847 116.783 34.756C116.783 29.5227 115.579 25.3883 113.172 22.353C110.869 19.213 107.782 17.643 103.909 17.643H94.4889C93.9656 17.643 93.7039 17.9047 93.7039 18.428V50.613C93.7039 51.1363 93.9656 51.398 94.4889 51.398H103.909ZM191.834 3.984C191.834 3.46066 191.991 3.042 192.305 2.72799C192.724 2.30933 193.195 2.09999 193.718 2.09999H208.162C208.685 2.09999 209.104 2.30933 209.418 2.72799C209.837 3.042 210.046 3.46066 210.046 3.984V110.116C210.046 110.639 209.837 111.11 209.418 111.529C209.104 111.843 208.685 112 208.162 112H193.718C193.195 112 192.724 111.843 192.305 111.529C191.991 111.11 191.834 110.639 191.834 110.116V65.685C191.834 65.1617 191.572 64.9 191.049 64.9H171.11C170.587 64.9 170.325 65.1617 170.325 65.685V110.116C170.325 110.639 170.116 111.11 169.697 111.529C169.383 111.843 168.964 112 168.441 112H153.997C153.474 112 153.003 111.843 152.584 111.529C152.27 111.11 152.113 110.639 152.113 110.116V3.984C152.113 3.46066 152.27 3.042 152.584 2.72799C153.003 2.30933 153.474 2.09999 153.997 2.09999H168.441C168.964 2.09999 169.383 2.30933 169.697 2.72799C170.116 3.042 170.325 3.46066 170.325 3.984V48.258C170.325 48.7813 170.587 49.043 171.11 49.043H191.049C191.572 49.043 191.834 48.7813 191.834 48.258V3.984ZM251.739 111.843C251.216 111.843 250.745 111.686 250.326 111.372C250.012 110.953 249.855 110.482 249.855 109.959V67.098L249.698 66.156L227.875 4.29799C227.77 4.08866 227.718 3.827 227.718 3.51299C227.718 2.57099 228.294 2.09999 229.445 2.09999H244.517C245.668 2.09999 246.401 2.62333 246.715 3.66999L258.49 44.019C258.595 44.333 258.752 44.49 258.961 44.49C259.17 44.49 259.327 44.333 259.432 44.019L271.207 3.66999C271.521 2.62333 272.254 2.09999 273.405 2.09999H288.477C289.105 2.09999 289.576 2.30933 289.89 2.72799C290.204 3.042 290.256 3.56533 290.047 4.29799L268.224 66.156L268.067 67.098V109.959C268.067 110.482 267.858 110.953 267.439 111.372C267.125 111.686 266.706 111.843 266.183 111.843H251.739ZM350.549 3.984C350.549 3.46066 350.706 3.042 351.02 2.72799C351.438 2.30933 351.909 2.09999 352.433 2.09999H366.72C367.243 2.09999 367.662 2.30933 367.976 2.72799C368.394 3.042 368.604 3.46066 368.604 3.984V110.116C368.604 110.639 368.394 111.11 367.976 111.529C367.662 111.843 367.243 112 366.72 112H350.235C349.188 112 348.508 111.477 348.194 110.43L324.801 43.862C324.696 43.548 324.487 43.4433 324.173 43.548C323.963 43.548 323.859 43.705 323.859 44.019L324.016 110.116C324.016 110.639 323.806 111.11 323.388 111.529C323.074 111.843 322.655 112 322.132 112H307.845C307.321 112 306.85 111.843 306.432 111.529C306.118 111.11 305.961 110.639 305.961 110.116V3.984C305.961 3.46066 306.118 3.042 306.432 2.72799C306.85 2.30933 307.321 2.09999 307.845 2.09999H324.016C325.062 2.09999 325.743 2.62333 326.057 3.66999L349.607 69.767C349.711 70.081 349.868 70.238 350.078 70.238C350.392 70.1333 350.549 69.924 350.549 69.61V3.984ZM388.046 112C387.313 112 386.842 111.791 386.633 111.372C386.423 110.953 386.423 110.43 386.633 109.802L408.142 57.521C408.246 57.207 408.246 56.893 408.142 56.579L386.633 4.29799C386.528 4.08866 386.476 3.77466 386.476 3.356C386.476 2.51866 386.999 2.09999 388.046 2.09999H402.961C404.007 2.09999 404.688 2.62333 405.002 3.66999L417.562 37.739C417.666 38.053 417.823 38.21 418.033 38.21C418.242 38.21 418.399 38.053 418.504 37.739L430.907 3.66999C431.221 2.62333 431.901 2.09999 432.948 2.09999H447.706C448.438 2.09999 448.909 2.30933 449.119 2.72799C449.328 3.14666 449.328 3.66999 449.119 4.29799L427.61 56.579C427.505 56.893 427.505 57.207 427.61 57.521L449.119 109.802C449.223 110.011 449.276 110.325 449.276 110.744C449.276 111.581 448.752 112 447.706 112H433.105C431.953 112 431.221 111.477 430.907 110.43L418.504 76.518C418.399 76.204 418.242 76.047 418.033 76.047C417.823 76.047 417.666 76.204 417.562 76.518L405.002 110.43C404.688 111.477 403.955 112 402.804 112H388.046Z"/>
</mask>
<path d="M8.345 105.406L6.24479 107.548L8.345 105.406ZM0.809 79.501L-1.31232 77.3797H-1.31232L0.809 79.501ZM17.765 79.501L15.365 81.301L15.6221 81.6439L15.965 81.901L17.765 79.501ZM21.376 93.788L19.0239 95.6501L19.0472 95.6796L19.0713 95.7086L21.376 93.788ZM37.39 94.102L39.6098 96.12L39.6321 96.0955L39.6538 96.0705L37.39 94.102ZM38.803 77.617L41.3993 76.1139L38.803 77.617ZM33.936 71.965L35.8789 69.6792L33.936 71.965ZM23.888 64.272L25.6525 61.8458L25.6467 61.8416L25.6409 61.8374L23.888 64.272ZM11.171 54.224L9.12405 56.4172L9.14196 56.4339L9.16014 56.4503L11.171 54.224ZM3.164 43.705L0.480719 45.0466L0.501042 45.0873L0.522587 45.1273L3.164 43.705ZM7.874 8.53699L5.77422 6.39436H5.77421L7.874 8.53699ZM49.636 9.008L47.4942 11.1086L47.5044 11.119L47.5147 11.1293L49.636 9.008ZM40.216 35.541L37.816 37.341L38.0731 37.6839L38.416 37.941L40.216 35.541ZM36.605 20.312L34.2529 22.1741L34.2958 22.2283L34.3412 22.2805L36.605 20.312ZM20.905 19.998L23.1296 22.0107L23.1528 21.9851L23.1755 21.9589L20.905 19.998ZM21.062 38.838L18.7194 40.7121L18.7418 40.7401L18.7649 40.7676L21.062 38.838ZM33.779 49.671L35.56 47.2568L35.5531 47.2518L33.779 49.671ZM48.223 61.289L46.1735 63.4798L46.1927 63.4977L46.2121 63.5153L48.223 61.289ZM55.759 71.023L58.4423 69.6814H58.4423L55.759 71.023ZM50.421 105.249L52.5423 107.37L52.5526 107.36L52.5628 107.35L50.421 105.249ZM29.383 110.256C21.3438 110.256 15.1315 107.858 10.4452 103.264L6.24479 107.548C12.2345 113.42 20.0475 116.256 29.383 116.256V110.256ZM10.4452 103.264C5.7619 98.6723 3.338 92.6291 3.338 84.839H-2.662C-2.662 94.0049 0.252103 101.673 6.24479 107.548L10.4452 103.264ZM3.338 84.839V80.757H-2.662V84.839H3.338ZM3.338 80.757C3.338 80.7949 3.33207 80.9243 3.26474 81.1039C3.19394 81.2926 3.0783 81.4743 2.93032 81.6223L-1.31232 77.3797C-2.28853 78.3559 -2.662 79.5909 -2.662 80.757H3.338ZM2.93032 81.6223C2.91754 81.6351 2.84176 81.7061 2.69466 81.7714C2.54057 81.8399 2.37346 81.873 2.222 81.873V75.873C0.795923 75.873 -0.411585 76.4789 -1.31232 77.3797L2.93032 81.6223ZM2.222 81.873H16.509V75.873H2.222V81.873ZM16.509 81.873C16.3605 81.873 16.1281 81.8404 15.8739 81.7133C15.6196 81.5862 15.4541 81.4198 15.365 81.301L20.165 77.701C19.2844 76.5269 17.9766 75.873 16.509 75.873V81.873ZM15.965 81.901C15.8462 81.8119 15.6798 81.6464 15.5527 81.3921C15.4256 81.1379 15.393 80.9055 15.393 80.757H21.393C21.393 79.2894 20.7391 77.9816 19.565 77.101L15.965 81.901ZM15.393 80.757V83.897H21.393V80.757H15.393ZM15.393 83.897C15.393 88.4668 16.5121 92.4774 19.0239 95.6501L23.7281 91.9259C22.2625 90.0746 21.393 87.4911 21.393 83.897H15.393ZM19.0713 95.7086C21.7295 98.8984 25.24 100.556 29.383 100.556V94.556C27.0367 94.556 25.2092 93.7016 23.6807 91.8674L19.0713 95.7086ZM29.383 100.556C33.4321 100.556 36.921 99.0777 39.6098 96.12L35.1702 92.084C33.6723 93.7316 31.8232 94.556 29.383 94.556V100.556ZM39.6538 96.0705C42.3182 93.0065 43.53 89.1165 43.53 84.682H37.53C37.53 87.9929 36.6485 90.3828 35.1262 92.1335L39.6538 96.0705ZM43.53 84.682C43.53 81.5306 42.8601 78.6371 41.3993 76.1139L36.2067 79.1201C37.0486 80.5742 37.53 82.3907 37.53 84.682H43.53ZM41.3993 76.1139C40.0466 73.7774 38.1835 71.6381 35.8789 69.6792L31.9931 74.2508C33.8752 75.8506 35.2568 77.4793 36.2067 79.1201L41.3993 76.1139ZM35.8789 69.6792C33.6947 67.8225 30.2688 65.2031 25.6525 61.8458L22.1235 66.6982C26.7179 70.0396 29.9907 72.5488 31.9931 74.2508L35.8789 69.6792ZM25.6409 61.8374C20.4595 58.1068 16.3159 54.8284 13.1819 51.9977L9.16014 56.4503C12.5154 59.4809 16.8498 62.9012 22.1351 66.7066L25.6409 61.8374ZM13.218 52.0308C10.335 49.3401 7.86084 46.0999 5.80541 42.2827L0.522587 45.1273C2.86316 49.4741 5.727 53.2466 9.12405 56.4172L13.218 52.0308ZM5.84728 42.3634C3.99365 38.6561 3.024 34.3137 3.024 29.261H-2.976C-2.976 35.0937 -1.85232 40.3806 0.480719 45.0466L5.84728 42.3634ZM3.024 29.261C3.024 21.2186 5.42201 15.1404 9.97379 10.6796L5.77421 6.39436C-0.14068 12.191 -2.976 19.9288 -2.976 29.261H3.024ZM9.97379 10.6796C14.5509 6.19405 20.6559 3.844 28.598 3.844V-2.156C19.3748 -2.156 11.6638 0.622612 5.77422 6.39436L9.97379 10.6796ZM28.598 3.844C36.6022 3.844 42.8008 6.32325 47.4942 11.1086L51.7778 6.90737C45.7952 0.807415 37.9684 -2.156 28.598 -2.156V3.844ZM47.5147 11.1293C52.1905 15.8051 54.643 22.1061 54.643 30.36H60.643C60.643 20.8206 57.7575 12.8869 51.7573 6.88668L47.5147 11.1293ZM54.643 30.36V34.128H60.643V30.36H54.643ZM54.643 34.128C54.643 33.9765 54.6761 33.8094 54.7446 33.6553C54.8099 33.5082 54.8809 33.4325 54.8937 33.4197L59.1363 37.6623C60.0371 36.7616 60.643 35.5541 60.643 34.128H54.643ZM54.8937 33.4197C55.0417 33.2717 55.2234 33.1561 55.4121 33.0853C55.5917 33.0179 55.7211 33.012 55.759 33.012V39.012C56.9251 39.012 58.1601 38.6385 59.1363 37.6623L54.8937 33.4197ZM55.759 33.012H41.629V39.012H55.759V33.012ZM41.629 33.012C41.6722 33.012 41.7453 33.0193 41.8319 33.0482C41.9185 33.0771 41.9814 33.1151 42.016 33.141L38.416 37.941C39.354 38.6445 40.4566 39.012 41.629 39.012V33.012ZM42.616 33.741C42.6419 33.7756 42.6799 33.8385 42.7088 33.9251C42.7377 34.0117 42.745 34.0848 42.745 34.128H36.745C36.745 35.3004 37.1125 36.403 37.816 37.341L42.616 33.741ZM42.745 34.128V30.046H36.745V34.128H42.745ZM42.745 30.046C42.745 25.4482 41.5574 21.4353 38.8688 18.3435L34.3412 22.2805C35.8393 24.0033 36.745 26.4798 36.745 30.046H42.745ZM38.9571 18.4499C36.3702 15.1821 32.8158 13.544 28.598 13.544V19.544C31.0788 19.544 32.8625 20.4178 34.2529 22.1741L38.9571 18.4499ZM28.598 13.544C24.6181 13.544 21.2136 15.0508 18.6345 18.0371L23.1755 21.9589C24.5737 20.3399 26.2979 19.544 28.598 19.544V13.544ZM18.6804 17.9853C16.043 20.9003 14.922 24.798 14.922 29.261H20.922C20.922 25.7693 21.7897 23.4917 23.1296 22.0107L18.6804 17.9853ZM14.922 29.261C14.922 33.6206 16.1477 37.4975 18.7194 40.7121L23.4046 36.9639C21.7896 34.9452 20.922 32.4374 20.922 29.261H14.922ZM18.7649 40.7676C21.2148 43.6841 25.7135 47.4765 32.0049 52.0902L35.5531 47.2518C29.2845 42.6548 25.3052 39.2252 23.3591 36.9084L18.7649 40.7676ZM31.9981 52.0852C38.3495 56.7706 43.0553 60.5627 46.1735 63.4798L50.2725 59.0982C46.9014 55.9446 41.9779 51.9914 35.5599 47.2568L31.9981 52.0852ZM46.2121 63.5153C49.207 66.2203 51.4793 69.1717 53.0757 72.3646L58.4423 69.6814C56.4801 65.7569 53.7283 62.219 50.2339 59.0627L46.2121 63.5153ZM53.0757 72.3646C54.6033 75.4199 55.428 79.1785 55.428 83.74H61.428C61.428 78.4629 60.4733 73.7435 58.4423 69.6814L53.0757 72.3646ZM55.428 83.74C55.428 91.9923 52.9756 98.3599 48.2792 103.148L52.5628 107.35C58.5424 101.253 61.428 93.281 61.428 83.74H55.428ZM48.2997 103.128C43.61 107.817 37.4048 110.256 29.383 110.256V116.256C38.7359 116.256 46.556 113.357 52.5423 107.37L48.2997 103.128ZM121.493 6.025L119.858 8.54033L119.872 8.54951L119.886 8.55853L121.493 6.025ZM131.384 17.486L128.667 18.7578L128.678 18.7813L128.689 18.8046L131.384 17.486ZM127.459 57.05L125.199 55.0774L125.188 55.0892L125.178 55.101L127.459 57.05ZM93.0759 111.529L95.1973 113.65L93.0759 111.529ZM75.9629 111.529L73.5629 113.329L73.8201 113.672L74.1629 113.929L75.9629 111.529ZM75.9629 2.571L73.8416 0.449677L73.8416 0.449684L75.9629 2.571ZM113.172 47.002L110.821 45.1378L110.813 45.1485L113.172 47.002ZM113.172 22.353L110.753 24.1271L110.786 24.1728L110.821 24.2172L113.172 22.353ZM106.892 4.94299C111.926 4.94299 116.211 6.16979 119.858 8.54033L123.128 3.50967C118.402 0.437534 112.953 -1.05701 106.892 -1.05701V4.94299ZM119.886 8.55853C123.661 10.9524 126.589 14.319 128.667 18.7578L134.101 16.2142C131.573 10.8143 127.907 6.54029 123.1 3.49147L119.886 8.55853ZM128.689 18.8046C130.868 23.2571 131.995 28.3949 131.995 34.285H137.995C137.995 27.6151 136.714 21.5536 134.079 16.1673L128.689 18.8046ZM131.995 34.285C131.995 43.1553 129.642 49.9864 125.199 55.0774L129.719 59.0226C135.324 52.6002 137.995 44.2547 137.995 34.285H131.995ZM125.178 55.101C120.878 60.1338 115.198 62.685 107.834 62.685V68.685C116.798 68.685 124.202 65.4795 129.74 58.999L125.178 55.101ZM107.834 62.685H94.4889V68.685H107.834V62.685ZM94.4889 62.685C93.7648 62.685 92.6707 62.8681 91.7789 63.7599C90.887 64.6518 90.7039 65.7459 90.7039 66.47H96.7039C96.7039 66.6708 96.6517 67.3724 96.0215 68.0026C95.3913 68.6328 94.6897 68.685 94.4889 68.685V62.685ZM90.7039 66.47V110.116H96.7039V66.47H90.7039ZM90.7039 110.116C90.7039 109.965 90.737 109.797 90.8055 109.643C90.8709 109.496 90.9418 109.42 90.9546 109.408L95.1973 113.65C96.098 112.75 96.7039 111.542 96.7039 110.116H90.7039ZM90.9546 109.408C91.1026 109.26 91.2843 109.144 91.4731 109.073C91.6526 109.006 91.782 109 91.8199 109V115C92.986 115 94.221 114.627 95.1973 113.65L90.9546 109.408ZM91.8199 109H77.3759V115H91.8199V109ZM77.3759 109C77.4192 109 77.4923 109.007 77.5789 109.036C77.6655 109.065 77.7283 109.103 77.7629 109.129L74.1629 113.929C75.1009 114.632 76.2035 115 77.3759 115V109ZM78.3629 109.729C78.3889 109.764 78.4269 109.826 78.4557 109.913C78.4846 110 78.4919 110.073 78.4919 110.116H72.4919C72.4919 111.288 72.8595 112.391 73.5629 113.329L78.3629 109.729ZM78.4919 110.116V3.827H72.4919V110.116H78.4919ZM78.4919 3.827C78.4919 3.86492 78.486 3.99431 78.4187 4.17387C78.3479 4.36265 78.2322 4.54433 78.0843 4.69231L73.8416 0.449684C72.8654 1.42589 72.4919 2.6609 72.4919 3.827H78.4919ZM78.0843 4.69231C78.0715 4.70509 77.9957 4.77605 77.8486 4.84143C77.6945 4.90992 77.5274 4.94299 77.3759 4.94299V-1.05701C75.9499 -1.05701 74.7423 -0.451057 73.8416 0.449677L78.0843 4.69231ZM77.3759 4.94299H106.892V-1.05701H77.3759V4.94299ZM103.909 54.398C108.66 54.398 112.634 52.5423 115.531 48.8555L110.813 45.1485C109.104 47.3231 106.903 48.398 103.909 48.398V54.398ZM115.522 48.8662C118.469 45.1508 119.783 40.3418 119.783 34.756H113.783C113.783 39.4275 112.689 42.7825 110.821 45.1378L115.522 48.8662ZM119.783 34.756C119.783 29.0822 118.477 24.214 115.522 20.4888L110.821 24.2172C112.682 26.5627 113.783 29.9632 113.783 34.756H119.783ZM115.591 20.5789C112.727 16.6733 108.743 14.643 103.909 14.643V20.643C106.82 20.643 109.012 21.7527 110.753 24.1271L115.591 20.5789ZM103.909 14.643H94.4889V20.643H103.909V14.643ZM94.4889 14.643C93.7648 14.643 92.6707 14.8261 91.7789 15.7179C90.887 16.6098 90.7039 17.7039 90.7039 18.428H96.7039C96.7039 18.6288 96.6517 19.3304 96.0215 19.9606C95.3913 20.5908 94.6897 20.643 94.4889 20.643V14.643ZM90.7039 18.428V50.613H96.7039V18.428H90.7039ZM90.7039 50.613C90.7039 51.3371 90.887 52.4312 91.7789 53.3231C92.6707 54.2149 93.7648 54.398 94.4889 54.398V48.398C94.6897 48.398 95.3913 48.4502 96.0215 49.0804C96.6517 49.7106 96.7039 50.4122 96.7039 50.613H90.7039ZM94.4889 54.398H103.909V48.398H94.4889V54.398ZM192.305 2.72799L190.184 0.606674V0.606686L192.305 2.72799ZM209.418 2.72799L207.018 4.528L207.275 4.87085L207.618 5.12798L209.418 2.72799ZM209.418 111.529L211.539 113.65L211.539 113.65L209.418 111.529ZM192.305 111.529L189.905 113.329L190.162 113.672L190.505 113.929L192.305 111.529ZM169.697 111.529L171.818 113.65V113.65L169.697 111.529ZM152.584 111.529L150.184 113.329L150.441 113.672L150.784 113.929L152.584 111.529ZM152.584 2.72799L150.463 0.606674L150.463 0.606682L152.584 2.72799ZM169.697 2.72799L167.297 4.52799L167.554 4.87085L167.897 5.12799L169.697 2.72799ZM194.834 3.984C194.834 4.02192 194.828 4.15131 194.761 4.33086C194.69 4.51964 194.574 4.70133 194.426 4.8493L190.184 0.606686C189.207 1.58289 188.834 2.8179 188.834 3.984H194.834ZM194.426 4.84932C194.413 4.86209 194.338 4.93305 194.191 4.99843C194.036 5.06691 193.869 5.09999 193.718 5.09999V-0.900009C192.292 -0.900009 191.084 -0.294056 190.184 0.606674L194.426 4.84932ZM193.718 5.09999H208.162V-0.900009H193.718V5.09999ZM208.162 5.09999C208.013 5.09999 207.781 5.06739 207.527 4.94027C207.272 4.81316 207.107 4.64679 207.018 4.528L211.818 0.92799C210.937 -0.24609 209.629 -0.900009 208.162 -0.900009V5.09999ZM207.618 5.12798C207.499 5.03888 207.333 4.87337 207.206 4.61913C207.078 4.36489 207.046 4.13249 207.046 3.984H213.046C213.046 2.5164 212.392 1.20857 211.218 0.328003L207.618 5.12798ZM207.046 3.984V110.116H213.046V3.984H207.046ZM207.046 110.116C207.046 109.965 207.079 109.797 207.147 109.643C207.213 109.496 207.284 109.42 207.297 109.408L211.539 113.65C212.44 112.75 213.046 111.542 213.046 110.116H207.046ZM207.297 109.408C207.445 109.26 207.626 109.144 207.815 109.073C207.995 109.006 208.124 109 208.162 109V115C209.328 115 210.563 114.627 211.539 113.65L207.297 109.408ZM208.162 109H193.718V115H208.162V109ZM193.718 109C193.761 109 193.834 109.007 193.921 109.036C194.007 109.065 194.07 109.103 194.105 109.129L190.505 113.929C191.443 114.632 192.545 115 193.718 115V109ZM194.705 109.729C194.731 109.764 194.769 109.826 194.798 109.913C194.827 110 194.834 110.073 194.834 110.116H188.834C188.834 111.288 189.201 112.391 189.905 113.329L194.705 109.729ZM194.834 110.116V65.685H188.834V110.116H194.834ZM194.834 65.685C194.834 64.9609 194.651 63.8668 193.759 62.9749C192.867 62.0831 191.773 61.9 191.049 61.9V67.9C190.848 67.9 190.146 67.8478 189.516 67.2176C188.886 66.5874 188.834 65.8858 188.834 65.685H194.834ZM191.049 61.9H171.11V67.9H191.049V61.9ZM171.11 61.9C170.386 61.9 169.292 62.0831 168.4 62.9749C167.508 63.8668 167.325 64.9609 167.325 65.685H173.325C173.325 65.8858 173.273 66.5874 172.642 67.2176C172.012 67.8478 171.311 67.9 171.11 67.9V61.9ZM167.325 65.685V110.116H173.325V65.685H167.325ZM167.325 110.116C167.325 109.965 167.358 109.797 167.426 109.643C167.492 109.496 167.563 109.42 167.576 109.408L171.818 113.65C172.719 112.75 173.325 111.542 173.325 110.116H167.325ZM167.576 109.408C167.723 109.26 167.905 109.144 168.094 109.073C168.274 109.006 168.403 109 168.441 109V115C169.607 115 170.842 114.627 171.818 113.65L167.576 109.408ZM168.441 109H153.997V115H168.441V109ZM153.997 109C154.04 109 154.113 109.007 154.2 109.036C154.286 109.065 154.349 109.103 154.384 109.129L150.784 113.929C151.722 114.632 152.824 115 153.997 115V109ZM154.984 109.729C155.01 109.764 155.048 109.826 155.077 109.913C155.106 110 155.113 110.073 155.113 110.116H149.113C149.113 111.288 149.48 112.391 150.184 113.329L154.984 109.729ZM155.113 110.116V3.984H149.113V110.116H155.113ZM155.113 3.984C155.113 4.02192 155.107 4.15131 155.04 4.33086C154.969 4.51965 154.853 4.70133 154.705 4.84931L150.463 0.606682C149.486 1.58289 149.113 2.81789 149.113 3.984H155.113ZM154.705 4.84931C154.692 4.86209 154.617 4.93305 154.47 4.99842C154.315 5.06691 154.148 5.09999 153.997 5.09999V-0.900009C152.571 -0.900009 151.363 -0.294056 150.463 0.606674L154.705 4.84931ZM153.997 5.09999H168.441V-0.900009H153.997V5.09999ZM168.441 5.09999C168.292 5.09999 168.06 5.06739 167.806 4.94027C167.551 4.81315 167.386 4.64679 167.297 4.52799L172.097 0.927994C171.216 -0.24609 169.908 -0.900009 168.441 -0.900009V5.09999ZM167.897 5.12799C167.778 5.03889 167.612 4.87337 167.485 4.61913C167.357 4.36489 167.325 4.1325 167.325 3.984H173.325C173.325 2.51639 172.671 1.20856 171.497 0.328003L167.897 5.12799ZM167.325 3.984V48.258H173.325V3.984H167.325ZM167.325 48.258C167.325 48.9821 167.508 50.0762 168.4 50.9681C169.292 51.8599 170.386 52.043 171.11 52.043V46.043C171.311 46.043 172.012 46.0952 172.642 46.7254C173.273 47.3556 173.325 48.0572 173.325 48.258H167.325ZM171.11 52.043H191.049V46.043H171.11V52.043ZM191.049 52.043C191.773 52.043 192.867 51.8599 193.759 50.9681C194.651 50.0762 194.834 48.9821 194.834 48.258H188.834C188.834 48.0572 188.886 47.3556 189.516 46.7254C190.146 46.0952 190.848 46.043 191.049 46.043V52.043ZM194.834 48.258V3.984H188.834V48.258H194.834ZM250.326 111.372L247.926 113.172L248.183 113.515L248.526 113.772L250.326 111.372ZM249.855 67.098H252.855V66.8497L252.814 66.6048L249.855 67.098ZM249.698 66.156L252.657 65.6628L252.614 65.4047L252.527 65.1579L249.698 66.156ZM227.875 4.29799L230.704 3.29991L230.642 3.12358L230.558 2.95634L227.875 4.29799ZM246.715 3.66999L249.595 2.82956L249.592 2.81874L249.589 2.80795L246.715 3.66999ZM258.49 44.019L255.61 44.8594L255.626 44.9139L255.644 44.9677L258.49 44.019ZM259.432 44.019L262.278 44.9677L262.296 44.9139L262.312 44.8594L259.432 44.019ZM271.207 3.66999L268.334 2.80795L268.33 2.81874L268.327 2.82956L271.207 3.66999ZM289.89 2.72799L287.49 4.52799L287.618 4.69855L287.769 4.84932L289.89 2.72799ZM290.047 4.29799L292.876 5.29608L292.907 5.20996L292.932 5.12216L290.047 4.29799ZM268.224 66.156L265.395 65.1579L265.308 65.4047L265.265 65.6628L268.224 66.156ZM268.067 67.098L265.108 66.6048L265.067 66.8497V67.098H268.067ZM267.439 111.372L265.318 109.251V109.251L267.439 111.372ZM251.739 108.843C251.782 108.843 251.855 108.85 251.942 108.879C252.029 108.908 252.092 108.946 252.126 108.972L248.526 113.772C249.464 114.475 250.567 114.843 251.739 114.843V108.843ZM252.726 109.572C252.752 109.607 252.79 109.669 252.819 109.756C252.848 109.843 252.855 109.916 252.855 109.959H246.855C246.855 111.131 247.223 112.234 247.926 113.172L252.726 109.572ZM252.855 109.959V67.098H246.855V109.959H252.855ZM252.814 66.6048L252.657 65.6628L246.739 66.6492L246.896 67.5912L252.814 66.6048ZM252.527 65.1579L230.704 3.29991L225.046 5.29608L246.869 67.1541L252.527 65.1579ZM230.558 2.95634C230.641 3.1208 230.68 3.2616 230.699 3.3564C230.718 3.44968 230.718 3.50606 230.718 3.51299H224.718C224.718 4.14094 224.82 4.89643 225.192 5.63965L230.558 2.95634ZM230.718 3.51299C230.718 3.57731 230.709 3.77033 230.604 4.0267C230.492 4.30145 230.304 4.56738 230.05 4.77512C229.577 5.1619 229.202 5.09999 229.445 5.09999V-0.900009C228.537 -0.900009 227.299 -0.72641 226.25 0.131371C225.087 1.08342 224.718 2.40289 224.718 3.51299H230.718ZM229.445 5.09999H244.517V-0.900009H229.445V5.09999ZM244.517 5.09999C244.642 5.09999 244.455 5.12524 244.186 4.93369C244.06 4.84322 243.966 4.7388 243.905 4.64722C243.847 4.56077 243.835 4.51095 243.842 4.53204L249.589 2.80795C249.283 1.78758 248.689 0.776711 247.674 0.0512924C246.673 -0.663586 245.544 -0.900009 244.517 -0.900009V5.09999ZM243.835 4.51042L255.61 44.8594L261.37 43.1786L249.595 2.82956L243.835 4.51042ZM255.644 44.9677C255.879 45.6736 256.759 47.49 258.961 47.49V41.49C259.704 41.49 260.362 41.8047 260.808 42.2509C261.18 42.6235 261.308 42.9845 261.336 43.0703L255.644 44.9677ZM258.961 47.49C261.163 47.49 262.043 45.6736 262.278 44.9677L256.586 43.0703C256.615 42.9845 256.742 42.6235 257.115 42.2509C257.561 41.8047 258.218 41.49 258.961 41.49V47.49ZM262.312 44.8594L274.087 4.51042L268.327 2.82956L256.552 43.1786L262.312 44.8594ZM274.081 4.53203C274.087 4.51095 274.075 4.56077 274.017 4.64722C273.956 4.73879 273.863 4.84322 273.736 4.93369C273.468 5.12524 273.28 5.09999 273.405 5.09999V-0.900009C272.379 -0.900009 271.249 -0.663586 270.248 0.0512924C269.233 0.776711 268.64 1.78759 268.334 2.80795L274.081 4.53203ZM273.405 5.09999H288.477V-0.900009H273.405V5.09999ZM288.477 5.09999C288.461 5.09999 288.305 5.09722 288.083 4.99843C287.843 4.8919 287.635 4.72155 287.49 4.52799L292.29 0.928001C291.293 -0.401165 289.837 -0.900009 288.477 -0.900009V5.09999ZM287.769 4.84932C287.35 4.42999 287.209 3.94928 287.18 3.65451C287.155 3.41 287.206 3.32226 287.163 3.47382L292.932 5.12216C293.219 4.1155 293.533 2.12817 292.011 0.606674L287.769 4.84932ZM287.218 3.29991L265.395 65.1579L271.053 67.1541L292.876 5.29608L287.218 3.29991ZM265.265 65.6628L265.108 66.6048L271.026 67.5912L271.183 66.6492L265.265 65.6628ZM265.067 67.098V109.959H271.067V67.098H265.067ZM265.067 109.959C265.067 109.808 265.1 109.64 265.169 109.486C265.234 109.339 265.305 109.263 265.318 109.251L269.56 113.493C270.461 112.593 271.067 111.385 271.067 109.959H265.067ZM265.318 109.251C265.466 109.103 265.647 108.987 265.836 108.916C266.016 108.849 266.145 108.843 266.183 108.843V114.843C267.349 114.843 268.584 114.47 269.56 113.493L265.318 109.251ZM266.183 108.843H251.739V114.843H266.183V108.843ZM351.02 2.72799L348.898 0.606674V0.606686L351.02 2.72799ZM367.976 2.72799L365.576 4.528L365.833 4.87085L366.176 5.12798L367.976 2.72799ZM367.976 111.529L370.097 113.65V113.65L367.976 111.529ZM348.194 110.43L351.067 109.568L351.047 109.501L351.024 109.435L348.194 110.43ZM324.801 43.862L321.955 44.8107L321.962 44.8337L321.97 44.8566L324.801 43.862ZM324.173 43.548V46.548H324.659L325.121 46.3941L324.173 43.548ZM323.859 44.019H320.859V44.0261L323.859 44.019ZM324.016 110.116H327.016L327.016 110.109L324.016 110.116ZM323.388 111.529L325.509 113.65L323.388 111.529ZM306.432 111.529L304.032 113.329L304.289 113.672L304.632 113.929L306.432 111.529ZM306.432 2.72799L304.31 0.606674V0.606682L306.432 2.72799ZM326.057 3.66999L323.183 4.53204L323.205 4.60506L323.231 4.67687L326.057 3.66999ZM349.607 69.767L352.453 68.8183L352.443 68.7891L352.433 68.7601L349.607 69.767ZM350.078 70.238V73.238H350.564L351.026 73.084L350.078 70.238ZM353.549 3.984C353.549 4.02192 353.543 4.15131 353.475 4.33086C353.405 4.51964 353.289 4.70133 353.141 4.8493L348.898 0.606686C347.922 1.58289 347.549 2.8179 347.549 3.984H353.549ZM353.141 4.84932C353.128 4.86209 353.052 4.93305 352.905 4.99843C352.751 5.06691 352.584 5.09999 352.433 5.09999V-0.900009C351.007 -0.900009 349.799 -0.294056 348.898 0.606674L353.141 4.84932ZM352.433 5.09999H366.72V-0.900009H352.433V5.09999ZM366.72 5.09999C366.571 5.09999 366.339 5.06739 366.084 4.94027C365.83 4.81316 365.665 4.64679 365.576 4.528L370.376 0.92799C369.495 -0.24609 368.187 -0.900009 366.72 -0.900009V5.09999ZM366.176 5.12798C366.057 5.03888 365.89 4.87337 365.763 4.61913C365.636 4.36489 365.604 4.13249 365.604 3.984H371.604C371.604 2.5164 370.95 1.20857 369.776 0.328003L366.176 5.12798ZM365.604 3.984V110.116H371.604V3.984H365.604ZM365.604 110.116C365.604 109.965 365.637 109.797 365.705 109.643C365.771 109.496 365.841 109.42 365.854 109.408L370.097 113.65C370.998 112.75 371.604 111.542 371.604 110.116H365.604ZM365.854 109.408C366.002 109.26 366.184 109.144 366.373 109.073C366.552 109.006 366.682 109 366.72 109V115C367.886 115 369.121 114.627 370.097 113.65L365.854 109.408ZM366.72 109H350.235V115H366.72V109ZM350.235 109C350.224 109 350.477 109.006 350.768 109.23C351.048 109.445 351.093 109.654 351.067 109.568L345.32 111.292C345.608 112.252 346.15 113.247 347.11 113.985C348.082 114.733 349.199 115 350.235 115V109ZM351.024 109.435L327.631 42.8674L321.97 44.8566L345.363 111.425L351.024 109.435ZM327.647 42.9133C327.448 42.3176 326.974 41.3984 325.907 40.8647C324.839 40.3311 323.82 40.5034 323.224 40.7019L325.121 46.3941C324.84 46.488 324.081 46.6603 323.223 46.2313C322.365 45.8023 322.048 45.0924 321.955 44.8107L327.647 42.9133ZM324.173 40.548C323.194 40.548 322.118 40.9865 321.441 42.0016C320.907 42.8021 320.859 43.6234 320.859 44.019H326.859C326.859 44.1006 326.862 44.6864 326.433 45.3298C326.192 45.6914 325.839 46.0294 325.377 46.2607C324.927 46.4858 324.497 46.548 324.173 46.548V40.548ZM320.859 44.0261L321.016 110.123L327.016 110.109L326.859 44.0119L320.859 44.0261ZM321.016 110.116C321.016 109.965 321.049 109.797 321.117 109.643C321.183 109.496 321.253 109.42 321.266 109.408L325.509 113.65C326.41 112.75 327.016 111.542 327.016 110.116H321.016ZM321.266 109.408C321.414 109.26 321.596 109.144 321.785 109.073C321.964 109.006 322.094 109 322.132 109V115C323.298 115 324.533 114.627 325.509 113.65L321.266 109.408ZM322.132 109H307.845V115H322.132V109ZM307.845 109C307.888 109 307.961 109.007 308.048 109.036C308.134 109.065 308.197 109.103 308.232 109.129L304.632 113.929C305.57 114.632 306.672 115 307.845 115V109ZM308.832 109.729C308.858 109.764 308.896 109.826 308.924 109.913C308.953 110 308.961 110.073 308.961 110.116H302.961C302.961 111.288 303.328 112.391 304.032 113.329L308.832 109.729ZM308.961 110.116V3.984H302.961V110.116H308.961ZM308.961 3.984C308.961 4.02192 308.955 4.15131 308.887 4.33086C308.817 4.51965 308.701 4.70133 308.553 4.84931L304.31 0.606682C303.334 1.58289 302.961 2.81789 302.961 3.984H308.961ZM308.553 4.84931C308.54 4.86209 308.464 4.93305 308.317 4.99842C308.163 5.06691 307.996 5.09999 307.845 5.09999V-0.900009C306.418 -0.900009 305.211 -0.294056 304.31 0.606674L308.553 4.84931ZM307.845 5.09999H324.016V-0.900009H307.845V5.09999ZM324.016 5.09999C324.026 5.09999 323.773 5.0944 323.482 4.87037C323.202 4.65547 323.157 4.4458 323.183 4.53204L328.93 2.80795C328.642 1.84752 328.1 0.852848 327.14 0.11462C326.168 -0.632744 325.052 -0.900009 324.016 -0.900009V5.09999ZM323.231 4.67687L346.781 70.7739L352.433 68.7601L328.883 2.66311L323.231 4.67687ZM346.761 70.7157C346.996 71.4216 347.875 73.238 350.078 73.238V67.238C350.821 67.238 351.478 67.5527 351.924 67.9989C352.297 68.3715 352.424 68.7325 352.453 68.8183L346.761 70.7157ZM351.026 73.084C351.609 72.89 352.3 72.5106 352.831 71.8025C353.372 71.081 353.549 70.2826 353.549 69.61H347.549C347.549 69.2514 347.647 68.7146 348.031 68.2025C348.405 67.7037 348.861 67.4814 349.129 67.392L351.026 73.084ZM353.549 69.61V3.984H347.549V69.61H353.549ZM386.633 111.372L389.316 110.03L386.633 111.372ZM386.633 109.802L383.858 108.661L383.819 108.756L383.787 108.853L386.633 109.802ZM408.142 57.521L410.916 58.6624L410.955 58.5673L410.988 58.4697L408.142 57.521ZM408.142 56.579L410.988 55.6303L410.955 55.5327L410.916 55.4376L408.142 56.579ZM386.633 4.29799L389.407 3.15658L389.365 3.05479L389.316 2.95634L386.633 4.29799ZM405.002 3.66999L402.128 4.53203L402.155 4.62078L402.187 4.70771L405.002 3.66999ZM417.562 37.739L420.408 36.7903L420.393 36.7456L420.377 36.7013L417.562 37.739ZM418.504 37.739L415.685 36.7127L415.671 36.7513L415.658 36.7903L418.504 37.739ZM430.907 3.66999L433.726 4.69626L433.755 4.61493L433.78 4.53203L430.907 3.66999ZM449.119 4.29799L451.893 5.4394L451.932 5.34427L451.965 5.24668L449.119 4.29799ZM427.61 56.579L424.835 55.4376L424.796 55.5327L424.764 55.6303L427.61 56.579ZM427.61 57.521L424.764 58.4697L424.796 58.5673L424.835 58.6624L427.61 57.521ZM449.119 109.802L446.344 110.943L446.386 111.045L446.436 111.144L449.119 109.802ZM430.907 110.43L433.78 109.568L433.755 109.483L433.724 109.4L430.907 110.43ZM418.504 76.518L415.658 77.4667L415.671 77.5078L415.686 77.5485L418.504 76.518ZM417.562 76.518L420.375 77.5599L420.392 77.5136L420.408 77.4667L417.562 76.518ZM405.002 110.43L402.189 109.388L402.156 109.477L402.128 109.568L405.002 110.43ZM388.046 109C387.935 109 388.087 108.98 388.361 109.102C388.693 109.249 389.078 109.553 389.316 110.03L383.95 112.714C384.92 114.654 386.881 115 388.046 115V109ZM389.316 110.03C389.443 110.285 389.476 110.517 389.476 110.665C389.476 110.799 389.45 110.836 389.479 110.751L383.787 108.853C383.431 109.92 383.259 111.332 383.95 112.714L389.316 110.03ZM389.407 110.943L410.916 58.6624L405.367 56.3796L383.858 108.661L389.407 110.943ZM410.988 58.4697C411.298 57.5399 411.298 56.5601 410.988 55.6303L405.296 57.5277C405.252 57.3954 405.22 57.2325 405.22 57.05C405.22 56.8675 405.252 56.7046 405.296 56.5723L410.988 58.4697ZM410.916 55.4376L389.407 3.15658L383.858 5.4394L405.367 57.7204L410.916 55.4376ZM389.316 2.95634C389.436 3.19582 389.468 3.37282 389.474 3.4123C389.482 3.45986 389.476 3.44839 389.476 3.356H383.476C383.476 3.92788 383.531 4.80342 383.95 5.63965L389.316 2.95634ZM389.476 3.356C389.476 3.45399 389.461 3.67787 389.343 3.96034C389.218 4.26113 389.011 4.54154 388.742 4.7566C388.246 5.15367 387.843 5.09999 388.046 5.09999V-0.900009C387.202 -0.900009 386.014 -0.74435 384.994 0.0713882C383.847 0.989391 383.476 2.27522 383.476 3.356H389.476ZM388.046 5.09999H402.961V-0.900009H388.046V5.09999ZM402.961 5.09999C402.972 5.09999 402.718 5.0944 402.427 4.87037C402.148 4.65547 402.102 4.44579 402.128 4.53203L407.875 2.80795C407.587 1.84752 407.045 0.852848 406.085 0.11462C405.114 -0.632748 403.997 -0.900009 402.961 -0.900009V5.09999ZM402.187 4.70771L414.747 38.7767L420.377 36.7013L407.817 2.63227L402.187 4.70771ZM414.716 38.6877C414.951 39.3936 415.831 41.21 418.033 41.21V35.21C418.776 35.21 419.433 35.5247 419.879 35.9709C420.252 36.3435 420.379 36.7045 420.408 36.7903L414.716 38.6877ZM418.033 41.21C420.235 41.21 421.115 39.3936 421.35 38.6877L415.658 36.7903C415.686 36.7045 415.814 36.3435 416.186 35.9709C416.632 35.5247 417.29 35.21 418.033 35.21V41.21ZM421.323 38.7653L433.726 4.69626L428.088 2.64372L415.685 36.7127L421.323 38.7653ZM433.78 4.53203C433.806 4.44579 433.761 4.65547 433.482 4.87037C433.19 5.0944 432.937 5.09999 432.948 5.09999V-0.900009C431.912 -0.900009 430.795 -0.632744 429.823 0.11462C428.864 0.852852 428.321 1.84752 428.033 2.80795L433.78 4.53203ZM432.948 5.09999H447.706V-0.900009H432.948V5.09999ZM447.706 5.09999C447.816 5.09999 447.664 5.12021 447.39 4.99843C447.058 4.85101 446.674 4.54671 446.436 4.06963L451.802 1.38635C450.832 -0.553951 448.871 -0.900009 447.706 -0.900009V5.09999ZM446.436 4.06963C446.308 3.8154 446.276 3.58299 446.276 3.43449C446.276 3.30131 446.301 3.26398 446.273 3.3493L451.965 5.24668C452.32 4.17997 452.493 2.76767 451.802 1.38635L446.436 4.06963ZM446.344 3.15658L424.835 55.4376L430.384 57.7204L451.893 5.4394L446.344 3.15658ZM424.764 55.6303C424.454 56.5601 424.454 57.5399 424.764 58.4697L430.456 56.5723C430.5 56.7046 430.531 56.8675 430.531 57.05C430.531 57.2325 430.5 57.3954 430.456 57.5277L424.764 55.6303ZM424.835 58.6624L446.344 110.943L451.893 108.661L430.384 56.3796L424.835 58.6624ZM446.436 111.144C446.316 110.904 446.284 110.727 446.277 110.688C446.269 110.64 446.276 110.652 446.276 110.744H452.276C452.276 110.172 452.22 109.297 451.802 108.46L446.436 111.144ZM446.276 110.744C446.276 110.646 446.291 110.422 446.408 110.14C446.534 109.839 446.74 109.558 447.009 109.343C447.506 108.946 447.909 109 447.706 109V115C448.55 115 449.738 114.844 450.757 114.029C451.905 113.111 452.276 111.825 452.276 110.744H446.276ZM447.706 109H433.105V115H447.706V109ZM433.105 109C432.98 109 433.167 108.975 433.436 109.166C433.562 109.257 433.656 109.361 433.717 109.453C433.775 109.539 433.787 109.589 433.78 109.568L428.033 111.292C428.339 112.312 428.932 113.323 429.948 114.049C430.949 114.764 432.078 115 433.105 115V109ZM433.724 109.4L421.321 75.4875L415.686 77.5485L428.089 111.46L433.724 109.4ZM421.35 75.5693C421.115 74.8634 420.235 73.047 418.033 73.047V79.047C417.29 79.047 416.632 78.7323 416.186 78.2861C415.814 77.9135 415.686 77.5525 415.658 77.4667L421.35 75.5693ZM418.033 73.047C415.831 73.047 414.951 74.8634 414.716 75.5693L420.408 77.4667C420.379 77.5525 420.252 77.9135 419.879 78.2861C419.433 78.7323 418.776 79.047 418.033 79.047V73.047ZM414.749 75.4761L402.189 109.388L407.815 111.472L420.375 77.5599L414.749 75.4761ZM402.128 109.568C402.122 109.589 402.134 109.539 402.192 109.453C402.253 109.361 402.346 109.257 402.473 109.166C402.741 108.975 402.929 109 402.804 109V115C403.83 115 404.96 114.764 405.961 114.049C406.976 113.323 407.569 112.312 407.875 111.292L402.128 109.568ZM402.804 109H388.046V115H402.804V109Z" fill="white" fill-opacity="0.4" mask="url(#path-1-outside-1_1_7)"/>
</svg>
