<svg width="593" height="249" viewBox="0 0 593 249" fill="none" xmlns="http://www.w3.org/2000/svg">
<mask id="path-1-outside-1_1_1175" maskUnits="userSpaceOnUse" x="-1" y="-1" width="595" height="251" fill="black">
<rect fill="white" x="-1" y="-1" width="595" height="251"/>
<path d="M67.72 -6.19888e-06C68.1533 -6.19888e-06 68.5 0.173327 68.76 0.519995C69.1067 0.779997 69.28 1.12666 69.28 1.56V14.3C69.28 14.7333 69.1067 15.1233 68.76 15.47C68.5 15.73 68.1533 15.86 67.72 15.86H44.45C44.0167 15.86 43.8 16.0767 43.8 16.51V89.44C43.8 89.8733 43.6267 90.2633 43.28 90.61C43.02 90.87 42.6733 91 42.24 91H27.03C26.5967 91 26.2067 90.87 25.86 90.61C25.6 90.2633 25.47 89.8733 25.47 89.44V16.51C25.47 16.0767 25.2533 15.86 24.82 15.86H2.2C1.76667 15.86 1.37667 15.73 1.03 15.47C0.77 15.1233 0.64 14.7333 0.64 14.3V1.56C0.64 1.12666 0.77 0.779997 1.03 0.519995C1.37667 0.173327 1.76667 -6.19888e-06 2.2 -6.19888e-06H67.72ZM129.335 1.56C129.335 1.12666 129.465 0.779997 129.725 0.519995C130.072 0.173327 130.462 -6.19888e-06 130.895 -6.19888e-06H146.105C146.538 -6.19888e-06 146.885 0.173327 147.145 0.519995C147.492 0.779997 147.665 1.12666 147.665 1.56V89.44C147.665 89.8733 147.492 90.2633 147.145 90.61C146.885 90.87 146.538 91 146.105 91H130.895C130.462 91 130.072 90.87 129.725 90.61C129.465 90.2633 129.335 89.8733 129.335 89.44V53.56C129.335 53.1267 129.118 52.91 128.685 52.91H99.9549C99.5216 52.91 99.3049 53.1267 99.3049 53.56V89.44C99.3049 89.8733 99.1316 90.2633 98.7849 90.61C98.5249 90.87 98.1783 91 97.7449 91H82.5349C82.1016 91 81.7116 90.87 81.3649 90.61C81.1049 90.2633 80.9749 89.8733 80.9749 89.44V1.56C80.9749 1.12666 81.1049 0.779997 81.3649 0.519995C81.7116 0.173327 82.1016 -6.19888e-06 82.5349 -6.19888e-06H97.7449C98.1783 -6.19888e-06 98.5249 0.173327 98.7849 0.519995C99.1316 0.779997 99.3049 1.12666 99.3049 1.56V36.53C99.3049 36.9633 99.5216 37.18 99.9549 37.18H128.685C129.118 37.18 129.335 36.9633 129.335 36.53V1.56ZM225.786 14.17C225.786 14.6033 225.612 14.9933 225.266 15.34C225.006 15.6 224.659 15.73 224.226 15.73H181.586C181.152 15.73 180.936 15.9467 180.936 16.38V36.53C180.936 36.9633 181.152 37.18 181.586 37.18H209.536C209.969 37.18 210.316 37.3533 210.576 37.7C210.922 37.96 211.096 38.3067 211.096 38.74V51.35C211.096 51.7833 210.922 52.1733 210.576 52.52C210.316 52.78 209.969 52.91 209.536 52.91H181.586C181.152 52.91 180.936 53.1267 180.936 53.56V74.62C180.936 75.0533 181.152 75.27 181.586 75.27H224.226C224.659 75.27 225.006 75.4433 225.266 75.79C225.612 76.05 225.786 76.3967 225.786 76.83V89.44C225.786 89.8733 225.612 90.2633 225.266 90.61C225.006 90.87 224.659 91 224.226 91H164.166C163.732 91 163.342 90.87 162.996 90.61C162.736 90.2633 162.606 89.8733 162.606 89.44V1.56C162.606 1.12666 162.736 0.779997 162.996 0.519995C163.342 0.173327 163.732 -6.19888e-06 164.166 -6.19888e-06H224.226C224.659 -6.19888e-06 225.006 0.173327 225.266 0.519995C225.612 0.779997 225.786 1.12666 225.786 1.56V14.17ZM68.11 170.17C68.11 170.603 67.9367 170.993 67.59 171.34C67.33 171.6 66.9833 171.73 66.55 171.73H23.91C23.4767 171.73 23.26 171.947 23.26 172.38V192.53C23.26 192.963 23.4767 193.18 23.91 193.18H51.86C52.2933 193.18 52.64 193.353 52.9 193.7C53.2467 193.96 53.42 194.307 53.42 194.74V207.35C53.42 207.783 53.2467 208.173 52.9 208.52C52.64 208.78 52.2933 208.91 51.86 208.91H23.91C23.4767 208.91 23.26 209.127 23.26 209.56V230.62C23.26 231.053 23.4767 231.27 23.91 231.27H66.55C66.9833 231.27 67.33 231.443 67.59 231.79C67.9367 232.05 68.11 232.397 68.11 232.83V245.44C68.11 245.873 67.9367 246.263 67.59 246.61C67.33 246.87 66.9833 247 66.55 247H6.49C6.05667 247 5.66667 246.87 5.32 246.61C5.06 246.263 4.93 245.873 4.93 245.44V157.56C4.93 157.127 5.06 156.78 5.32 156.52C5.66667 156.173 6.05667 156 6.49 156H66.55C66.9833 156 67.33 156.173 67.59 156.52C67.9367 156.78 68.11 157.127 68.11 157.56V170.17ZM113.868 248.04C107.195 248.04 101.301 246.74 96.188 244.14C91.1613 241.54 87.218 237.9 84.358 233.22C81.5846 228.453 80.198 222.993 80.198 216.84V157.56C80.198 157.127 80.328 156.78 80.588 156.52C80.9346 156.173 81.3246 156 81.758 156H96.968C97.4013 156 97.748 156.173 98.008 156.52C98.3546 156.78 98.528 157.127 98.528 157.56V216.97C98.528 221.563 99.9146 225.29 102.688 228.15C105.548 230.923 109.275 232.31 113.868 232.31C118.461 232.31 122.145 230.923 124.918 228.15C127.778 225.29 129.208 221.563 129.208 216.97V157.56C129.208 157.127 129.338 156.78 129.598 156.52C129.945 156.173 130.335 156 130.768 156H145.978C146.411 156 146.758 156.173 147.018 156.52C147.365 156.78 147.538 157.127 147.538 157.56V216.84C147.538 222.993 146.108 228.453 143.248 233.22C140.475 237.9 136.531 241.54 131.418 244.14C126.391 246.74 120.541 248.04 113.868 248.04ZM200.176 155.87C205.896 155.87 210.922 157.04 215.256 159.38C219.589 161.72 222.926 165.057 225.266 169.39C227.692 173.637 228.906 178.533 228.906 184.08C228.906 189.54 227.649 194.35 225.136 198.51C222.709 202.67 219.242 205.92 214.736 208.26C210.316 210.513 205.202 211.64 199.396 211.64H180.936C180.502 211.64 180.286 211.857 180.286 212.29V245.44C180.286 245.873 180.112 246.263 179.766 246.61C179.506 246.87 179.159 247 178.726 247H163.516C163.082 247 162.692 246.87 162.346 246.61C162.086 246.263 161.956 245.873 161.956 245.44V157.43C161.956 156.997 162.086 156.65 162.346 156.39C162.692 156.043 163.082 155.87 163.516 155.87H200.176ZM197.446 196.95C201.432 196.95 204.639 195.823 207.066 193.57C209.492 191.23 210.706 188.197 210.706 184.47C210.706 180.657 209.492 177.58 207.066 175.24C204.639 172.9 201.432 171.73 197.446 171.73H180.936C180.502 171.73 180.286 171.947 180.286 172.38V196.3C180.286 196.733 180.502 196.95 180.936 196.95H197.446ZM288.534 157.56C288.534 157.127 288.664 156.78 288.924 156.52C289.271 156.173 289.661 156 290.094 156H305.304C305.737 156 306.084 156.173 306.344 156.52C306.691 156.78 306.864 157.127 306.864 157.56V245.44C306.864 245.873 306.691 246.263 306.344 246.61C306.084 246.87 305.737 247 305.304 247H290.094C289.661 247 289.271 246.87 288.924 246.61C288.664 246.263 288.534 245.873 288.534 245.44V209.56C288.534 209.127 288.317 208.91 287.884 208.91H259.154C258.721 208.91 258.504 209.127 258.504 209.56V245.44C258.504 245.873 258.331 246.263 257.984 246.61C257.724 246.87 257.377 247 256.944 247H241.734C241.301 247 240.911 246.87 240.564 246.61C240.304 246.263 240.174 245.873 240.174 245.44V157.56C240.174 157.127 240.304 156.78 240.564 156.52C240.911 156.173 241.301 156 241.734 156H256.944C257.377 156 257.724 156.173 257.984 156.52C258.331 156.78 258.504 157.127 258.504 157.56V192.53C258.504 192.963 258.721 193.18 259.154 193.18H287.884C288.317 193.18 288.534 192.963 288.534 192.53V157.56ZM354.175 248.43C347.415 248.43 341.435 247.043 336.235 244.27C331.122 241.497 327.135 237.64 324.275 232.7C321.415 227.673 319.985 221.91 319.985 215.41V187.59C319.985 181.177 321.415 175.5 324.275 170.56C327.135 165.62 331.122 161.807 336.235 159.12C341.435 156.347 347.415 154.96 354.175 154.96C361.022 154.96 367.002 156.347 372.115 159.12C377.315 161.807 381.345 165.62 384.205 170.56C387.065 175.5 388.495 181.177 388.495 187.59V215.41C388.495 221.91 387.065 227.673 384.205 232.7C381.345 237.727 377.315 241.627 372.115 244.4C367.002 247.087 361.022 248.43 354.175 248.43ZM354.175 232.7C358.942 232.7 362.798 231.183 365.745 228.15C368.692 225.117 370.165 221.087 370.165 216.06V187.46C370.165 182.433 368.692 178.403 365.745 175.37C362.885 172.25 359.028 170.69 354.175 170.69C349.408 170.69 345.552 172.25 342.605 175.37C339.745 178.403 338.315 182.433 338.315 187.46V216.06C338.315 221.087 339.745 225.117 342.605 228.15C345.552 231.183 349.408 232.7 354.175 232.7ZM452.467 247C451.601 247 450.994 246.61 450.647 245.83L434.397 209.82C434.224 209.473 433.964 209.3 433.617 209.3H421.527C421.094 209.3 420.877 209.517 420.877 209.95V245.44C420.877 245.873 420.704 246.263 420.357 246.61C420.097 246.87 419.751 247 419.317 247H404.107C403.674 247 403.284 246.87 402.937 246.61C402.677 246.263 402.547 245.873 402.547 245.44V157.56C402.547 157.127 402.677 156.78 402.937 156.52C403.284 156.173 403.674 156 404.107 156H441.287C446.834 156 451.687 157.127 455.847 159.38C460.094 161.633 463.344 164.84 465.597 169C467.937 173.16 469.107 177.97 469.107 183.43C469.107 189.323 467.634 194.393 464.687 198.64C461.741 202.8 457.624 205.747 452.337 207.48C451.904 207.653 451.774 207.957 451.947 208.39L469.627 245.18C469.801 245.527 469.887 245.787 469.887 245.96C469.887 246.653 469.411 247 468.457 247H452.467ZM421.527 171.73C421.094 171.73 420.877 171.947 420.877 172.38V194.61C420.877 195.043 421.094 195.26 421.527 195.26H438.557C442.197 195.26 445.144 194.177 447.397 192.01C449.737 189.843 450.907 187.027 450.907 183.56C450.907 180.093 449.737 177.277 447.397 175.11C445.144 172.857 442.197 171.73 438.557 171.73H421.527ZM483.961 247C483.527 247 483.137 246.87 482.791 246.61C482.531 246.263 482.401 245.873 482.401 245.44V157.56C482.401 157.127 482.531 156.78 482.791 156.52C483.137 156.173 483.527 156 483.961 156H499.171C499.604 156 499.951 156.173 500.211 156.52C500.557 156.78 500.731 157.127 500.731 157.56V245.44C500.731 245.873 500.557 246.263 500.211 246.61C499.951 246.87 499.604 247 499.171 247H483.961ZM574.401 247C573.534 247 572.971 246.567 572.711 245.7L568.811 232.96C568.638 232.613 568.421 232.44 568.161 232.44H536.181C535.921 232.44 535.704 232.613 535.531 232.96L531.761 245.7C531.501 246.567 530.938 247 530.071 247H513.561C513.041 247 512.651 246.87 512.391 246.61C512.131 246.263 512.088 245.787 512.261 245.18L540.341 157.3C540.601 156.433 541.164 156 542.031 156H562.441C563.308 156 563.871 156.433 564.131 157.3L592.211 245.18C592.298 245.353 592.341 245.57 592.341 245.83C592.341 246.61 591.864 247 590.911 247H574.401ZM540.211 217.49C540.124 218.01 540.298 218.27 540.731 218.27H563.611C564.131 218.27 564.304 218.01 564.131 217.49L552.431 178.88C552.344 178.533 552.214 178.403 552.041 178.49C551.868 178.49 551.738 178.62 551.651 178.88L540.211 217.49Z"/>
</mask>
<path d="M68.76 0.519997L67.96 1.12L68.0457 1.23428L68.16 1.31999L68.76 0.519997ZM43.28 90.61L42.5729 89.9029H42.5729L43.28 90.61ZM25.86 90.61L25.06 91.21L25.1457 91.3243L25.26 91.41L25.86 90.61ZM1.03 15.47L0.23 16.07L0.315713 16.1843L0.429997 16.27L1.03 15.47ZM1.03 0.519997L0.322893 -0.187111H0.322891L1.03 0.519997ZM67.72 0.999992C67.8386 0.999992 67.8889 1.02513 67.96 1.12L69.56 -0.0800056C69.1112 -0.678478 68.4681 -1.00001 67.72 -1.00001V0.999992ZM68.16 1.31999C68.2549 1.39114 68.28 1.44142 68.28 1.56H70.28C70.28 0.811905 69.9585 0.16885 69.36 -0.280003L68.16 1.31999ZM68.28 1.56V14.3H70.28V1.56H68.28ZM68.28 14.3C68.28 14.4324 68.2389 14.5769 68.0529 14.7629L69.4671 16.1771C69.9745 15.6697 70.28 15.0342 70.28 14.3H68.28ZM68.0529 14.7629C68.0136 14.8022 67.9391 14.86 67.72 14.86V16.86C68.3676 16.86 68.9864 16.6578 69.4671 16.1771L68.0529 14.7629ZM67.72 14.86H44.45V16.86H67.72V14.86ZM44.45 14.86C44.0792 14.86 43.6174 14.9534 43.2554 15.3154C42.8934 15.6774 42.8 16.1392 42.8 16.51H44.8C44.8 16.4475 44.815 16.5843 44.6696 16.7296C44.5243 16.875 44.3875 16.86 44.45 16.86V14.86ZM42.8 16.51V89.44H44.8V16.51H42.8ZM42.8 89.44C42.8 89.5724 42.7589 89.7169 42.5729 89.9029L43.9871 91.3171C44.4945 90.8098 44.8 90.1743 44.8 89.44H42.8ZM42.5729 89.9029C42.5336 89.9422 42.4591 90 42.24 90V92C42.8876 92 43.5064 91.7978 43.9871 91.3171L42.5729 89.9029ZM42.24 90H27.03V92H42.24V90ZM27.03 90C26.813 90 26.6336 89.9402 26.46 89.81L25.26 91.41C25.7798 91.7998 26.3803 92 27.03 92V90ZM26.66 90.01C26.5298 89.8364 26.47 89.657 26.47 89.44H24.47C24.47 90.0897 24.6702 90.6902 25.06 91.21L26.66 90.01ZM26.47 89.44V16.51H24.47V89.44H26.47ZM26.47 16.51C26.47 16.1392 26.3766 15.6774 26.0146 15.3154C25.6526 14.9534 25.1908 14.86 24.82 14.86V16.86C24.8825 16.86 24.7457 16.875 24.6004 16.7296C24.455 16.5843 24.47 16.4475 24.47 16.51H26.47ZM24.82 14.86H2.2V16.86H24.82V14.86ZM2.2 14.86C1.98304 14.86 1.80357 14.8002 1.63 14.67L0.429997 16.27C0.94976 16.6598 1.55029 16.86 2.2 16.86V14.86ZM1.83 14.87C1.69982 14.6964 1.64 14.517 1.64 14.3H-0.36C-0.36 14.9497 -0.159822 15.5502 0.23 16.07L1.83 14.87ZM1.64 14.3V1.56H-0.36V14.3H1.64ZM1.64 1.56C1.64 1.34092 1.69784 1.26637 1.73711 1.2271L0.322891 -0.187111C-0.157842 0.293625 -0.36 0.912407 -0.36 1.56H1.64ZM1.73711 1.2271C1.92309 1.04112 2.06758 0.999992 2.2 0.999992V-1.00001C1.46575 -1.00001 0.830248 -0.694466 0.322893 -0.187111L1.73711 1.2271ZM2.2 0.999992H67.72V-1.00001H2.2V0.999992ZM129.725 0.519997L129.018 -0.187111L129.018 -0.187107L129.725 0.519997ZM147.145 0.519997L146.345 1.12L146.431 1.23428L146.545 1.31999L147.145 0.519997ZM147.145 90.61L147.852 91.3171L147.145 90.61ZM129.725 90.61L128.925 91.21L129.011 91.3243L129.125 91.41L129.725 90.61ZM98.7849 90.61L99.492 91.3171L98.7849 90.61ZM81.3649 90.61L80.5649 91.21L80.6506 91.3243L80.7649 91.41L81.3649 90.61ZM81.3649 0.519997L80.6578 -0.187111L81.3649 0.519997ZM98.7849 0.519997L97.9849 1.12L98.0706 1.23428L98.1849 1.31999L98.7849 0.519997ZM130.335 1.56C130.335 1.34092 130.393 1.26637 130.432 1.2271L129.018 -0.187107C128.537 0.293629 128.335 0.912411 128.335 1.56H130.335ZM130.432 1.2271C130.618 1.04112 130.763 0.999992 130.895 0.999992V-1.00001C130.161 -1.00001 129.525 -0.694466 129.018 -0.187111L130.432 1.2271ZM130.895 0.999992H146.105V-1.00001H130.895V0.999992ZM146.105 0.999992C146.223 0.999992 146.274 1.02513 146.345 1.12L147.945 -0.0800056C147.496 -0.678478 146.853 -1.00001 146.105 -1.00001V0.999992ZM146.545 1.31999C146.64 1.39114 146.665 1.44142 146.665 1.56H148.665C148.665 0.811913 148.343 0.168858 147.745 -0.279999L146.545 1.31999ZM146.665 1.56V89.44H148.665V1.56H146.665ZM146.665 89.44C146.665 89.5724 146.624 89.7169 146.438 89.9029L147.852 91.3171C148.359 90.8098 148.665 90.1742 148.665 89.44H146.665ZM146.438 89.9029C146.399 89.9422 146.324 90 146.105 90V92C146.753 92 147.371 91.7978 147.852 91.3171L146.438 89.9029ZM146.105 90H130.895V92H146.105V90ZM130.895 90C130.678 90 130.498 89.9402 130.325 89.81L129.125 91.41C129.645 91.7998 130.245 92 130.895 92V90ZM130.525 90.01C130.395 89.8364 130.335 89.657 130.335 89.44H128.335C128.335 90.0897 128.535 90.6902 128.925 91.21L130.525 90.01ZM130.335 89.44V53.56H128.335V89.44H130.335ZM130.335 53.56C130.335 53.1892 130.242 52.7274 129.88 52.3654C129.518 52.0034 129.056 51.91 128.685 51.91V53.91C128.747 53.91 128.611 53.9249 128.465 53.7796C128.32 53.6343 128.335 53.4975 128.335 53.56H130.335ZM128.685 51.91H99.9549V53.91H128.685V51.91ZM99.9549 51.91C99.5841 51.91 99.1223 52.0034 98.7603 52.3654C98.3983 52.7274 98.3049 53.1892 98.3049 53.56H100.305C100.305 53.4975 100.32 53.6343 100.175 53.7796C100.029 53.9249 99.8924 53.91 99.9549 53.91V51.91ZM98.3049 53.56V89.44H100.305V53.56H98.3049ZM98.3049 89.44C98.3049 89.5724 98.2638 89.7169 98.0778 89.9029L99.492 91.3171C99.9994 90.8098 100.305 90.1743 100.305 89.44H98.3049ZM98.0778 89.9029C98.0386 89.9422 97.964 90 97.7449 90V92C98.3925 92 99.0113 91.7978 99.492 91.3171L98.0778 89.9029ZM97.7449 90H82.5349V92H97.7449V90ZM82.5349 90C82.318 90 82.1385 89.9402 81.9649 89.81L80.7649 91.41C81.2847 91.7998 81.8852 92 82.5349 92V90ZM82.1649 90.01C82.0347 89.8364 81.9749 89.657 81.9749 89.44H79.9749C79.9749 90.0897 80.1751 90.6902 80.5649 91.21L82.1649 90.01ZM81.9749 89.44V1.56H79.9749V89.44H81.9749ZM81.9749 1.56C81.9749 1.34092 82.0328 1.26637 82.072 1.2271L80.6578 -0.187111C80.1771 0.293629 79.9749 0.912407 79.9749 1.56H81.9749ZM82.072 1.2271C82.258 1.04112 82.4025 0.999992 82.5349 0.999992V-1.00001C81.8007 -1.00001 81.1652 -0.694466 80.6578 -0.187111L82.072 1.2271ZM82.5349 0.999992H97.7449V-1.00001H82.5349V0.999992ZM97.7449 0.999992C97.8635 0.999992 97.9138 1.02513 97.9849 1.12L99.5849 -0.0800056C99.1361 -0.678478 98.493 -1.00001 97.7449 -1.00001V0.999992ZM98.1849 1.31999C98.2798 1.39114 98.3049 1.44142 98.3049 1.56H100.305C100.305 0.811909 99.9834 0.168854 99.3849 -0.280003L98.1849 1.31999ZM98.3049 1.56V36.53H100.305V1.56H98.3049ZM98.3049 36.53C98.3049 36.9008 98.3983 37.3626 98.7603 37.7246C99.1223 38.0866 99.5841 38.18 99.9549 38.18V36.18C99.8924 36.18 100.029 36.165 100.175 36.3104C100.32 36.4557 100.305 36.5925 100.305 36.53H98.3049ZM99.9549 38.18H128.685V36.18H99.9549V38.18ZM128.685 38.18C129.056 38.18 129.518 38.0866 129.88 37.7246C130.242 37.3626 130.335 36.9008 130.335 36.53H128.335C128.335 36.5925 128.32 36.4557 128.465 36.3104C128.611 36.165 128.747 36.18 128.685 36.18V38.18ZM130.335 36.53V1.56H128.335V36.53H130.335ZM225.266 15.34L225.973 16.0471L225.973 16.0471L225.266 15.34ZM210.576 37.7L209.776 38.3L209.861 38.4143L209.976 38.5L210.576 37.7ZM225.266 75.79L224.466 76.39L224.551 76.5043L224.666 76.59L225.266 75.79ZM225.266 90.61L225.973 91.3171H225.973L225.266 90.61ZM162.996 90.61L162.196 91.21L162.281 91.3243L162.396 91.41L162.996 90.61ZM162.996 0.519997L162.289 -0.187111H162.289L162.996 0.519997ZM225.266 0.519997L224.466 1.12L224.551 1.23428L224.666 1.31999L225.266 0.519997ZM224.786 14.17C224.786 14.3024 224.745 14.4469 224.559 14.6329L225.973 16.0471C226.48 15.5397 226.786 14.9042 226.786 14.17H224.786ZM224.559 14.6329C224.519 14.6721 224.445 14.73 224.226 14.73V16.73C224.873 16.73 225.492 16.5278 225.973 16.0471L224.559 14.6329ZM224.226 14.73H181.586V16.73H224.226V14.73ZM181.586 14.73C181.215 14.73 180.753 14.8234 180.391 15.1854C180.029 15.5474 179.936 16.0092 179.936 16.38H181.936C181.936 16.3175 181.951 16.4543 181.805 16.5996C181.66 16.7449 181.523 16.73 181.586 16.73V14.73ZM179.936 16.38V36.53H181.936V16.38H179.936ZM179.936 36.53C179.936 36.9008 180.029 37.3626 180.391 37.7246C180.753 38.0866 181.215 38.18 181.586 38.18V36.18C181.523 36.18 181.66 36.165 181.805 36.3104C181.951 36.4557 181.936 36.5925 181.936 36.53H179.936ZM181.586 38.18H209.536V36.18H181.586V38.18ZM209.536 38.18C209.654 38.18 209.705 38.2051 209.776 38.3L211.376 37.1C210.927 36.5015 210.284 36.18 209.536 36.18V38.18ZM209.976 38.5C210.071 38.5711 210.096 38.6214 210.096 38.74H212.096C212.096 37.9919 211.774 37.3489 211.176 36.9L209.976 38.5ZM210.096 38.74V51.35H212.096V38.74H210.096ZM210.096 51.35C210.096 51.4824 210.055 51.6269 209.869 51.8129L211.283 53.2271C211.79 52.7197 212.096 52.0843 212.096 51.35H210.096ZM209.869 51.8129C209.829 51.8522 209.755 51.91 209.536 51.91V53.91C210.183 53.91 210.802 53.7078 211.283 53.2271L209.869 51.8129ZM209.536 51.91H181.586V53.91H209.536V51.91ZM181.586 51.91C181.215 51.91 180.753 52.0034 180.391 52.3654C180.029 52.7274 179.936 53.1892 179.936 53.56H181.936C181.936 53.4975 181.951 53.6343 181.805 53.7796C181.66 53.9249 181.523 53.91 181.586 53.91V51.91ZM179.936 53.56V74.62H181.936V53.56H179.936ZM179.936 74.62C179.936 74.9908 180.029 75.4526 180.391 75.8146C180.753 76.1766 181.215 76.27 181.586 76.27V74.27C181.523 74.27 181.66 74.255 181.805 74.4004C181.951 74.5457 181.936 74.6825 181.936 74.62H179.936ZM181.586 76.27H224.226V74.27H181.586V76.27ZM224.226 76.27C224.344 76.27 224.395 76.2951 224.466 76.39L226.066 75.19C225.617 74.5915 224.974 74.27 224.226 74.27V76.27ZM224.666 76.59C224.761 76.6611 224.786 76.7114 224.786 76.83H226.786C226.786 76.0819 226.464 75.4389 225.866 74.99L224.666 76.59ZM224.786 76.83V89.44H226.786V76.83H224.786ZM224.786 89.44C224.786 89.5724 224.745 89.7169 224.559 89.9029L225.973 91.3171C226.48 90.8098 226.786 90.1743 226.786 89.44H224.786ZM224.559 89.9029C224.519 89.9422 224.445 90 224.226 90V92C224.873 92 225.492 91.7978 225.973 91.3171L224.559 89.9029ZM224.226 90H164.166V92H224.226V90ZM164.166 90C163.949 90 163.769 89.9402 163.596 89.81L162.396 91.41C162.916 91.7998 163.516 92 164.166 92V90ZM163.796 90.01C163.666 89.8364 163.606 89.657 163.606 89.44H161.606C161.606 90.0897 161.806 90.6902 162.196 91.21L163.796 90.01ZM163.606 89.44V1.56H161.606V89.44H163.606ZM163.606 1.56C163.606 1.34092 163.664 1.26637 163.703 1.2271L162.289 -0.187111C161.808 0.293629 161.606 0.912407 161.606 1.56H163.606ZM163.703 1.2271C163.889 1.04112 164.033 0.999992 164.166 0.999992V-1.00001C163.432 -1.00001 162.796 -0.694466 162.289 -0.187111L163.703 1.2271ZM164.166 0.999992H224.226V-1.00001H164.166V0.999992ZM224.226 0.999992C224.344 0.999992 224.395 1.02513 224.466 1.12L226.066 -0.0800056C225.617 -0.678478 224.974 -1.00001 224.226 -1.00001V0.999992ZM224.666 1.31999C224.761 1.39114 224.786 1.44142 224.786 1.56H226.786C226.786 0.811905 226.464 0.16885 225.866 -0.280003L224.666 1.31999ZM224.786 1.56V14.17H226.786V1.56H224.786ZM67.59 171.34L68.2971 172.047L68.2971 172.047L67.59 171.34ZM52.9 193.7L52.1 194.3L52.1857 194.414L52.3 194.5L52.9 193.7ZM67.59 231.79L66.79 232.39L66.8757 232.504L66.99 232.59L67.59 231.79ZM67.59 246.61L68.2971 247.317L67.59 246.61ZM5.32 246.61L4.52 247.21L4.60571 247.324L4.72 247.41L5.32 246.61ZM5.32 156.52L4.61289 155.813L4.61289 155.813L5.32 156.52ZM67.59 156.52L66.79 157.12L66.8757 157.234L66.99 157.32L67.59 156.52ZM67.11 170.17C67.11 170.302 67.0689 170.447 66.8829 170.633L68.2971 172.047C68.8045 171.54 69.11 170.904 69.11 170.17H67.11ZM66.8829 170.633C66.8436 170.672 66.7691 170.73 66.55 170.73V172.73C67.1976 172.73 67.8164 172.528 68.2971 172.047L66.8829 170.633ZM66.55 170.73H23.91V172.73H66.55V170.73ZM23.91 170.73C23.5392 170.73 23.0774 170.823 22.7154 171.185C22.3534 171.547 22.26 172.009 22.26 172.38H24.26C24.26 172.317 24.275 172.454 24.1296 172.6C23.9843 172.745 23.8475 172.73 23.91 172.73V170.73ZM22.26 172.38V192.53H24.26V172.38H22.26ZM22.26 192.53C22.26 192.901 22.3534 193.363 22.7154 193.725C23.0774 194.087 23.5392 194.18 23.91 194.18V192.18C23.8475 192.18 23.9843 192.165 24.1296 192.31C24.275 192.456 24.26 192.593 24.26 192.53H22.26ZM23.91 194.18H51.86V192.18H23.91V194.18ZM51.86 194.18C51.9786 194.18 52.0289 194.205 52.1 194.3L53.7 193.1C53.2511 192.502 52.6081 192.18 51.86 192.18V194.18ZM52.3 194.5C52.3949 194.571 52.42 194.621 52.42 194.74H54.42C54.42 193.992 54.0985 193.349 53.5 192.9L52.3 194.5ZM52.42 194.74V207.35H54.42V194.74H52.42ZM52.42 207.35C52.42 207.482 52.3789 207.627 52.1929 207.813L53.6071 209.227C54.1145 208.72 54.42 208.084 54.42 207.35H52.42ZM52.1929 207.813C52.1536 207.852 52.0791 207.91 51.86 207.91V209.91C52.5076 209.91 53.1264 209.708 53.6071 209.227L52.1929 207.813ZM51.86 207.91H23.91V209.91H51.86V207.91ZM23.91 207.91C23.5392 207.91 23.0774 208.003 22.7154 208.365C22.3534 208.727 22.26 209.189 22.26 209.56H24.26C24.26 209.497 24.275 209.634 24.1296 209.78C23.9843 209.925 23.8475 209.91 23.91 209.91V207.91ZM22.26 209.56V230.62H24.26V209.56H22.26ZM22.26 230.62C22.26 230.991 22.3534 231.453 22.7154 231.815C23.0774 232.177 23.5392 232.27 23.91 232.27V230.27C23.8475 230.27 23.9843 230.255 24.1296 230.4C24.275 230.546 24.26 230.683 24.26 230.62H22.26ZM23.91 232.27H66.55V230.27H23.91V232.27ZM66.55 232.27C66.6686 232.27 66.7189 232.295 66.79 232.39L68.39 231.19C67.9411 230.592 67.2981 230.27 66.55 230.27V232.27ZM66.99 232.59C67.0849 232.661 67.11 232.711 67.11 232.83H69.11C69.11 232.082 68.7885 231.439 68.19 230.99L66.99 232.59ZM67.11 232.83V245.44H69.11V232.83H67.11ZM67.11 245.44C67.11 245.572 67.0689 245.717 66.8829 245.903L68.2971 247.317C68.8045 246.81 69.11 246.174 69.11 245.44H67.11ZM66.8829 245.903C66.8436 245.942 66.7691 246 66.55 246V248C67.1976 248 67.8164 247.798 68.2971 247.317L66.8829 245.903ZM66.55 246H6.49V248H66.55V246ZM6.49 246C6.27304 246 6.09357 245.94 5.92 245.81L4.72 247.41C5.23976 247.8 5.8403 248 6.49 248V246ZM6.12 246.01C5.98982 245.836 5.93 245.657 5.93 245.44H3.93C3.93 246.09 4.13018 246.69 4.52 247.21L6.12 246.01ZM5.93 245.44V157.56H3.93V245.44H5.93ZM5.93 157.56C5.93 157.341 5.98784 157.266 6.02711 157.227L4.61289 155.813C4.13216 156.294 3.93 156.912 3.93 157.56H5.93ZM6.02711 157.227C6.21309 157.041 6.35758 157 6.49 157V155C5.75575 155 5.12025 155.306 4.61289 155.813L6.02711 157.227ZM6.49 157H66.55V155H6.49V157ZM66.55 157C66.6686 157 66.7189 157.025 66.79 157.12L68.39 155.92C67.9411 155.322 67.2981 155 66.55 155V157ZM66.99 157.32C67.0849 157.391 67.11 157.441 67.11 157.56H69.11C69.11 156.812 68.7885 156.169 68.19 155.72L66.99 157.32ZM67.11 157.56V170.17H69.11V157.56H67.11ZM96.188 244.14L95.7285 245.028L95.7347 245.031L96.188 244.14ZM84.358 233.22L83.4936 233.723L83.4991 233.732L83.5047 233.741L84.358 233.22ZM80.588 156.52L79.8809 155.813V155.813L80.588 156.52ZM98.008 156.52L97.208 157.12L97.2937 157.234L97.408 157.32L98.008 156.52ZM102.688 228.15L101.97 228.846L101.981 228.857L101.992 228.868L102.688 228.15ZM124.918 228.15L124.211 227.443L124.918 228.15ZM129.598 156.52L128.891 155.813L128.891 155.813L129.598 156.52ZM147.018 156.52L146.218 157.12L146.304 157.234L146.418 157.32L147.018 156.52ZM143.248 233.22L142.39 232.706L142.388 232.71L143.248 233.22ZM131.418 244.14L130.965 243.249L130.959 243.252L131.418 244.14ZM113.868 247.04C107.326 247.04 101.593 245.766 96.6412 243.249L95.7347 245.031C101.01 247.714 107.063 249.04 113.868 249.04V247.04ZM96.6474 243.252C91.7776 240.733 87.9728 237.217 85.2113 232.699L83.5047 233.741C86.4631 238.583 90.545 242.347 95.7285 245.028L96.6474 243.252ZM85.2223 232.717C82.5478 228.12 81.198 222.838 81.198 216.84H79.198C79.198 223.149 80.6215 228.786 83.4936 233.723L85.2223 232.717ZM81.198 216.84V157.56H79.198V216.84H81.198ZM81.198 157.56C81.198 157.341 81.2558 157.266 81.2951 157.227L79.8809 155.813C79.4001 156.294 79.198 156.912 79.198 157.56H81.198ZM81.2951 157.227C81.4811 157.041 81.6255 157 81.758 157V155C81.0237 155 80.3882 155.306 79.8809 155.813L81.2951 157.227ZM81.758 157H96.968V155H81.758V157ZM96.968 157C97.0865 157 97.1368 157.025 97.208 157.12L98.808 155.92C98.3591 155.322 97.7161 155 96.968 155V157ZM97.408 157.32C97.5028 157.391 97.528 157.441 97.528 157.56H99.528C99.528 156.812 99.2064 156.169 98.608 155.72L97.408 157.32ZM97.528 157.56V216.97H99.528V157.56H97.528ZM97.528 216.97C97.528 221.78 98.988 225.771 101.97 228.846L103.406 227.454C100.841 224.809 99.528 221.346 99.528 216.97H97.528ZM101.992 228.868C105.067 231.85 109.058 233.31 113.868 233.31V231.31C109.492 231.31 106.029 229.997 103.384 227.432L101.992 228.868ZM113.868 233.31C118.678 233.31 122.632 231.85 125.625 228.857L124.211 227.443C121.657 229.997 118.245 231.31 113.868 231.31V233.31ZM125.625 228.857C128.699 225.784 130.208 221.789 130.208 216.97H128.208C128.208 221.337 126.857 224.796 124.211 227.443L125.625 228.857ZM130.208 216.97V157.56H128.208V216.97H130.208ZM130.208 157.56C130.208 157.341 130.266 157.266 130.305 157.227L128.891 155.813C128.41 156.294 128.208 156.912 128.208 157.56H130.208ZM130.305 157.227C130.491 157.041 130.636 157 130.768 157V155C130.034 155 129.398 155.306 128.891 155.813L130.305 157.227ZM130.768 157H145.978V155H130.768V157ZM145.978 157C146.097 157 146.147 157.025 146.218 157.12L147.818 155.92C147.369 155.322 146.726 155 145.978 155V157ZM146.418 157.32C146.513 157.391 146.538 157.441 146.538 157.56H148.538C148.538 156.812 148.216 156.169 147.618 155.72L146.418 157.32ZM146.538 157.56V216.84H148.538V157.56H146.538ZM146.538 216.84C146.538 222.832 145.147 228.111 142.39 232.706L144.105 233.734C147.068 228.796 148.538 223.155 148.538 216.84H146.538ZM142.388 232.71C139.716 237.218 135.919 240.73 130.965 243.249L131.871 245.031C137.144 242.35 141.233 238.582 144.108 233.73L142.388 232.71ZM130.959 243.252C126.097 245.766 120.41 247.04 113.868 247.04V249.04C120.673 249.04 126.685 247.714 131.877 245.028L130.959 243.252ZM225.266 169.39L224.386 169.865L224.392 169.876L224.398 169.886L225.266 169.39ZM225.136 198.51L224.28 197.993L224.276 197.999L224.272 198.006L225.136 198.51ZM214.736 208.26L215.19 209.151L215.197 209.147L214.736 208.26ZM179.766 246.61L179.059 245.903L179.766 246.61ZM162.346 246.61L161.546 247.21L161.632 247.324L161.746 247.41L162.346 246.61ZM162.346 156.39L161.639 155.683L162.346 156.39ZM207.066 193.57L207.746 194.303L207.753 194.296L207.76 194.29L207.066 193.57ZM200.176 156.87C205.757 156.87 210.615 158.011 214.781 160.26L215.731 158.5C211.23 156.069 206.035 154.87 200.176 154.87V156.87ZM214.781 160.26C218.942 162.507 222.138 165.703 224.386 169.865L226.146 168.915C223.713 164.41 220.236 160.933 215.731 158.5L214.781 160.26ZM224.398 169.886C226.727 173.962 227.906 178.684 227.906 184.08H229.906C229.906 178.383 228.658 173.311 226.134 168.894L224.398 169.886ZM227.906 184.08C227.906 189.381 226.688 194.008 224.28 197.993L225.992 199.027C228.611 194.692 229.906 189.699 229.906 184.08H227.906ZM224.272 198.006C221.946 201.994 218.623 205.115 214.275 207.372L215.197 209.147C219.862 206.725 223.472 203.346 226 199.014L224.272 198.006ZM214.282 207.369C210.024 209.539 205.071 210.64 199.396 210.64V212.64C205.333 212.64 210.607 211.487 215.19 209.151L214.282 207.369ZM199.396 210.64H180.936V212.64H199.396V210.64ZM180.936 210.64C180.565 210.64 180.103 210.733 179.741 211.095C179.379 211.457 179.286 211.919 179.286 212.29H181.286C181.286 212.227 181.301 212.364 181.155 212.51C181.01 212.655 180.873 212.64 180.936 212.64V210.64ZM179.286 212.29V245.44H181.286V212.29H179.286ZM179.286 245.44C179.286 245.572 179.245 245.717 179.059 245.903L180.473 247.317C180.98 246.81 181.286 246.174 181.286 245.44H179.286ZM179.059 245.903C179.019 245.942 178.945 246 178.726 246V248C179.373 248 179.992 247.798 180.473 247.317L179.059 245.903ZM178.726 246H163.516V248H178.726V246ZM163.516 246C163.299 246 163.119 245.94 162.946 245.81L161.746 247.41C162.266 247.8 162.866 248 163.516 248V246ZM163.146 246.01C163.016 245.836 162.956 245.657 162.956 245.44H160.956C160.956 246.09 161.156 246.69 161.546 247.21L163.146 246.01ZM162.956 245.44V157.43H160.956V245.44H162.956ZM162.956 157.43C162.956 157.211 163.014 157.136 163.053 157.097L161.639 155.683C161.158 156.164 160.956 156.782 160.956 157.43H162.956ZM163.053 157.097C163.239 156.911 163.383 156.87 163.516 156.87V154.87C162.782 154.87 162.146 155.176 161.639 155.683L163.053 157.097ZM163.516 156.87H200.176V154.87H163.516V156.87ZM197.446 197.95C201.63 197.95 205.098 196.762 207.746 194.303L206.385 192.837C204.18 194.885 201.234 195.95 197.446 195.95V197.95ZM207.76 194.29C210.404 191.741 211.706 188.437 211.706 184.47H209.706C209.706 187.957 208.581 190.719 206.372 192.85L207.76 194.29ZM211.706 184.47C211.706 180.424 210.408 177.074 207.76 174.52L206.372 175.96C208.576 178.086 209.706 180.889 209.706 184.47H211.706ZM207.76 174.52C205.113 171.968 201.641 170.73 197.446 170.73V172.73C201.224 172.73 204.165 173.832 206.372 175.96L207.76 174.52ZM197.446 170.73H180.936V172.73H197.446V170.73ZM180.936 170.73C180.565 170.73 180.103 170.823 179.741 171.185C179.379 171.547 179.286 172.009 179.286 172.38H181.286C181.286 172.317 181.301 172.454 181.155 172.6C181.01 172.745 180.873 172.73 180.936 172.73V170.73ZM179.286 172.38V196.3H181.286V172.38H179.286ZM179.286 196.3C179.286 196.671 179.379 197.133 179.741 197.495C180.103 197.857 180.565 197.95 180.936 197.95V195.95C180.873 195.95 181.01 195.935 181.155 196.08C181.301 196.226 181.286 196.363 181.286 196.3H179.286ZM180.936 197.95H197.446V195.95H180.936V197.95ZM288.924 156.52L288.217 155.813V155.813L288.924 156.52ZM306.344 156.52L305.544 157.12L305.63 157.234L305.744 157.32L306.344 156.52ZM306.344 246.61L307.051 247.317H307.051L306.344 246.61ZM288.924 246.61L288.124 247.21L288.21 247.324L288.324 247.41L288.924 246.61ZM257.984 246.61L258.691 247.317L257.984 246.61ZM240.564 246.61L239.764 247.21L239.85 247.324L239.964 247.41L240.564 246.61ZM240.564 156.52L239.857 155.813L239.857 155.813L240.564 156.52ZM257.984 156.52L257.184 157.12L257.27 157.234L257.384 157.32L257.984 156.52ZM289.534 157.56C289.534 157.341 289.592 157.266 289.631 157.227L288.217 155.813C287.736 156.294 287.534 156.912 287.534 157.56H289.534ZM289.631 157.227C289.817 157.041 289.962 157 290.094 157V155C289.36 155 288.724 155.306 288.217 155.813L289.631 157.227ZM290.094 157H305.304V155H290.094V157ZM305.304 157C305.423 157 305.473 157.025 305.544 157.12L307.144 155.92C306.695 155.322 306.052 155 305.304 155V157ZM305.744 157.32C305.839 157.391 305.864 157.441 305.864 157.56H307.864C307.864 156.812 307.543 156.169 306.944 155.72L305.744 157.32ZM305.864 157.56V245.44H307.864V157.56H305.864ZM305.864 245.44C305.864 245.572 305.823 245.717 305.637 245.903L307.051 247.317C307.559 246.81 307.864 246.174 307.864 245.44H305.864ZM305.637 245.903C305.598 245.942 305.523 246 305.304 246V248C305.952 248 306.571 247.798 307.051 247.317L305.637 245.903ZM305.304 246H290.094V248H305.304V246ZM290.094 246C289.877 246 289.698 245.94 289.524 245.81L288.324 247.41C288.844 247.8 289.444 248 290.094 248V246ZM289.724 246.01C289.594 245.836 289.534 245.657 289.534 245.44H287.534C287.534 246.09 287.734 246.69 288.124 247.21L289.724 246.01ZM289.534 245.44V209.56H287.534V245.44H289.534ZM289.534 209.56C289.534 209.189 289.441 208.727 289.079 208.365C288.717 208.003 288.255 207.91 287.884 207.91V209.91C287.947 209.91 287.81 209.925 287.665 209.78C287.519 209.634 287.534 209.497 287.534 209.56H289.534ZM287.884 207.91H259.154V209.91H287.884V207.91ZM259.154 207.91C258.783 207.91 258.322 208.003 257.96 208.365C257.598 208.727 257.504 209.189 257.504 209.56H259.504C259.504 209.497 259.519 209.634 259.374 209.78C259.228 209.925 259.092 209.91 259.154 209.91V207.91ZM257.504 209.56V245.44H259.504V209.56H257.504ZM257.504 245.44C257.504 245.572 257.463 245.717 257.277 245.903L258.691 247.317C259.199 246.81 259.504 246.174 259.504 245.44H257.504ZM257.277 245.903C257.238 245.942 257.163 246 256.944 246V248C257.592 248 258.211 247.798 258.691 247.317L257.277 245.903ZM256.944 246H241.734V248H256.944V246ZM241.734 246C241.517 246 241.338 245.94 241.164 245.81L239.964 247.41C240.484 247.8 241.084 248 241.734 248V246ZM241.364 246.01C241.234 245.836 241.174 245.657 241.174 245.44H239.174C239.174 246.09 239.374 246.69 239.764 247.21L241.364 246.01ZM241.174 245.44V157.56H239.174V245.44H241.174ZM241.174 157.56C241.174 157.341 241.232 157.266 241.271 157.227L239.857 155.813C239.376 156.294 239.174 156.912 239.174 157.56H241.174ZM241.271 157.227C241.457 157.041 241.602 157 241.734 157V155C241 155 240.364 155.306 239.857 155.813L241.271 157.227ZM241.734 157H256.944V155H241.734V157ZM256.944 157C257.063 157 257.113 157.025 257.184 157.12L258.784 155.92C258.335 155.322 257.692 155 256.944 155V157ZM257.384 157.32C257.479 157.391 257.504 157.441 257.504 157.56H259.504C259.504 156.812 259.183 156.169 258.584 155.72L257.384 157.32ZM257.504 157.56V192.53H259.504V157.56H257.504ZM257.504 192.53C257.504 192.901 257.598 193.363 257.96 193.725C258.322 194.087 258.783 194.18 259.154 194.18V192.18C259.092 192.18 259.228 192.165 259.374 192.31C259.519 192.456 259.504 192.593 259.504 192.53H257.504ZM259.154 194.18H287.884V192.18H259.154V194.18ZM287.884 194.18C288.255 194.18 288.717 194.087 289.079 193.725C289.441 193.363 289.534 192.901 289.534 192.53H287.534C287.534 192.593 287.519 192.456 287.665 192.31C287.81 192.165 287.947 192.18 287.884 192.18V194.18ZM289.534 192.53V157.56H287.534V192.53H289.534ZM336.235 244.27L335.758 245.149L335.764 245.152L336.235 244.27ZM324.275 232.7L323.406 233.195L323.41 233.201L324.275 232.7ZM324.275 170.56L325.14 171.061L324.275 170.56ZM336.235 159.12L336.7 160.005L336.706 160.002L336.235 159.12ZM372.115 159.12L371.638 159.999L371.647 160.004L371.656 160.008L372.115 159.12ZM384.205 170.56L383.34 171.061L384.205 170.56ZM372.115 244.4L372.58 245.285L372.586 245.282L372.115 244.4ZM365.745 228.15L365.028 227.453L365.745 228.15ZM365.745 175.37L365.008 176.046L365.018 176.056L365.028 176.067L365.745 175.37ZM342.605 175.37L341.878 174.683L341.877 174.684L342.605 175.37ZM342.605 228.15L341.877 228.836L341.883 228.841L341.888 228.847L342.605 228.15ZM354.175 247.43C347.555 247.43 341.741 246.073 336.706 243.388L335.764 245.152C341.129 248.014 347.275 249.43 354.175 249.43V247.43ZM336.712 243.391C331.757 240.704 327.906 236.976 325.14 232.199L323.41 233.201C326.364 238.304 330.486 242.29 335.758 245.149L336.712 243.391ZM325.144 232.205C322.38 227.347 320.985 221.759 320.985 215.41H318.985C318.985 222.061 320.45 227.999 323.406 233.195L325.144 232.205ZM320.985 215.41V187.59H318.985V215.41H320.985ZM320.985 187.59C320.985 181.33 322.379 175.831 325.14 171.061L323.41 170.059C320.451 175.169 318.985 181.023 318.985 187.59H320.985ZM325.14 171.061C327.905 166.286 331.752 162.605 336.7 160.005L335.77 158.235C330.492 161.008 326.365 164.954 323.41 170.059L325.14 171.061ZM336.706 160.002C341.741 157.317 347.555 155.96 354.175 155.96V153.96C347.275 153.96 341.129 155.376 335.764 158.238L336.706 160.002ZM354.175 155.96C360.885 155.96 366.695 157.318 371.638 159.999L372.592 158.241C367.308 155.375 361.159 153.96 354.175 153.96V155.96ZM371.656 160.008C376.691 162.61 380.578 166.291 383.34 171.061L385.07 170.059C382.112 164.949 377.939 161.004 372.574 158.232L371.656 160.008ZM383.34 171.061C386.101 175.831 387.495 181.33 387.495 187.59H389.495C389.495 181.023 388.029 175.169 385.07 170.059L383.34 171.061ZM387.495 187.59V215.41H389.495V187.59H387.495ZM387.495 215.41C387.495 221.759 386.1 227.347 383.336 232.205L385.074 233.195C388.03 227.999 389.495 222.061 389.495 215.41H387.495ZM383.336 232.205C380.571 237.065 376.681 240.832 371.644 243.518L372.586 245.282C377.949 242.422 382.119 238.389 385.074 233.195L383.336 232.205ZM371.65 243.515C366.704 246.113 360.89 247.43 354.175 247.43V249.43C361.154 249.43 367.299 248.06 372.58 245.285L371.65 243.515ZM354.175 233.7C359.174 233.7 363.303 232.099 366.462 228.847L365.028 227.453C362.294 230.267 358.709 231.7 354.175 231.7V233.7ZM366.462 228.847C369.624 225.592 371.165 221.294 371.165 216.06H369.165C369.165 220.879 367.76 224.641 365.028 227.453L366.462 228.847ZM371.165 216.06V187.46H369.165V216.06H371.165ZM371.165 187.46C371.165 182.226 369.624 177.928 366.462 174.673L365.028 176.067C367.76 178.879 369.165 182.641 369.165 187.46H371.165ZM366.482 174.694C363.404 171.336 359.263 169.69 354.175 169.69V171.69C358.793 171.69 362.366 173.164 365.008 176.046L366.482 174.694ZM354.175 169.69C349.167 169.69 345.036 171.34 341.878 174.683L343.332 176.057C346.068 173.16 349.65 171.69 354.175 171.69V169.69ZM341.877 174.684C338.808 177.94 337.315 182.234 337.315 187.46H339.315C339.315 182.633 340.682 178.867 343.333 176.056L341.877 174.684ZM337.315 187.46V216.06H339.315V187.46H337.315ZM337.315 216.06C337.315 221.286 338.808 225.58 341.877 228.836L343.333 227.464C340.682 224.653 339.315 220.887 339.315 216.06H337.315ZM341.888 228.847C345.047 232.099 349.176 233.7 354.175 233.7V231.7C349.641 231.7 346.056 230.267 343.322 227.453L341.888 228.847ZM450.647 245.83L451.561 245.424L451.559 245.419L450.647 245.83ZM434.397 209.82L435.309 209.409L435.301 209.391L435.292 209.373L434.397 209.82ZM420.357 246.61L421.064 247.317L420.357 246.61ZM402.937 246.61L402.137 247.21L402.223 247.324L402.337 247.41L402.937 246.61ZM402.937 156.52L402.23 155.813V155.813L402.937 156.52ZM455.847 159.38L455.371 160.259L455.378 160.263L455.847 159.38ZM465.597 169L464.718 169.476L464.722 169.483L464.726 169.49L465.597 169ZM464.687 198.64L465.503 199.218L465.509 199.21L464.687 198.64ZM452.337 207.48L452.026 206.53L451.995 206.54L451.966 206.552L452.337 207.48ZM451.947 208.39L451.019 208.761L451.031 208.793L451.046 208.823L451.947 208.39ZM469.627 245.18L468.726 245.613L468.729 245.62L468.733 245.627L469.627 245.18ZM447.397 192.01L446.718 191.276L446.711 191.283L446.704 191.289L447.397 192.01ZM447.397 175.11L446.69 175.817L446.704 175.831L446.718 175.844L447.397 175.11ZM452.467 246C452.187 246 452.015 245.938 451.903 245.866C451.792 245.795 451.67 245.669 451.561 245.424L449.733 246.236C449.971 246.771 450.326 247.23 450.821 247.549C451.316 247.867 451.881 248 452.467 248V246ZM451.559 245.419L435.309 209.409L433.486 210.231L449.736 246.241L451.559 245.419ZM435.292 209.373C435.146 209.081 434.933 208.802 434.627 208.598C434.315 208.39 433.966 208.3 433.617 208.3V210.3C433.62 210.3 433.608 210.3 433.586 210.294C433.564 210.288 433.539 210.277 433.517 210.262C433.472 210.232 433.475 210.213 433.503 210.267L435.292 209.373ZM433.617 208.3H421.527V210.3H433.617V208.3ZM421.527 208.3C421.156 208.3 420.695 208.393 420.333 208.755C419.971 209.117 419.877 209.579 419.877 209.95H421.877C421.877 209.887 421.892 210.024 421.747 210.17C421.601 210.315 421.465 210.3 421.527 210.3V208.3ZM419.877 209.95V245.44H421.877V209.95H419.877ZM419.877 245.44C419.877 245.572 419.836 245.717 419.65 245.903L421.064 247.317C421.572 246.81 421.877 246.174 421.877 245.44H419.877ZM419.65 245.903C419.611 245.942 419.536 246 419.317 246V248C419.965 248 420.584 247.798 421.064 247.317L419.65 245.903ZM419.317 246H404.107V248H419.317V246ZM404.107 246C403.89 246 403.711 245.94 403.537 245.81L402.337 247.41C402.857 247.8 403.457 248 404.107 248V246ZM403.737 246.01C403.607 245.836 403.547 245.657 403.547 245.44H401.547C401.547 246.09 401.747 246.69 402.137 247.21L403.737 246.01ZM403.547 245.44V157.56H401.547V245.44H403.547ZM403.547 157.56C403.547 157.341 403.605 157.266 403.644 157.227L402.23 155.813C401.749 156.294 401.547 156.912 401.547 157.56H403.547ZM403.644 157.227C403.83 157.041 403.975 157 404.107 157V155C403.373 155 402.737 155.306 402.23 155.813L403.644 157.227ZM404.107 157H441.287V155H404.107V157ZM441.287 157C446.696 157 451.381 158.098 455.371 160.259L456.323 158.501C451.994 156.156 446.971 155 441.287 155V157ZM455.378 160.263C459.454 162.426 462.56 165.492 464.718 169.476L466.476 168.524C464.128 164.188 460.734 160.841 456.316 158.497L455.378 160.263ZM464.726 169.49C466.97 173.48 468.107 178.117 468.107 183.43H470.107C470.107 177.823 468.904 172.84 466.469 168.51L464.726 169.49ZM468.107 183.43C468.107 189.149 466.68 194.013 463.866 198.07L465.509 199.21C468.587 194.773 470.107 189.498 470.107 183.43H468.107ZM463.871 198.062C461.06 202.031 457.128 204.857 452.026 206.53L452.649 208.43C458.119 206.637 462.421 203.569 465.503 199.218L463.871 198.062ZM451.966 206.552C451.606 206.695 451.202 206.962 450.996 207.444C450.789 207.925 450.875 208.402 451.019 208.761L452.876 208.019C452.846 207.945 452.91 208.053 452.834 208.231C452.758 208.41 452.635 208.438 452.709 208.408L451.966 206.552ZM451.046 208.823L468.726 245.613L470.529 244.747L452.849 207.957L451.046 208.823ZM468.733 245.627C468.806 245.774 468.85 245.88 468.874 245.951C468.885 245.986 468.889 246.005 468.89 246.01C468.892 246.016 468.887 245.998 468.887 245.96H470.887C470.887 245.532 470.699 245.087 470.522 244.733L468.733 245.627ZM468.887 245.96C468.887 246.019 468.877 246.024 468.889 245.998C468.903 245.967 468.926 245.942 468.942 245.931C468.951 245.925 468.929 245.943 468.847 245.963C468.764 245.983 468.638 246 468.457 246V248C469.025 248 469.632 247.902 470.118 247.549C470.663 247.152 470.887 246.562 470.887 245.96H468.887ZM468.457 246H452.467V248H468.457V246ZM421.527 170.73C421.156 170.73 420.695 170.823 420.333 171.185C419.971 171.547 419.877 172.009 419.877 172.38H421.877C421.877 172.317 421.892 172.454 421.747 172.6C421.601 172.745 421.465 172.73 421.527 172.73V170.73ZM419.877 172.38V194.61H421.877V172.38H419.877ZM419.877 194.61C419.877 194.981 419.971 195.443 420.333 195.805C420.695 196.167 421.156 196.26 421.527 196.26V194.26C421.465 194.26 421.601 194.245 421.747 194.39C421.892 194.536 421.877 194.673 421.877 194.61H419.877ZM421.527 196.26H438.557V194.26H421.527V196.26ZM438.557 196.26C442.41 196.26 445.62 195.106 448.09 192.731L446.704 191.289C444.668 193.247 441.984 194.26 438.557 194.26V196.26ZM448.077 192.744C450.64 190.37 451.907 187.278 451.907 183.56H449.907C449.907 186.775 448.834 189.316 446.718 191.276L448.077 192.744ZM451.907 183.56C451.907 179.842 450.64 176.75 448.077 174.376L446.718 175.844C448.834 177.804 449.907 180.345 449.907 183.56H451.907ZM448.104 174.403C445.636 171.935 442.421 170.73 438.557 170.73V172.73C441.973 172.73 444.651 173.778 446.69 175.817L448.104 174.403ZM438.557 170.73H421.527V172.73H438.557V170.73ZM482.791 246.61L481.991 247.21L482.076 247.324L482.191 247.41L482.791 246.61ZM482.791 156.52L482.084 155.813V155.813L482.791 156.52ZM500.211 156.52L499.411 157.12L499.496 157.234L499.611 157.32L500.211 156.52ZM500.211 246.61L500.918 247.317L500.211 246.61ZM483.961 246C483.744 246 483.564 245.94 483.391 245.81L482.191 247.41C482.71 247.8 483.311 248 483.961 248V246ZM483.591 246.01C483.461 245.836 483.401 245.657 483.401 245.44H481.401C481.401 246.09 481.601 246.69 481.991 247.21L483.591 246.01ZM483.401 245.44V157.56H481.401V245.44H483.401ZM483.401 157.56C483.401 157.341 483.459 157.266 483.498 157.227L482.084 155.813C481.603 156.294 481.401 156.912 481.401 157.56H483.401ZM483.498 157.227C483.684 157.041 483.828 157 483.961 157V155C483.226 155 482.591 155.306 482.084 155.813L483.498 157.227ZM483.961 157H499.171V155H483.961V157ZM499.171 157C499.289 157 499.34 157.025 499.411 157.12L501.011 155.92C500.562 155.322 499.919 155 499.171 155V157ZM499.611 157.32C499.706 157.391 499.731 157.441 499.731 157.56H501.731C501.731 156.812 501.409 156.169 500.811 155.72L499.611 157.32ZM499.731 157.56V245.44H501.731V157.56H499.731ZM499.731 245.44C499.731 245.572 499.69 245.717 499.504 245.903L500.918 247.317C501.425 246.81 501.731 246.174 501.731 245.44H499.731ZM499.504 245.903C499.464 245.942 499.39 246 499.171 246V248C499.818 248 500.437 247.798 500.918 247.317L499.504 245.903ZM499.171 246H483.961V248H499.171V246ZM572.711 245.7L573.669 245.413L573.667 245.407L572.711 245.7ZM568.811 232.96L569.767 232.667L569.743 232.587L569.706 232.513L568.811 232.96ZM535.531 232.96L534.637 232.513L534.597 232.592L534.572 232.676L535.531 232.96ZM531.761 245.7L532.719 245.987L532.72 245.984L531.761 245.7ZM512.391 246.61L511.591 247.21L511.634 247.267L511.684 247.317L512.391 246.61ZM512.261 245.18L511.309 244.876L511.304 244.89L511.3 244.905L512.261 245.18ZM540.341 157.3L541.294 157.604L541.296 157.596L541.299 157.587L540.341 157.3ZM564.131 157.3L563.173 157.587L563.176 157.596L563.179 157.604L564.131 157.3ZM592.211 245.18L591.259 245.484L591.282 245.558L591.317 245.627L592.211 245.18ZM540.211 217.49L539.252 217.206L539.235 217.265L539.225 217.326L540.211 217.49ZM564.131 217.49L563.174 217.78L563.178 217.793L563.182 217.806L564.131 217.49ZM552.431 178.88L551.461 179.123L551.467 179.146L551.474 179.17L552.431 178.88ZM552.041 178.49V179.49H552.277L552.488 179.384L552.041 178.49ZM551.651 178.88L550.702 178.564L550.697 178.58L550.692 178.596L551.651 178.88ZM574.401 246C574.139 246 574.01 245.937 573.938 245.882C573.863 245.825 573.755 245.7 573.669 245.413L571.753 245.987C571.927 246.566 572.231 247.092 572.719 247.468C573.211 247.846 573.797 248 574.401 248V246ZM573.667 245.407L569.767 232.667L567.855 233.253L571.755 245.993L573.667 245.407ZM569.706 232.513C569.456 232.013 568.971 231.44 568.161 231.44V233.44C568.113 233.44 568.059 233.431 568.006 233.412C567.954 233.393 567.917 233.369 567.894 233.351C567.854 233.319 567.871 233.315 567.917 233.407L569.706 232.513ZM568.161 231.44H536.181V233.44H568.161V231.44ZM536.181 231.44C535.371 231.44 534.886 232.013 534.637 232.513L536.426 233.407C536.471 233.315 536.488 233.319 536.448 233.351C536.425 233.369 536.388 233.393 536.336 233.412C536.283 233.431 536.23 233.44 536.181 233.44V231.44ZM534.572 232.676L530.802 245.416L532.72 245.984L536.49 233.244L534.572 232.676ZM530.803 245.413C530.717 245.7 530.609 245.825 530.534 245.882C530.463 245.937 530.334 246 530.071 246V248C530.675 248 531.261 247.846 531.753 247.468C532.241 247.092 532.545 246.566 532.719 245.987L530.803 245.413ZM530.071 246H513.561V248H530.071V246ZM513.561 246C513.195 246 513.104 245.909 513.098 245.903L511.684 247.317C512.198 247.831 512.887 248 513.561 248V246ZM513.191 246.01C513.184 246 513.166 245.976 513.159 245.902C513.152 245.819 513.16 245.675 513.223 245.455L511.3 244.905C511.081 245.669 511.069 246.514 511.591 247.21L513.191 246.01ZM513.214 245.484L541.294 157.604L539.389 156.996L511.309 244.876L513.214 245.484ZM541.299 157.587C541.385 157.3 541.493 157.175 541.568 157.118C541.64 157.063 541.769 157 542.031 157V155C541.427 155 540.841 155.154 540.349 155.532C539.861 155.908 539.557 156.434 539.383 157.013L541.299 157.587ZM542.031 157H562.441V155H542.031V157ZM562.441 157C562.704 157 562.833 157.063 562.904 157.118C562.979 157.175 563.087 157.3 563.173 157.587L565.089 157.013C564.915 156.434 564.612 155.908 564.123 155.532C563.631 155.154 563.045 155 562.441 155V157ZM563.179 157.604L591.259 245.484L593.164 244.876L565.084 156.996L563.179 157.604ZM591.317 245.627C591.314 245.623 591.341 245.675 591.341 245.83H593.341C593.341 245.465 593.281 245.084 593.106 244.733L591.317 245.627ZM591.341 245.83C591.341 245.925 591.326 245.963 591.326 245.965C591.325 245.965 591.328 245.96 591.334 245.952C591.34 245.943 591.346 245.937 591.35 245.934C591.366 245.921 591.277 246 590.911 246V248C591.499 248 592.125 247.884 592.617 247.481C593.147 247.048 593.341 246.433 593.341 245.83H591.341ZM590.911 246H574.401V248H590.911V246ZM539.225 217.326C539.166 217.676 539.147 218.184 539.444 218.63C539.783 219.138 540.321 219.27 540.731 219.27V217.27C540.718 217.27 540.768 217.267 540.849 217.302C540.941 217.342 541.038 217.415 541.108 217.52C541.173 217.618 541.186 217.699 541.189 217.721C541.191 217.74 541.186 217.723 541.198 217.654L539.225 217.326ZM540.731 219.27H563.611V217.27H540.731V219.27ZM563.611 219.27C563.981 219.27 564.594 219.184 564.963 218.63C565.315 218.101 565.193 217.514 565.08 217.174L563.182 217.806C563.204 217.872 563.196 217.875 563.196 217.831C563.196 217.78 563.208 217.656 563.299 217.52C563.392 217.38 563.513 217.312 563.585 217.285C563.646 217.262 563.666 217.27 563.611 217.27V219.27ZM565.088 217.2L553.388 178.59L551.474 179.17L563.174 217.78L565.088 217.2ZM553.401 178.637C553.348 178.426 553.242 178.081 552.976 177.815C552.822 177.661 552.597 177.517 552.304 177.476C552.018 177.435 551.771 177.507 551.594 177.596L552.488 179.384C552.398 179.43 552.233 179.486 552.022 179.456C551.805 179.425 551.651 179.319 551.562 179.23C551.482 179.15 551.451 179.081 551.448 179.074C551.442 179.063 551.449 179.075 551.461 179.123L553.401 178.637ZM552.041 177.49C551.203 177.49 550.833 178.173 550.702 178.564L552.6 179.196C552.616 179.147 552.606 179.209 552.521 179.295C552.474 179.342 552.405 179.394 552.313 179.434C552.22 179.473 552.126 179.49 552.041 179.49V177.49ZM550.692 178.596L539.252 217.206L541.17 217.774L552.61 179.164L550.692 178.596Z" fill="white" mask="url(#path-1-outside-1_1_1175)"/>
</svg>
