<svg width="99" height="53" viewBox="0 0 99 53" fill="none" xmlns="http://www.w3.org/2000/svg">
<path d="M13.44 16.425C13.02 18.945 12.81 22.1533 12.81 26.05C12.81 28.92 12.9267 30.81 13.16 31.72L13.3 32.175C13.3 32.4783 13.0433 32.63 12.53 32.63C10.7333 32.63 9.70667 32.1283 9.45 31.125C9.42667 31.0083 9.36833 30.95 9.275 30.95C9.205 30.95 9.135 30.9967 9.065 31.09C8.34167 32.0467 7.22167 32.525 5.705 32.525C4.865 32.525 3.99 32.315 3.08 31.895C2.52 31.6383 2.065 31.195 1.715 30.565C1.365 29.9117 1.19 29.1183 1.19 28.185L1.715 20.52C1.715 18.91 1.55167 17.7667 1.225 17.09C1.10833 16.8333 1.05 16.67 1.05 16.6C1.05 16.46 1.10833 16.3667 1.225 16.32C1.59833 16.2033 2.07667 16.145 2.66 16.145C4.92333 16.145 6.055 17.0783 6.055 18.945C6.055 19.5283 5.81 20.8583 5.32 22.935C4.85333 25.0117 4.62 26.4933 4.62 27.38C4.62 28.2433 4.80667 28.9083 5.18 29.375C5.57667 29.8417 6.11333 30.075 6.79 30.075C7.49 30.075 8.03833 29.83 8.435 29.34C8.83167 28.85 9.065 28.36 9.135 27.87L9.24 27.135C9.33333 26.3183 9.38 24.8833 9.38 22.83C9.38 20.7767 9.31 19.4817 9.17 18.945C9.05333 18.385 8.995 18.035 8.995 17.895C8.995 17.3117 9.46167 16.8567 10.395 16.53C11.3283 16.18 12.1683 16.005 12.915 16.005C13.265 16.005 13.44 16.145 13.44 16.425ZM15.132 32.245C15.552 29.725 15.762 26.7033 15.762 23.18C15.762 19.6567 15.657 17.37 15.447 16.32C15.447 16.0167 15.797 15.865 16.497 15.865C17.5704 15.865 18.282 16.2733 18.632 17.09C18.6554 17.16 18.7137 17.195 18.807 17.195C18.9004 17.195 18.9704 17.1717 19.017 17.125C19.7404 16.3783 20.8604 16.005 22.377 16.005C23.8937 16.005 25.0954 16.39 25.982 17.16C26.8687 17.93 27.312 19.05 27.312 20.52C27.312 21.4067 27.2304 22.6667 27.067 24.3C26.927 25.9333 26.857 27.1467 26.857 27.94C26.857 29.83 27.172 31.195 27.802 32.035C27.8954 32.1517 27.942 32.2683 27.942 32.385C27.942 32.6883 27.6154 32.84 26.962 32.84C24.0687 32.84 22.622 31.5567 22.622 28.99C22.622 28.01 22.8437 26.645 23.287 24.895C23.7304 23.145 23.952 21.815 23.952 20.905C23.952 19.0383 23.182 18.105 21.642 18.105C20.8954 18.105 20.3237 18.3267 19.927 18.77C19.5537 19.2133 19.3437 19.7267 19.297 20.31C19.2504 20.87 19.227 21.9433 19.227 23.53C19.227 25.9567 19.3087 28.0683 19.472 29.865L19.542 30.635C19.542 31.2883 19.1104 31.79 18.247 32.14C17.407 32.5133 16.672 32.7 16.042 32.7C15.4354 32.7 15.132 32.5483 15.132 32.245ZM32.7165 13.275L31.8765 13.24C31.2465 13.24 30.8382 13.3917 30.6515 13.695C30.6049 13.765 30.5465 13.8 30.4765 13.8C30.1732 13.8 30.0215 13.2867 30.0215 12.26C30.0215 11.21 30.1732 10.545 30.4765 10.265C30.8032 9.985 31.3515 9.845 32.1215 9.845C32.9149 9.845 33.4515 9.985 33.7315 10.265C34.0115 10.5217 34.1515 10.965 34.1515 11.595C34.1515 12.225 34.0465 12.6683 33.8365 12.925C33.6265 13.1583 33.2532 13.275 32.7165 13.275ZM29.9165 30.95L30.3015 22.795C30.3015 20.8583 30.0799 19.54 29.6365 18.84C29.4965 18.6067 29.3332 18.4317 29.1465 18.315C29.0065 18.2683 28.9365 18.175 28.9365 18.035C28.9365 17.615 29.5315 17.2067 30.7215 16.81C31.9115 16.4133 32.7749 16.215 33.3115 16.215C33.8715 16.215 34.1632 16.355 34.1865 16.635C34.1865 17.1017 34.1165 18.4317 33.9765 20.625C33.8599 22.795 33.8015 25.0817 33.8015 27.485C33.8015 29.8883 33.9415 31.3817 34.2215 31.965C34.2915 32.0817 34.3265 32.1983 34.3265 32.315C34.3265 32.6183 33.8832 32.77 32.9965 32.77C32.1099 32.77 31.1999 32.5367 30.2665 32.07C30.0332 31.9533 29.9165 31.58 29.9165 30.95ZM44.7552 39.07L44.9652 35.15C44.9652 35.01 44.9068 34.94 44.7902 34.94C44.4402 34.94 44.0902 34.835 43.7402 34.625C43.4135 34.415 43.2502 34.1583 43.2502 33.855L43.3902 33.575C43.8568 33.295 44.2302 32.9333 44.5102 32.49C44.7902 32.07 44.9535 31.72 45.0002 31.44L45.0352 31.02C45.2218 26.2367 45.3152 23.74 45.3152 23.53C45.3152 20.7767 45.1635 19.1433 44.8602 18.63C44.6968 18.3267 44.2885 18.175 43.6352 18.175C43.0052 18.175 42.4218 18.42 41.8852 18.91C41.3485 19.3767 40.9635 19.995 40.7302 20.765C40.2635 22.1883 40.0302 23.5067 40.0302 24.72C40.0302 27.45 40.7885 28.815 42.3052 28.815C42.5385 28.815 42.7602 28.7683 42.9702 28.675C43.2035 28.5583 43.3435 28.5 43.3902 28.5C43.6235 28.5 43.7402 28.8617 43.7402 29.585C43.7402 30.3083 43.4835 30.9733 42.9702 31.58C42.4568 32.1867 41.6985 32.49 40.6952 32.49C39.6918 32.49 38.8868 32.2567 38.2802 31.79C37.6968 31.3233 37.2768 30.7167 37.0202 29.97C36.5302 28.6167 36.2852 27.17 36.2852 25.63C36.2852 23.1333 36.9268 20.94 38.2102 19.05C39.5168 17.1367 41.3018 16.18 43.5652 16.18C44.4985 16.18 45.1985 16.3667 45.6652 16.74C45.8285 16.8567 45.9452 16.915 46.0152 16.915C46.0852 16.915 46.1435 16.8917 46.1902 16.845C46.9368 16.1917 47.7768 15.865 48.7102 15.865C49.0835 15.865 49.2702 15.9817 49.2702 16.215C49.2702 16.285 49.2118 16.6933 49.0952 17.44C48.7218 19.8667 48.5352 23.285 48.5352 27.695C48.5352 27.8117 48.6285 27.8817 48.8152 27.905C49.0018 27.9283 49.2818 28.0333 49.6552 28.22C50.0285 28.4067 50.2152 28.6167 50.2152 28.85C50.2152 28.9433 50.1568 29.025 50.0402 29.095C49.0135 29.7483 48.5002 30.9383 48.5002 32.665C48.5002 37.1217 48.7452 40.1783 49.2352 41.835C49.3052 41.975 49.3402 42.1033 49.3402 42.22C49.3402 42.4067 49.1535 42.5 48.7802 42.5C48.4302 42.5 47.9518 42.395 47.3452 42.185C46.7385 41.9983 46.1552 41.625 45.5952 41.065C45.0352 40.5283 44.7552 39.8633 44.7552 39.07ZM63.855 16.425C63.435 18.945 63.225 22.1533 63.225 26.05C63.225 28.92 63.3417 30.81 63.575 31.72L63.715 32.175C63.715 32.4783 63.4584 32.63 62.945 32.63C61.1484 32.63 60.1217 32.1283 59.865 31.125C59.8417 31.0083 59.7834 30.95 59.69 30.95C59.62 30.95 59.55 30.9967 59.48 31.09C58.7567 32.0467 57.6367 32.525 56.12 32.525C55.28 32.525 54.405 32.315 53.495 31.895C52.935 31.6383 52.48 31.195 52.13 30.565C51.78 29.9117 51.605 29.1183 51.605 28.185L52.13 20.52C52.13 18.91 51.9667 17.7667 51.64 17.09C51.5234 16.8333 51.465 16.67 51.465 16.6C51.465 16.46 51.5234 16.3667 51.64 16.32C52.0134 16.2033 52.4917 16.145 53.075 16.145C55.3384 16.145 56.47 17.0783 56.47 18.945C56.47 19.5283 56.225 20.8583 55.735 22.935C55.2684 25.0117 55.035 26.4933 55.035 27.38C55.035 28.2433 55.2217 28.9083 55.595 29.375C55.9917 29.8417 56.5284 30.075 57.205 30.075C57.905 30.075 58.4534 29.83 58.85 29.34C59.2467 28.85 59.48 28.36 59.55 27.87L59.655 27.135C59.7484 26.3183 59.795 24.8833 59.795 22.83C59.795 20.7767 59.725 19.4817 59.585 18.945C59.4684 18.385 59.41 18.035 59.41 17.895C59.41 17.3117 59.8767 16.8567 60.81 16.53C61.7434 16.18 62.5834 16.005 63.33 16.005C63.68 16.005 63.855 16.145 63.855 16.425ZM68.8721 23.11L68.9071 23.985C68.9071 24.125 69.0004 24.195 69.1871 24.195C69.9337 24.125 70.5871 23.9383 71.1471 23.635C71.7071 23.3083 72.1271 22.9467 72.4071 22.55C72.9671 21.6867 73.2704 20.94 73.3171 20.31L73.3521 19.89C73.3521 18.63 72.8504 18 71.8471 18C71.1004 18 70.4937 18.3267 70.0271 18.98C69.2571 20.0067 68.8721 21.3833 68.8721 23.11ZM76.5021 27.765C76.5021 28.6517 76.3154 29.4333 75.9421 30.11C75.5921 30.7633 75.1837 31.2533 74.7171 31.58C74.2737 31.8833 73.7487 32.1283 73.1421 32.315C72.3721 32.5483 71.6371 32.665 70.9371 32.665C68.9771 32.665 67.5304 31.93 66.5971 30.46C65.6637 28.99 65.1971 27.1233 65.1971 24.86C65.1971 22.5733 65.7687 20.5433 66.9121 18.77C68.0787 16.9967 69.8171 16.11 72.1271 16.11C74.2271 16.11 75.6504 16.845 76.3971 18.315C76.7004 18.875 76.8521 19.4117 76.8521 19.925C76.8521 20.415 76.8287 20.8117 76.7821 21.115C76.7354 21.395 76.5721 21.8267 76.2921 22.41C76.0121 22.9933 75.6387 23.5183 75.1721 23.985C74.7054 24.4517 73.9704 24.895 72.9671 25.315C71.9637 25.735 70.7854 26.015 69.4321 26.155C69.2454 26.155 69.1521 26.2367 69.1521 26.4C69.1521 26.61 69.2221 26.925 69.3621 27.345C69.5254 27.7417 69.7004 28.08 69.8871 28.36C70.4004 29.0133 71.1587 29.34 72.1621 29.34C73.1654 29.34 74.0171 29.0133 74.7171 28.36C75.0904 28.01 75.3937 27.5783 75.6271 27.065C75.7204 26.8783 75.8371 26.785 75.9771 26.785C76.1404 26.785 76.2687 26.9133 76.3621 27.17C76.4554 27.4267 76.5021 27.625 76.5021 27.765Z" fill="white"/>
<path d="M13.4844 44.8516C13.4844 46.2057 13.1953 47.263 12.6172 48.0234C12.0391 48.7786 11.2318 49.1562 10.1953 49.1562C9.27865 49.1562 8.54688 48.8047 8 48.1016L7.89844 49H5.86719V37H8.125V41.3047C8.64583 40.6953 9.33073 40.3906 10.1797 40.3906C11.2109 40.3906 12.0182 40.7708 12.6016 41.5312C13.1901 42.2865 13.4844 43.3516 13.4844 44.7266V44.8516ZM11.2266 44.6875C11.2266 43.8333 11.0911 43.2109 10.8203 42.8203C10.5495 42.4245 10.1458 42.2266 9.60938 42.2266C8.89062 42.2266 8.39583 42.5208 8.125 43.1094V46.4453C8.40104 47.0391 8.90104 47.3359 9.625 47.3359C10.3542 47.3359 10.8333 46.9766 11.0625 46.2578C11.1719 45.9141 11.2266 45.3906 11.2266 44.6875ZM17.2656 49H15V40.5469H17.2656V49ZM14.8672 38.3594C14.8672 38.0208 14.9792 37.7422 15.2031 37.5234C15.4323 37.3047 15.7422 37.1953 16.1328 37.1953C16.5182 37.1953 16.8255 37.3047 17.0547 37.5234C17.2839 37.7422 17.3984 38.0208 17.3984 38.3594C17.3984 38.7031 17.2812 38.9844 17.0469 39.2031C16.8177 39.4219 16.513 39.5312 16.1328 39.5312C15.7526 39.5312 15.4453 39.4219 15.2109 39.2031C14.9818 38.9844 14.8672 38.7031 14.8672 38.3594ZM22.2031 45.6094L21.3906 46.4219V49H19.1328V37H21.3906V43.6484L21.8281 43.0859L23.9922 40.5469H26.7031L23.6484 44.0703L26.9688 49H24.375L22.2031 45.6094ZM31.4141 49.1562C30.1745 49.1562 29.1641 48.776 28.3828 48.0156C27.6068 47.2552 27.2188 46.2422 27.2188 44.9766V44.7578C27.2188 43.9089 27.3828 43.151 27.7109 42.4844C28.0391 41.8125 28.5026 41.2969 29.1016 40.9375C29.7057 40.5729 30.3932 40.3906 31.1641 40.3906C32.3203 40.3906 33.2292 40.7552 33.8906 41.4844C34.5573 42.2135 34.8906 43.2474 34.8906 44.5859V45.5078H29.5078C29.5807 46.0599 29.7995 46.5026 30.1641 46.8359C30.5339 47.1693 31 47.3359 31.5625 47.3359C32.4323 47.3359 33.112 47.0208 33.6016 46.3906L34.7109 47.6328C34.3724 48.112 33.9141 48.487 33.3359 48.7578C32.7578 49.0234 32.1172 49.1562 31.4141 49.1562ZM31.1562 42.2188C30.7083 42.2188 30.3438 42.3698 30.0625 42.6719C29.7865 42.974 29.6094 43.4062 29.5312 43.9688H32.6719V43.7891C32.6615 43.2891 32.526 42.9036 32.2656 42.6328C32.0052 42.3568 31.6354 42.2188 31.1562 42.2188ZM40.7578 46.6641C40.7578 46.388 40.6198 46.1719 40.3438 46.0156C40.0729 45.8542 39.6354 45.7109 39.0312 45.5859C37.0208 45.1641 36.0156 44.3099 36.0156 43.0234C36.0156 42.2734 36.3255 41.6484 36.9453 41.1484C37.5703 40.6432 38.3854 40.3906 39.3906 40.3906C40.4635 40.3906 41.3203 40.6432 41.9609 41.1484C42.6068 41.6536 42.9297 42.3099 42.9297 43.1172H40.6719C40.6719 42.7943 40.5677 42.5286 40.3594 42.3203C40.151 42.1068 39.8255 42 39.3828 42C39.0026 42 38.7083 42.0859 38.5 42.2578C38.2917 42.4297 38.1875 42.6484 38.1875 42.9141C38.1875 43.1641 38.3047 43.3672 38.5391 43.5234C38.7786 43.6745 39.1797 43.8073 39.7422 43.9219C40.3047 44.0312 40.7786 44.1562 41.1641 44.2969C42.3568 44.7344 42.9531 45.4922 42.9531 46.5703C42.9531 47.3411 42.6224 47.9661 41.9609 48.4453C41.2995 48.9193 40.4453 49.1562 39.3984 49.1562C38.6901 49.1562 38.0599 49.0312 37.5078 48.7812C36.9609 48.526 36.5312 48.1797 36.2188 47.7422C35.9062 47.2995 35.75 46.8229 35.75 46.3125H37.8906C37.9115 46.7135 38.0599 47.0208 38.3359 47.2344C38.612 47.4479 38.9818 47.5547 39.4453 47.5547C39.8776 47.5547 40.2031 47.474 40.4219 47.3125C40.6458 47.1458 40.7578 46.9297 40.7578 46.6641Z" fill="#DE1313" fill-opacity="0.9"/>
</svg>
